<svg width="21" height="21" viewBox="0 0 21 21" fill="none" xmlns="http://www.w3.org/2000/svg">
<path d="M17.25 20.4981C17.0666 20.4987 16.8893 20.4351 16.7517 20.3196L12.4386 16.6674C11.3198 15.7201 9.68018 15.7201 8.56137 16.6674L4.24828 20.3196C4.1401 20.4112 4.00639 20.471 3.8633 20.4918C3.72021 20.5126 3.57385 20.4936 3.44187 20.4369C3.3099 20.3803 3.19796 20.2885 3.11955 20.1726C3.04115 20.0568 2.99963 19.9218 3 19.7839V3.35688C3.00087 2.59944 3.31722 1.87326 3.87964 1.33767C4.44206 0.802084 5.20462 0.500827 6 0.5H15C15.7954 0.500827 16.5579 0.802084 17.1204 1.33767C17.6828 1.87326 17.9991 2.59944 18 3.35688V19.7839C18 19.9733 17.921 20.155 17.7803 20.289C17.6397 20.4229 17.4489 20.4981 17.25 20.4981Z" fill="#356899"/>
</svg>
