<svg width="128" height="104" viewBox="0 0 128 104" fill="none" xmlns="http://www.w3.org/2000/svg">
<mask id="mask0_8_7034" style="mask-type:alpha" maskUnits="userSpaceOnUse" x="0" y="0" width="128" height="105">
<path d="M0 0H128V104.448H0V0Z" fill="#34A853"/>
</mask>
<g mask="url(#mask0_8_7034)">
<g opacity="0.06">
<path d="M34.3317 55.5756L36.9116 51.7464L37.8539 54.9446L40.9393 54.1302L41.4852 57.0965L44.9671 56.5194L42.393 60.3486L34.3317 55.5756Z" fill="#0D0D26"/>
<path d="M42.393 60.7261C42.3183 60.7261 42.2436 60.7045 42.1804 60.6668L34.1249 55.8938C33.9353 55.7805 33.8836 55.5486 33.9985 55.3706L36.5726 51.5414C36.6588 51.4174 36.8139 51.3473 36.969 51.3689C37.1242 51.3904 37.2563 51.4983 37.2965 51.6439L38.1297 54.4808L40.8302 53.7689C40.9393 53.7419 41.06 53.7581 41.1519 53.812C41.2496 53.8713 41.3128 53.963 41.3358 54.0655L41.8127 56.6596L44.8981 56.1473C45.0533 56.1203 45.2142 56.185 45.3003 56.3091C45.3865 56.4331 45.3923 56.5949 45.3061 56.719L42.732 60.5481C42.6573 60.6614 42.5252 60.7261 42.393 60.7261ZM34.8891 55.4569L42.2666 59.8254L44.1397 57.0371L41.5541 57.4686C41.4507 57.4848 41.3415 57.4632 41.2554 57.4039C41.1692 57.3446 41.106 57.2583 41.0887 57.1612L40.6176 54.6048L37.9573 55.3059C37.8539 55.3329 37.7447 55.3221 37.6528 55.2736C37.5608 55.225 37.4919 55.1441 37.4632 55.047L36.7622 52.6686L34.8891 55.4569Z" fill="#0D0D26"/>
<path d="M9.67093 10.8926C9.59623 10.747 9.55601 10.4288 9.55601 10.4288L8.95271 2.75964L14.7387 8.20141L14.7272 8.20681C14.8536 8.31467 14.9685 8.43872 15.0432 8.58433C15.4799 9.47422 14.6295 10.7147 13.1471 11.3511C11.659 11.9875 10.1019 11.7825 9.67093 10.8926Z" fill="#0D0D26"/>
<path d="M11.4349 12.1007C10.4524 12.1007 9.64227 11.734 9.30902 11.049C9.21708 10.8603 9.17112 10.5636 9.15962 10.472L8.55058 2.7866C8.53909 2.63019 8.63102 2.47918 8.78615 2.41446C8.94129 2.34975 9.1194 2.37671 9.24006 2.48997L15.026 7.93174C15.049 7.95331 15.0662 7.97489 15.0835 8.00185C15.2271 8.13668 15.3305 8.27691 15.4052 8.42792C15.6753 8.97803 15.5834 9.63061 15.1467 10.267C14.7502 10.8495 14.0952 11.3564 13.308 11.6908C12.6645 11.9713 12.021 12.1007 11.4349 12.1007ZM10.0387 10.7308C10.372 11.4158 11.7165 11.5452 12.9748 11.0059C13.6241 10.7254 14.1527 10.3209 14.4687 9.85712C14.7502 9.44724 14.8249 9.04814 14.6698 8.74073C14.6296 8.65983 14.5606 8.57354 14.4514 8.48185C14.4227 8.45488 14.394 8.42252 14.371 8.39017L9.42968 3.7412L9.95254 10.3911C9.96977 10.4989 10.01 10.6769 10.0387 10.7308Z" fill="#0D0D26"/>
<path d="M11.5675 8.1259C13.0499 7.4895 14.6012 7.69444 15.0379 8.58433C15.4746 9.47421 14.6242 10.7147 13.1418 11.3511C11.6594 11.9875 10.1081 11.7825 9.67141 10.8926C9.23473 9.99736 10.0851 8.76231 11.5675 8.1259Z" fill="#0D0D26"/>
<path d="M11.4352 12.0953C11.2686 12.0953 11.1077 12.0846 10.9526 12.063C10.1597 11.9551 9.56787 11.5938 9.30357 11.0437C9.03352 10.4936 9.12545 9.84098 9.56213 9.20457C9.95858 8.62211 10.6136 8.11514 11.4008 7.78076C13.113 7.04728 14.8712 7.33312 15.4055 8.42795C15.9399 9.52278 15.0206 10.9574 13.3083 11.6909C12.6878 11.9605 12.0385 12.0953 11.4352 12.0953ZM11.734 8.4711C11.0847 8.75154 10.5561 9.15604 10.2401 9.61985C9.95858 10.0297 9.88389 10.4288 10.039 10.7363C10.1884 11.0437 10.5561 11.254 11.0733 11.3241C11.6536 11.3996 12.3316 11.2918 12.9751 11.0113C14.2334 10.472 15.0091 9.43648 14.6758 8.74615C14.3368 8.05582 12.9923 7.93177 11.734 8.4711Z" fill="#0D0D26"/>
<path d="M120.685 86.8455L116.772 85.6051L115.962 81.8082L119.053 79.2518L122.966 80.4869L123.781 84.2837L120.685 86.8455Z" fill="#0D0D26"/>
<path d="M120.684 87.223C120.638 87.223 120.598 87.2176 120.558 87.2015L116.645 85.9664C116.507 85.9233 116.41 85.8154 116.381 85.6806L115.565 81.8837C115.536 81.7489 115.588 81.6141 115.691 81.5278L118.788 78.966C118.897 78.8743 119.047 78.8474 119.185 78.8905L123.098 80.1255C123.236 80.1687 123.333 80.2766 123.362 80.4114L124.178 84.2082C124.207 84.3431 124.155 84.4779 124.051 84.5642L120.954 87.126C120.874 87.1907 120.776 87.223 120.684 87.223ZM117.122 85.3192L120.592 86.4195L123.339 84.1489L122.615 80.7781L119.145 79.6779L116.398 81.9485L117.122 85.3192Z" fill="#0D0D26"/>
<path d="M120.684 87.2232C120.495 87.2232 120.328 87.0991 120.288 86.9211L119.518 83.34L115.829 82.1751C115.617 82.1104 115.507 81.8946 115.576 81.6951C115.645 81.4955 115.875 81.3931 116.088 81.4578L120.001 82.6928C120.138 82.736 120.236 82.8438 120.265 82.9787L121.081 86.7755C121.127 86.9805 120.983 87.18 120.765 87.2178C120.736 87.2178 120.707 87.2232 120.684 87.2232Z" fill="#0D0D26"/>
<path d="M119.868 83.4262C119.759 83.4262 119.644 83.3831 119.564 83.2968C119.415 83.1404 119.432 82.9031 119.598 82.7628L122.695 80.2011C122.862 80.0662 123.115 80.077 123.264 80.2334C123.414 80.3898 123.396 80.6271 123.23 80.7673L120.133 83.3291C120.058 83.3939 119.966 83.4262 119.868 83.4262Z" fill="#0D0D26"/>
<path d="M72.1962 69.1235L72.2019 69.1342C72.2479 69.0857 72.2938 69.0372 72.3456 68.994C72.4145 68.9347 72.4835 68.8808 72.5696 68.8376C72.6386 68.8053 72.7363 68.7783 72.8282 68.7567C72.8684 68.7459 72.9144 68.7352 72.9546 68.7298C72.9948 68.719 73.0293 68.7136 73.0293 68.7136L73.2189 68.719C73.2476 68.719 73.2764 68.719 73.3108 68.7244L78.4705 68.8916L75.6896 72.9742C75.6723 73.0012 75.6551 73.0228 75.6379 73.0497L75.5344 73.2008L75.5287 73.19C75.4827 73.2385 75.4368 73.287 75.385 73.3302C75.3161 73.3895 75.2471 73.4434 75.161 73.4866C75.092 73.519 74.9886 73.5459 74.8967 73.5675C74.8564 73.5783 74.8162 73.5891 74.7703 73.5945C74.73 73.6052 74.6956 73.6106 74.6956 73.6106L74.506 73.6052C74.4772 73.6052 74.4485 73.6052 74.414 73.5999L69.2544 73.4327L72.0353 69.35C72.0525 69.323 72.0698 69.3014 72.087 69.2745L72.1962 69.1235Z" fill="#0D0D26"/>
<path d="M74.7012 73.9773C74.6955 73.9773 74.6897 73.9773 74.6897 73.9773L74.5001 73.9719C74.4427 73.9719 74.4082 73.9719 74.3737 73.9665L69.2543 73.8047C69.1106 73.7994 68.9785 73.7239 68.9095 73.6052C68.8406 73.4865 68.8463 73.3409 68.9268 73.2277L71.7077 69.145C71.7077 69.1396 71.7422 69.0965 71.7422 69.0965L71.8571 68.9239C71.8858 68.8807 71.926 68.843 71.9663 68.816C72.0007 68.7836 72.0352 68.7459 72.0754 68.7189C72.1329 68.665 72.2363 68.5841 72.3742 68.514C72.3742 68.514 72.38 68.514 72.38 68.5086C72.4661 68.4654 72.5753 68.4277 72.7304 68.3953C72.8051 68.3738 72.8569 68.363 72.9028 68.3576L72.9488 68.3468C72.9775 68.3414 73.0177 68.336 73.0407 68.3414L73.2303 68.3468C73.2878 68.3468 73.3223 68.3468 73.351 68.3522L78.4762 68.5194C78.6198 68.5248 78.752 68.6003 78.8209 68.7189C78.8899 68.8376 78.8841 68.9832 78.8037 69.0965L76.0227 73.1737C76.0227 73.1737 76.0055 73.2007 75.9883 73.2277L75.8734 73.3949C75.8446 73.438 75.8044 73.4758 75.7642 73.5027C75.7297 73.5405 75.6952 73.5728 75.655 73.6052C75.5688 73.6861 75.4769 73.7508 75.3735 73.7994C75.362 73.8047 75.3505 73.8101 75.3448 73.8155C75.2643 73.8533 75.1551 73.891 75.0058 73.9288C74.9311 73.9504 74.8851 73.9558 74.8334 73.9665L74.7817 73.9773C74.7529 73.9773 74.7242 73.9773 74.7012 73.9773ZM69.984 73.0713L74.4369 73.2169L74.5116 73.5998L74.5231 73.2223L74.6668 73.2277L74.7644 73.2061C74.8966 73.1737 74.9483 73.1576 74.9655 73.1468C74.9713 73.1414 74.977 73.1414 74.9828 73.136C75.0172 73.1198 75.0575 73.0874 75.1092 73.0443C75.1551 73.0065 75.1839 72.9742 75.2126 72.9418C75.2241 72.931 75.2356 72.9149 75.2471 72.9041L75.293 72.8394L75.3275 72.8502C75.3448 72.8394 75.3677 72.8286 75.3907 72.8232L75.3333 72.7908L77.7465 69.2421L73.2935 69.0965L73.2188 68.7135L73.2073 69.0911L73.0637 69.0857L72.966 69.1072C72.8224 69.1396 72.7707 69.1612 72.7592 69.1666C72.7592 69.1666 72.7534 69.1666 72.7534 69.172C72.7132 69.1935 72.673 69.2205 72.6213 69.269C72.5753 69.3068 72.5466 69.3391 72.5179 69.3715C72.5064 69.3823 72.4949 69.3985 72.4834 69.4093L72.4374 69.474L72.4087 69.4632C72.3857 69.474 72.3685 69.4848 72.3455 69.4902L72.4087 69.5279L69.984 73.0713Z" fill="#0D0D26"/>
<path d="M74.5863 73.9827C74.2243 73.9827 73.8451 73.8802 73.4601 73.6752C72.8511 73.3517 72.3053 72.7961 71.9203 72.1112C71.5411 71.4263 71.363 70.6928 71.4204 70.0348C71.4836 69.3175 71.8226 68.7728 72.3742 68.5031C72.5696 68.4061 72.8166 68.4762 72.92 68.6595C73.0235 68.8429 72.9488 69.0748 72.7534 69.1719C72.3512 69.3714 72.2535 69.8407 72.2306 70.0995C72.1846 70.6119 72.3282 71.2051 72.6385 71.7606C72.9488 72.3162 73.3855 72.7638 73.8623 73.0173C74.1037 73.1467 74.5748 73.3355 74.977 73.1359C75.1724 73.0388 75.4137 73.109 75.5229 73.2977C75.6263 73.4811 75.5516 73.7076 75.3562 73.8101C75.1149 73.9287 74.8564 73.9827 74.5863 73.9827Z" fill="#0D0D26"/>
<path d="M7.42447 74.9805L9.59636 67.6241L6.52239 68.7189L5.96506 64.5446L3.76444 71.8093L6.7752 70.736L7.42447 74.9805Z" fill="#0D0D26"/>
<path d="M7.42451 75.3579C7.41301 75.3579 7.40727 75.3579 7.39578 75.3579C7.20617 75.3471 7.05103 75.2123 7.02231 75.0343L6.44773 71.259L3.90237 72.1651C3.75873 72.219 3.59785 72.1867 3.48868 72.0896C3.37951 71.9925 3.33354 71.8469 3.37376 71.7067L5.58013 64.442C5.63184 64.2694 5.80996 64.1562 5.99956 64.1669C6.18917 64.1831 6.34431 64.318 6.36729 64.4959L6.85568 68.1957L9.45275 67.2735C9.59639 67.2249 9.75727 67.2519 9.86644 67.349C9.97561 67.446 10.0216 67.5917 9.98136 67.7319L7.80947 75.0882C7.7635 75.2447 7.60262 75.3579 7.42451 75.3579ZM6.77524 70.3584C6.84419 70.3584 6.91888 70.3746 6.98208 70.4123C7.08551 70.4716 7.1602 70.5687 7.17744 70.682L7.55091 73.1413L8.99884 68.2442L6.66032 69.0748C6.54541 69.1179 6.41326 69.1018 6.30983 69.0478C6.20641 68.9885 6.13172 68.886 6.12022 68.7728L5.80996 66.4429L4.36778 71.1943L6.6316 70.3907C6.67756 70.3692 6.72927 70.3584 6.77524 70.3584Z" fill="#0D0D26"/>
<path d="M58.7339 60.025C58.7339 60.025 58.2225 58.7576 57.4468 56.9454C56.6367 55.0578 57.6192 53.7526 58.866 53.5099C60.268 53.2349 61.1298 54.3513 61.3137 55.5162C62.4571 55.0147 63.9223 55.0794 64.4509 56.3306C64.922 57.447 64.3015 58.9301 62.1813 59.34C60.1416 59.7283 58.7339 60.025 58.7339 60.025Z" fill="#0D0D26"/>
<path d="M58.7339 60.4026C58.5673 60.4026 58.4179 60.3055 58.3604 60.1599C58.3604 60.1599 57.849 58.8925 57.0734 57.0858C56.6424 56.0772 56.6424 55.1064 57.0791 54.346C57.4353 53.7204 58.0559 53.2835 58.7856 53.1379C59.4119 53.0139 60.0094 53.1217 60.5093 53.4453C61.0264 53.7797 61.4114 54.3352 61.6125 55.004C62.3135 54.7936 63.0202 54.7936 63.6063 55.0094C64.1693 55.2197 64.5945 55.6296 64.8301 56.1905C65.1059 56.8431 65.0599 57.5711 64.698 58.1914C64.2613 58.9518 63.3937 59.4857 62.2618 59.7069C60.2335 60.0952 58.8258 60.3918 58.8258 60.3972C58.7913 60.4026 58.7626 60.4026 58.7339 60.4026ZM59.2855 53.8444C59.1763 53.8444 59.0614 53.8552 58.9465 53.8768C58.4523 53.9739 58.0272 54.2759 57.7858 54.7019C57.4641 55.2628 57.4756 56.0125 57.8203 56.8053C58.3719 58.0889 58.7913 59.1028 58.9867 59.5882C59.5211 59.475 60.653 59.2431 62.1009 58.968C62.9972 58.7954 63.6637 58.3963 63.9912 57.8354C64.2383 57.4094 64.267 56.9132 64.0832 56.4709C63.928 56.1042 63.6695 55.8507 63.3075 55.7159C62.8076 55.5271 62.1296 55.581 61.4861 55.8615C61.3712 55.91 61.239 55.91 61.1241 55.8507C61.0149 55.7968 60.9345 55.6943 60.9173 55.5757C60.8138 54.9231 60.4863 54.3568 60.0439 54.0709C59.8198 53.9199 59.567 53.8444 59.2855 53.8444Z" fill="#0D0D26"/>
<path d="M42.0885 39.1964C40.2786 39.1964 38.7847 37.8373 38.7388 36.1277C38.6928 34.391 40.1637 32.951 42.0081 32.9079C42.9102 32.8809 43.7548 33.1937 44.3983 33.7762C45.0476 34.3533 45.4153 35.1353 45.4383 35.9767C45.4842 37.7133 44.0191 39.1533 42.169 39.1964C42.146 39.1964 42.1172 39.1964 42.0885 39.1964ZM42.0885 33.663C42.0655 33.663 42.0483 33.663 42.0253 33.663C41.3473 33.6791 40.7095 33.9434 40.2441 34.4018C39.773 34.8656 39.5259 35.4697 39.5432 36.1115C39.5776 37.4274 40.7325 38.4791 42.1517 38.4414C43.5537 38.409 44.6683 37.3088 44.6339 35.9928C44.6051 34.6931 43.4675 33.663 42.0885 33.663Z" fill="#0D0D26"/>
<path d="M26.5174 48.3864C26.4484 48.3864 26.3795 48.3702 26.3163 48.3378C25.351 47.8201 24.6558 46.9841 24.357 45.9756C24.064 44.9671 24.2018 43.9154 24.7477 43.0093C25.2993 42.1033 26.1899 41.4507 27.2643 41.1702C28.3388 40.8898 29.4592 41.0246 30.4245 41.537C30.6198 41.6394 30.683 41.8713 30.5739 42.0493C30.4647 42.2327 30.2176 42.292 30.028 42.1896C29.2466 41.7743 28.3388 41.6664 27.4769 41.8929C26.6151 42.1194 25.8911 42.6426 25.4487 43.3761C24.5351 44.8862 25.0982 46.8169 26.7127 47.6745C26.9081 47.7769 26.9713 48.0088 26.8621 48.1868C26.7932 48.3163 26.6553 48.3864 26.5174 48.3864Z" fill="#0D0D26"/>
<path d="M49.3281 74.3548C49.2821 74.3548 49.2361 74.3494 49.1902 74.3332C48.9833 74.2631 48.8742 74.0474 48.9489 73.8478C49.5005 72.4078 50.6209 71.2537 52.0975 70.6011C53.5742 69.9485 55.2347 69.8784 56.7688 70.3961C56.9757 70.4663 57.0848 70.682 57.0101 70.8815C56.9354 71.0757 56.7056 71.1782 56.493 71.108C55.16 70.6604 53.7178 70.7197 52.4365 71.286C51.1552 71.8523 50.1842 72.8555 49.7016 74.1067C49.6441 74.2577 49.4947 74.3548 49.3281 74.3548Z" fill="#0D0D26"/>
<path d="M122.989 9.18305C122.856 9.18305 122.724 9.11833 122.65 9.00507L118.105 2.27971C117.984 2.10173 118.042 1.86982 118.231 1.75656C118.421 1.6433 118.668 1.69724 118.788 1.87521L123.333 8.60058C123.454 8.77855 123.397 9.01046 123.207 9.12372C123.138 9.16687 123.063 9.18305 122.989 9.18305Z" fill="#0D0D26"/>
<path d="M26.8276 66.0816C26.7644 66.0816 26.7012 66.0654 26.638 66.0385L20.1223 62.7648C19.927 62.6677 19.8523 62.4358 19.9557 62.2524C20.0591 62.069 20.3062 61.9989 20.5015 62.096L27.0172 65.3697C27.2125 65.4668 27.2872 65.6987 27.1838 65.8821C27.1091 66.0061 26.9712 66.0816 26.8276 66.0816Z" fill="#0D0D26"/>
<path d="M21.8233 67.5C21.7601 67.5 21.6969 67.4838 21.6337 67.4569C21.4383 67.3598 21.3636 67.1279 21.4671 66.9445L24.9547 60.8286C25.0581 60.6452 25.3052 60.5751 25.5006 60.6722C25.6959 60.7693 25.7706 61.0012 25.6672 61.1845L22.1795 67.3005C22.1048 67.4245 21.9669 67.5 21.8233 67.5Z" fill="#0D0D26"/>
<path d="M36.5782 74.4304C36.4806 74.4304 36.3886 74.398 36.3082 74.3333C36.1416 74.1931 36.1301 73.9558 36.2737 73.7994L37.6297 72.3756C37.7791 72.2192 38.0319 72.203 38.1985 72.3432C38.3652 72.4834 38.3767 72.7207 38.233 72.8771L36.877 74.301C36.8023 74.3872 36.6874 74.4304 36.5782 74.4304Z" fill="#0D0D26"/>
<path d="M32.091 79.1494C31.9933 79.1494 31.9014 79.1171 31.8209 79.0523C31.6543 78.9121 31.6428 78.6748 31.7865 78.5184L33.1425 77.0946C33.2918 76.9382 33.5447 76.9274 33.7113 77.0622C33.8779 77.2025 33.8894 77.4397 33.7458 77.5962L32.3898 79.02C32.3093 79.1063 32.2002 79.1494 32.091 79.1494Z" fill="#0D0D26"/>
<path d="M39.3075 76.9166C39.2788 76.9166 39.2501 76.9166 39.2271 76.9112L37.2333 76.5229C37.015 76.4798 36.8771 76.2802 36.923 76.0753C36.969 75.8703 37.1816 75.7409 37.3999 75.784L39.3937 76.1723C39.612 76.2155 39.7499 76.415 39.704 76.62C39.6638 76.7926 39.4971 76.9166 39.3075 76.9166Z" fill="#0D0D26"/>
<path d="M32.7114 75.6276C32.6826 75.6276 32.6539 75.6276 32.6309 75.6222L30.6371 75.2339C30.4188 75.1908 30.2809 74.9912 30.3269 74.7863C30.3728 74.5813 30.5854 74.4519 30.8038 74.495L32.7975 74.8834C33.0159 74.9265 33.1538 75.1261 33.1078 75.331C33.0676 75.5036 32.901 75.6276 32.7114 75.6276Z" fill="#0D0D26"/>
<path d="M36.3887 79.9907C36.2221 79.9907 36.0612 79.8883 36.0037 79.7319L35.366 77.9144C35.297 77.7148 35.4119 77.5045 35.6245 77.4397C35.8371 77.375 36.0612 77.4829 36.1301 77.6824L36.7679 79.5C36.8369 79.6995 36.7219 79.9098 36.5094 79.9746C36.4691 79.98 36.4289 79.9907 36.3887 79.9907Z" fill="#0D0D26"/>
<path d="M34.28 73.9827C34.1134 73.9827 33.9525 73.8802 33.8951 73.7238L33.2573 71.9063C33.1884 71.7067 33.3033 71.4964 33.5159 71.4317C33.7285 71.367 33.9525 71.4748 34.0215 71.6744L34.6593 73.4919C34.7282 73.6914 34.6133 73.9018 34.4007 73.9665C34.3605 73.9773 34.3203 73.9827 34.28 73.9827Z" fill="#0D0D26"/>
<path d="M17.5713 33.0966C17.5598 33.0966 17.5483 33.0966 17.5369 33.0966C17.3185 33.075 17.1519 32.8916 17.1749 32.6867L17.7035 27.2881L11.9463 26.7919C11.7279 26.7703 11.5613 26.5869 11.5843 26.382C11.6073 26.1717 11.7969 26.0206 12.0209 26.0422L18.1746 26.5708C18.393 26.5923 18.5596 26.7757 18.5366 26.9806L17.9735 32.7568C17.9563 32.951 17.7782 33.0966 17.5713 33.0966Z" fill="#0D0D26"/>
<path d="M102.562 23.2109C102.528 23.2109 102.493 23.2055 102.459 23.2001L97.8624 22.0567C97.7302 22.0243 97.6268 21.9327 97.5808 21.8086C97.5406 21.69 97.5636 21.5551 97.6498 21.4527L99.9825 18.7075L95.9778 17.7098C95.7652 17.6558 95.633 17.4509 95.6905 17.2459C95.7479 17.0464 95.9605 16.9223 96.1846 16.9763L100.781 18.1196C100.913 18.152 101.017 18.2437 101.063 18.3677C101.103 18.4864 101.08 18.6212 100.994 18.7237L98.661 21.4688L102.666 22.4666C102.878 22.5205 103.011 22.7255 102.953 22.9304C102.901 23.0976 102.741 23.2109 102.562 23.2109Z" fill="#0D0D26"/>
<path d="M56.9125 44.8269C56.8206 44.8269 56.7286 44.7999 56.6539 44.7406L53.4191 42.2112C53.2467 42.0763 53.2237 41.839 53.3674 41.6772C53.511 41.5154 53.7638 41.4939 53.9362 41.6287L56.8608 43.9208L59.3027 41.1757C59.4464 41.0139 59.6992 40.9923 59.8715 41.1271L62.7961 43.4193L65.2381 40.6741C65.3817 40.5123 65.6345 40.4907 65.8069 40.6256C65.9793 40.7604 66.0022 40.9977 65.8586 41.1595L63.1638 44.1959C63.0202 44.3577 62.7674 44.3793 62.595 44.2444L59.6705 41.9523L57.2285 44.6975C57.1423 44.7837 57.0274 44.8269 56.9125 44.8269Z" fill="#0D0D26"/>
<path d="M4.36783 56.7028C4.17822 56.7028 4.01159 56.5787 3.97137 56.4008C3.92541 56.1958 4.06905 55.9963 4.28739 55.9585L8.00488 55.2628L7.26368 51.7734C7.21771 51.5684 7.36136 51.3689 7.57969 51.3311L11.2972 50.6354L10.556 47.146C10.51 46.941 10.6537 46.7415 10.872 46.7037L14.5895 46.008L13.8483 42.5186C13.8023 42.3136 13.946 42.1141 14.1643 42.0763C14.3826 42.0332 14.5952 42.168 14.6355 42.3729L15.4571 46.2345C15.5031 46.4394 15.3594 46.639 15.1411 46.6768L11.4236 47.3725L12.1648 50.8619C12.2108 51.0668 12.0671 51.2664 11.8488 51.3041L8.13128 51.9999L8.87248 55.4893C8.91845 55.6942 8.77481 55.8938 8.55647 55.9315L4.44252 56.7028C4.41954 56.7028 4.39656 56.7028 4.36783 56.7028Z" fill="#0D0D26"/>
<path d="M83.4407 55.4516C83.4062 55.4516 83.3717 55.4462 83.3372 55.4408L77.7581 54.0494C77.5455 53.9954 77.4134 53.7905 77.4709 53.5855L78.9533 48.3487C78.982 48.2516 79.0509 48.1707 79.1429 48.1168C79.2348 48.0683 79.344 48.0521 79.4474 48.079L85.0265 49.4705C85.2391 49.5244 85.3712 49.7294 85.3138 49.9343L83.8314 55.1711C83.7797 55.3437 83.6188 55.4516 83.4407 55.4516ZM78.3557 53.4129L83.1591 54.6102L84.4347 50.1015L79.6312 48.9042L78.3557 53.4129Z" fill="#0D0D26"/>
<path d="M110.555 73.287C110.428 73.287 110.302 73.2601 110.187 73.2007C109.796 73.0066 109.647 72.5535 109.848 72.1868C109.946 72.0088 110.112 71.8794 110.319 71.8201C110.526 71.7607 110.739 71.7769 110.928 71.8686C111.118 71.9603 111.256 72.1167 111.319 72.3109C111.382 72.4996 111.365 72.7046 111.267 72.8825C111.124 73.1414 110.848 73.287 110.555 73.287ZM110.555 72.532V72.5374L110.911 72.7046L110.555 72.532Z" fill="#0D0D26"/>
<path d="M115.37 25.8481L111.784 22.8009L115.306 22.4719L114.973 19.4625H118.179L118.156 16.1241L121.742 19.1713L115.37 25.8481Z" fill="#0D0D26"/>
<path d="M115.37 26.2256C115.272 26.2256 115.174 26.1932 115.099 26.1285L111.514 23.0813C111.393 22.9789 111.353 22.8224 111.399 22.6822C111.451 22.542 111.583 22.4395 111.744 22.4233L114.858 22.1321L114.565 19.5002C114.554 19.3924 114.588 19.2899 114.669 19.209C114.743 19.1281 114.852 19.0849 114.967 19.0849H117.771L117.754 16.1241C117.754 15.973 117.846 15.8382 117.995 15.7789C118.139 15.7196 118.311 15.7411 118.426 15.8436L122.012 18.8908C122.178 19.031 122.19 19.2683 122.04 19.4247L115.668 26.1015C115.599 26.177 115.496 26.2202 115.387 26.2256C115.387 26.2256 115.381 26.2256 115.37 26.2256ZM112.726 23.0921L115.341 25.3141L121.173 19.1982L118.564 16.9762L118.581 19.4571C118.581 19.5595 118.541 19.6566 118.466 19.7267C118.392 19.7968 118.288 19.84 118.179 19.84H115.421L115.709 22.4341C115.72 22.5366 115.686 22.6337 115.622 22.7146C115.553 22.7901 115.456 22.844 115.352 22.8494L112.726 23.0921Z" fill="#0D0D26"/>
<path d="M123.563 62.7864C123.54 62.7864 123.523 62.7864 123.5 62.781L118.156 61.972C118.007 61.9504 117.881 61.8479 117.835 61.7131L116.197 56.87C116.157 56.746 116.186 56.6057 116.277 56.5086C116.369 56.4116 116.507 56.363 116.645 56.3846L121.989 57.199C122.138 57.2206 122.259 57.323 122.305 57.4579L123.942 62.301C123.982 62.425 123.954 62.5652 123.862 62.6623C123.793 62.7378 123.678 62.7864 123.563 62.7864ZM118.53 61.2655L122.983 61.9396L121.615 57.9001L117.162 57.2259L118.53 61.2655Z" fill="#0D0D26"/>
<path d="M81.2113 10.0513L89.9103 8.99964C90.5194 8.92413 91.1112 9.5875 91.2318 10.4828C91.3525 11.3727 90.9618 12.1601 90.3527 12.2302L81.6537 13.2819C81.0447 13.3574 80.4528 12.694 80.3322 11.7987C80.2115 10.9088 80.6022 10.1268 81.2113 10.0513Z" fill="#0D0D26"/>
<path d="M81.5618 13.6701C80.7746 13.6701 80.0794 12.9043 79.93 11.8526C79.861 11.351 79.93 10.8549 80.1311 10.4612C80.3552 10.0189 80.7286 9.73307 81.1596 9.67914L89.8586 8.62746C90.7032 8.53038 91.4789 9.31779 91.634 10.4342C91.703 10.9358 91.634 11.4319 91.4329 11.8256C91.2089 12.2679 90.8354 12.5537 90.4045 12.6077L81.7054 13.6593C81.6594 13.6647 81.6077 13.6701 81.5618 13.6701ZM90.0023 9.37172C89.9908 9.37172 89.9735 9.37172 89.962 9.37172L81.263 10.4234C81.1136 10.4396 80.9642 10.569 80.8608 10.7794C80.7286 11.0436 80.6827 11.3942 80.7286 11.7501C80.8263 12.462 81.2687 12.942 81.602 12.9097L90.301 11.858C90.4504 11.8418 90.5998 11.7124 90.7032 11.5021C90.8354 11.2378 90.8813 10.8872 90.8354 10.5313C90.7434 9.84633 90.3298 9.37172 90.0023 9.37172Z" fill="#0D0D26"/>
<path d="M91.2377 10.4827C91.3584 11.378 90.9677 12.16 90.3586 12.2301C89.7496 12.3057 89.1578 11.6423 89.0371 10.747C88.9165 9.85173 89.3072 9.06971 89.9162 8.9996C90.5253 8.92949 91.1171 9.59285 91.2377 10.4827Z" fill="#0D0D26"/>
<path d="M90.2665 12.6185C89.8815 12.6185 89.5023 12.4351 89.2035 12.1007C88.9047 11.7663 88.7036 11.3025 88.6347 10.8009C88.5657 10.2994 88.6347 9.80318 88.8358 9.40948C89.0599 8.96723 89.4333 8.68139 89.8643 8.62746C90.7089 8.53038 91.4846 9.31779 91.6397 10.4342C91.7087 10.9358 91.6397 11.4319 91.4386 11.8256C91.2145 12.2679 90.841 12.5537 90.4101 12.6077C90.3642 12.6131 90.3124 12.6185 90.2665 12.6185ZM90.0022 9.37172C89.9907 9.37172 89.9734 9.37172 89.9619 9.37172C89.8126 9.3879 89.6632 9.51734 89.5597 9.72768C89.4276 9.99195 89.3816 10.3425 89.4276 10.6985C89.4793 11.0544 89.6172 11.3834 89.8183 11.6099C89.9734 11.7879 90.1573 11.8796 90.3009 11.858C90.4503 11.8418 90.5997 11.7124 90.7031 11.5021C90.8353 11.2378 90.8813 10.8872 90.8353 10.5313C90.7434 9.84633 90.3297 9.37172 90.0022 9.37172Z" fill="#0D0D26"/>
<path d="M101.195 48.3325C101.344 48.2516 101.678 48.1922 101.678 48.1922L109.733 47.0489L104.418 52.852L104.413 52.8412C104.309 52.9706 104.188 53.0839 104.033 53.1594C103.125 53.6286 101.752 52.9329 100.971 51.6008C100.189 50.2686 100.287 48.8071 101.195 48.3325Z" fill="#0D0D26"/>
<path d="M103.407 53.6826C103.217 53.6826 103.016 53.6556 102.815 53.6017C101.976 53.3752 101.155 52.6956 100.62 51.7842C99.7125 50.2471 99.8791 48.586 100.999 48.0035C101.189 47.9064 101.505 47.8417 101.597 47.8201L109.67 46.6768C109.836 46.6552 110.003 46.7307 110.084 46.8655C110.164 47.0057 110.147 47.1729 110.038 47.297L104.723 53.1001C104.7 53.1217 104.677 53.1432 104.654 53.1594C104.522 53.305 104.384 53.4129 104.229 53.4884C103.982 53.6179 103.706 53.6826 103.407 53.6826ZM101.39 48.6669C100.689 49.0336 100.661 50.2902 101.327 51.4228C101.758 52.1563 102.413 52.7118 103.045 52.8844C103.258 52.9437 103.568 52.9815 103.849 52.8358C103.936 52.7927 104.016 52.7226 104.102 52.6147C104.131 52.5824 104.16 52.5554 104.194 52.5338L108.728 47.5828L101.746 48.5752C101.632 48.586 101.448 48.6345 101.39 48.6669Z" fill="#0D0D26"/>
<path d="M104.263 49.8911C105.05 51.2232 104.947 52.6848 104.039 53.1594C103.131 53.6286 101.758 52.9329 100.976 51.6008C100.189 50.2686 100.293 48.8071 101.201 48.3325C102.103 47.8632 103.476 48.559 104.263 49.8911Z" fill="#0D0D26"/>
<path d="M103.407 53.6825C103.217 53.6825 103.016 53.6556 102.815 53.6016C101.976 53.3751 101.155 52.6956 100.62 51.7841C99.7125 50.2471 99.8791 48.5859 100.999 48.0035C101.563 47.7122 102.264 47.7446 102.965 48.1059C103.608 48.4349 104.194 49.0066 104.614 49.7131C105.521 51.2502 105.355 52.9113 104.234 53.4938C103.982 53.6178 103.706 53.6825 103.407 53.6825ZM101.827 48.5644C101.666 48.5644 101.517 48.5967 101.39 48.6668C100.689 49.0282 100.66 50.2902 101.321 51.4228C101.752 52.1563 102.407 52.7118 103.039 52.8843C103.252 52.9437 103.562 52.9814 103.844 52.8358C104.545 52.4745 104.573 51.2124 103.913 50.0799C103.568 49.4974 103.097 49.0336 102.585 48.7747C102.315 48.6345 102.057 48.5644 101.827 48.5644Z" fill="#0D0D26"/>
<path d="M43.3755 16.9762L47.5872 16.7012L49.9429 19.9856L48.0985 23.5452L43.8869 23.8202L41.5254 20.5357L43.3755 16.9762Z" fill="#0D0D26"/>
<path d="M43.8868 24.1977C43.7547 24.1977 43.6283 24.133 43.5536 24.0306L41.1921 20.7461C41.1117 20.6328 41.1002 20.4926 41.1634 20.3685L43.0135 16.809C43.0767 16.685 43.2031 16.6095 43.3467 16.5987L47.5584 16.3236C47.7078 16.3128 47.8399 16.3776 47.9204 16.4908L50.2818 19.7753C50.3623 19.8886 50.3738 20.0288 50.3106 20.1528L48.4604 23.7124C48.3972 23.8364 48.2708 23.9119 48.1272 23.9227L43.9156 24.1977C43.9041 24.1977 43.8983 24.1977 43.8868 24.1977ZM41.9908 20.5034L44.0937 23.4265L47.8399 23.1784L49.4889 20.0072L47.386 17.0841L43.6398 17.3322L41.9908 20.5034Z" fill="#0D0D26"/>
<path d="M45.737 20.6382C45.6049 20.6382 45.4785 20.5735 45.4038 20.471L43.0423 17.1865C42.9159 17.0139 42.9676 16.7766 43.1514 16.6634C43.3353 16.5501 43.5881 16.5932 43.7088 16.7658L45.9381 19.8669L49.9142 19.6081C50.1383 19.5919 50.3279 19.7483 50.3451 19.9586C50.3623 20.169 50.1957 20.3469 49.9716 20.3631L45.76 20.6382C45.7543 20.6382 45.7428 20.6382 45.737 20.6382Z" fill="#0D0D26"/>
<path d="M43.8868 24.1978C43.8294 24.1978 43.7662 24.187 43.7087 24.16C43.5076 24.0683 43.4272 23.8418 43.5248 23.6531L45.375 20.0935C45.4727 19.9048 45.714 19.8293 45.9151 19.9209C46.1162 20.0126 46.1966 20.2391 46.0989 20.4279L44.2488 23.9874C44.1799 24.1223 44.0362 24.1978 43.8868 24.1978Z" fill="#0D0D26"/>
<path d="M0.385876 37.4003L0.374384 37.3895C0.351401 37.4488 0.322673 37.5028 0.288199 37.5567C0.242233 37.6268 0.196266 37.6969 0.133064 37.7562C0.0813522 37.8048 -0.00483441 37.8587 -0.079529 37.9019C-0.114003 37.9234 -0.148477 37.945 -0.188697 37.9612C-0.223172 37.9774 -0.251901 37.9935 -0.251901 37.9935L-0.424272 38.0367C-0.453001 38.0421 -0.475985 38.0529 -0.510459 38.0583L-5.25643 39.2556L-3.93492 34.8115C-3.92917 34.7846 -3.91768 34.7576 -3.91193 34.7306L-3.86597 34.5688L-3.85448 34.5796C-3.83149 34.5203 -3.80276 34.4664 -3.76829 34.4124C-3.72232 34.3423 -3.67636 34.2722 -3.61315 34.2129C-3.56144 34.1644 -3.47526 34.1104 -3.40056 34.0673C-3.36609 34.0457 -3.33161 34.0241 -3.29139 34.0079C-3.25117 33.9918 -3.22244 33.981 -3.22244 33.981L-3.05007 33.9378C-3.02134 33.9324 -2.99836 33.9217 -2.96963 33.9163L1.77634 32.719L0.454824 37.163C0.449079 37.19 0.437588 37.2169 0.431842 37.2439L0.385876 37.4003Z" fill="#0D0D26"/>
<path d="M-5.25638 39.6332C-5.35981 39.6332 -5.46323 39.5954 -5.54367 39.5199C-5.64709 39.4228 -5.68157 39.2826 -5.64709 39.1532L-4.32558 34.7091C-4.32558 34.7037 -4.30834 34.6552 -4.30834 34.6498L-4.25663 34.4664C-4.23939 34.4179 -4.21641 34.3747 -4.18768 34.337C-4.1647 34.2939 -4.14171 34.2561 -4.11873 34.2183C-4.06127 34.1213 -3.99232 34.035 -3.91763 33.9595C-3.91188 33.9541 -3.90614 33.9487 -3.90614 33.9433C-3.83719 33.8786 -3.74526 33.8192 -3.61885 33.7437C-3.55565 33.706 -3.51543 33.6844 -3.47521 33.6682L-3.43499 33.6467C-3.40626 33.6305 -3.37753 33.6197 -3.3488 33.6143L-3.17643 33.5712C-3.12472 33.555 -3.09599 33.5496 -3.06151 33.5442L1.64999 32.3523C1.78788 32.3199 1.93727 32.3577 2.0407 32.4494C2.14412 32.5464 2.17859 32.6867 2.14412 32.8161L0.822601 37.2601C0.822601 37.2655 0.805364 37.3141 0.805364 37.3195L0.747906 37.5028C0.730669 37.5514 0.707687 37.5945 0.678958 37.6323C0.655975 37.6754 0.632992 37.7132 0.610009 37.7509C0.552552 37.848 0.483603 37.9343 0.408908 38.0044C0.403162 38.0098 0.397417 38.0152 0.391671 38.0206C0.322723 38.0799 0.236537 38.1446 0.104385 38.2201C0.0411818 38.2579 0.000961614 38.2795 -0.0392586 38.301L-0.062242 38.328C-0.0909707 38.3442 -0.119699 38.355 -0.148428 38.3603L-0.3208 38.4035C-0.372512 38.4197 -0.40124 38.4251 -0.435714 38.4305L-5.14722 39.6224C-5.18169 39.6278 -5.21616 39.6332 -5.25638 39.6332ZM-3.60161 34.8763L-3.53841 34.8925L-4.67607 38.7217L-0.613832 37.697L-0.424223 38.0421L-0.527646 37.6754L-0.3208 37.5999C-0.211631 37.5352 -0.165665 37.5082 -0.154173 37.4974L-0.148428 37.492C-0.119699 37.4651 -0.0909702 37.4273 -0.0564958 37.3734C-0.0277671 37.3302 -0.0105299 37.2925 0.00670735 37.2547C0.0124531 37.2386 0.0181984 37.2278 0.0296898 37.2116L0.0526733 37.1415L0.0814015 37.1469C0.0986387 37.1307 0.11013 37.1145 0.127367 37.1037L0.0641638 37.0875L1.20182 33.2584L-3.15345 34.3747C-3.26836 34.4395 -3.30858 34.4718 -3.32007 34.4826L-3.32582 34.488C-3.35455 34.515 -3.38328 34.5527 -3.41775 34.6067C-3.44648 34.6498 -3.46372 34.6876 -3.48095 34.7253C-3.4867 34.7415 -3.49244 34.7523 -3.50394 34.7685L-3.52692 34.8386L-3.55565 34.8332C-3.56714 34.8494 -3.58438 34.8655 -3.60161 34.8763Z" fill="#0D0D26"/>
<path d="M0.133252 38.1392C0.0298287 38.1392 -0.0735944 38.1015 -0.154035 38.026C-0.309169 37.8803 -0.309169 37.6377 -0.154035 37.492C0.144743 37.2116 0.0987776 36.7693 0.0413202 36.5266C-0.0678486 36.052 -0.372372 35.5559 -0.82054 35.1298C-1.26871 34.7091 -1.79157 34.4125 -2.29719 34.31C-2.55575 34.2561 -3.0269 34.2076 -3.32568 34.488C-3.48656 34.6336 -3.73937 34.6336 -3.89451 34.488C-4.04964 34.3424 -4.04964 34.0997 -3.89451 33.9541C-3.46932 33.5604 -2.84304 33.4255 -2.11908 33.5765C-1.46406 33.7168 -0.797557 34.0781 -0.245966 34.6013C0.305624 35.1244 0.690588 35.7554 0.828485 36.3702C0.98362 37.0498 0.834231 37.6377 0.409047 38.0314C0.334352 38.1015 0.236675 38.1392 0.133252 38.1392Z" fill="#0D0D26"/>
<path d="M84.8137 25.1685L79.5161 30.6319L82.6878 30.9447L81.2226 34.7793L86.503 29.4022L83.4003 29.1002L84.8137 25.1685Z" fill="#0D0D26"/>
<path d="M81.2227 35.1568C81.1537 35.1568 81.079 35.1406 81.0158 35.1029C80.8492 35.0112 80.7802 34.8224 80.8434 34.6552L82.1362 31.2737L79.476 31.0094C79.3266 30.9932 79.1944 30.9015 79.1427 30.7667C79.091 30.6319 79.1197 30.4863 79.2231 30.3784L84.5207 24.915C84.6471 24.7802 84.8597 24.7532 85.0206 24.8449C85.1872 24.9366 85.2619 25.12 85.1987 25.2926L83.9461 28.7766L86.549 29.0355C86.6983 29.0517 86.8305 29.1433 86.8822 29.2782C86.9339 29.413 86.9052 29.564 86.8018 29.6665L81.5214 35.0381C81.441 35.1136 81.3318 35.1568 81.2227 35.1568ZM80.3493 30.3352L82.728 30.5725C82.8487 30.5833 82.9636 30.6481 83.0268 30.7451C83.09 30.8422 83.1073 30.9663 83.067 31.0741L82.2741 33.1559L85.6699 29.6988L83.3658 29.4723C83.2452 29.4615 83.136 29.3968 83.067 29.2997C82.9981 29.2027 82.9866 29.084 83.0268 28.9762L83.8255 26.7541L80.3493 30.3352Z" fill="#0D0D26"/>
<path d="M34.5097 94.2612C34.5097 94.2612 33.1997 93.5223 31.2979 92.4922C29.3156 91.419 29.2179 89.7363 30.0855 88.7709C31.0566 87.6815 32.5504 88.0806 33.5157 88.9381C34.119 87.8217 35.3773 86.975 36.6816 87.6923C37.848 88.3287 38.3651 89.9412 36.8885 91.5808C35.475 93.1502 34.5097 94.2612 34.5097 94.2612Z" fill="#0D0D26"/>
<path d="M34.5099 94.6388C34.4409 94.6388 34.3662 94.6226 34.303 94.5849C34.2915 94.5795 32.9757 93.8352 31.1026 92.8213C30.0512 92.255 29.3789 91.4514 29.2123 90.5561C29.0744 89.828 29.2812 89.0891 29.7869 88.5283C30.2178 88.0429 30.7809 87.7732 31.4129 87.7354C32.0737 87.6977 32.7861 87.9242 33.4182 88.3611C33.8548 87.7516 34.4409 87.3094 35.0787 87.1368C35.6877 86.9696 36.314 87.0451 36.8943 87.3633C37.5666 87.7301 38.032 88.3611 38.1641 89.0891C38.325 89.9844 37.986 90.9498 37.1989 91.8235C35.7969 93.3714 34.8316 94.4878 34.8201 94.4986C34.7454 94.5903 34.6248 94.6388 34.5099 94.6388ZM31.5451 88.4905C31.5163 88.4905 31.4819 88.4905 31.4531 88.4905C31.0394 88.5121 30.6832 88.69 30.3959 89.0136C30.0454 89.402 29.9018 89.9197 29.9995 90.4267C30.1259 91.0954 30.6602 91.7103 31.4991 92.1687C32.8608 92.9022 33.9238 93.4954 34.4179 93.7705C34.7799 93.3552 35.5728 92.4545 36.5841 91.3327C37.2103 90.637 37.4919 89.8873 37.3655 89.2186C37.2735 88.7116 36.9518 88.2748 36.4806 88.0159C36.0899 87.8002 35.6935 87.7516 35.297 87.8595C34.7454 88.0105 34.2168 88.4797 33.8778 89.1053C33.8204 89.2132 33.7112 89.2833 33.5905 89.3049C33.4641 89.3265 33.3377 89.2887 33.2458 89.2078C32.7229 88.7548 32.0966 88.4905 31.5451 88.4905Z" fill="#0D0D26"/>
<path d="M2.3395 15.9354C2.31651 15.9354 2.29353 15.9354 2.27055 15.93C0.633015 15.6657 -0.797673 14.819 -1.75721 13.5462C-2.71675 12.2734 -3.09022 10.7255 -2.80868 9.18303C-2.76846 8.97809 -2.56161 8.83786 -2.34327 8.87562C-2.12494 8.91337 -1.97555 9.10752 -2.01577 9.31247C-2.26283 10.65 -1.93533 11.9983 -1.09645 13.1093C-0.257574 14.2203 0.983505 14.9538 2.41419 15.1857C2.63253 15.2235 2.78192 15.4176 2.7417 15.6226C2.70148 15.8059 2.52911 15.9354 2.3395 15.9354Z" fill="#0D0D26"/>
<path d="M102.218 7.49492C102.051 7.49492 101.89 7.39245 101.838 7.23604C101.769 7.03649 101.884 6.82616 102.091 6.75605C102.924 6.49717 103.596 5.94706 103.987 5.21358C104.378 4.4801 104.441 3.64415 104.165 2.86213C103.89 2.08011 103.303 1.4491 102.522 1.08236C101.741 0.715622 100.85 0.656297 100.017 0.915172C99.8043 0.979891 99.5802 0.872026 99.5113 0.67787C99.4423 0.47832 99.5572 0.267984 99.7641 0.197872C100.798 -0.125722 101.907 -0.0502171 102.884 0.408208C103.861 0.866633 104.585 1.65405 104.929 2.62483C105.274 3.59561 105.194 4.6365 104.705 5.55335C104.217 6.4702 103.378 7.14975 102.344 7.47335C102.304 7.48953 102.258 7.49492 102.218 7.49492Z" fill="#0D0D26"/>
<path d="M44.3466 8.00191C44.2431 8.00191 44.1455 7.96416 44.065 7.89405C43.9041 7.74843 43.9041 7.51113 44.0593 7.36012L50.1727 1.44914C50.3279 1.29813 50.5807 1.29813 50.7416 1.44374C50.9024 1.58936 50.9024 1.82666 50.7473 1.97767L44.6338 7.88866C44.5591 7.95877 44.45 8.00191 44.3466 8.00191Z" fill="#0D0D26"/>
<path d="M9.68259 102.599C9.61364 102.454 9.56767 102.135 9.56767 102.135L8.97012 94.5093L14.7216 99.9241L14.7101 99.9295C14.8365 100.037 14.9514 100.161 15.0204 100.307C15.4513 101.192 14.6067 102.427 13.13 103.058C11.6591 103.689 10.1135 103.484 9.68259 102.599Z" fill="#0D0D26"/>
<path d="M11.435 103.807C10.4582 103.807 9.64805 103.441 9.31479 102.756C9.22286 102.572 9.1769 102.27 9.16541 102.184L8.5621 94.5417C8.55061 94.3853 8.64254 94.2343 8.79768 94.1696C8.95281 94.1048 9.13093 94.1372 9.25159 94.2451L15.0031 99.6599C15.0261 99.6814 15.0433 99.703 15.0605 99.73C15.2042 99.8648 15.3076 100.005 15.3823 100.151C15.9166 101.24 14.9973 102.669 13.2966 103.403C12.6646 103.672 12.021 103.807 11.435 103.807ZM10.0502 102.443C10.3835 103.128 11.7165 103.252 12.9691 102.712C14.2159 102.179 14.9916 101.148 14.6583 100.463C14.6181 100.383 14.5492 100.302 14.44 100.21C14.4113 100.183 14.3825 100.151 14.3595 100.118L9.44695 95.4963L9.96981 102.108C9.98705 102.211 10.0215 102.389 10.0502 102.443Z" fill="#0D0D26"/>
<path d="M11.573 99.8487C13.0496 99.2176 14.5895 99.4226 15.0261 100.307C15.4571 101.192 14.6125 102.421 13.1358 103.058C11.6591 103.689 10.1193 103.484 9.68261 102.599C9.25168 101.715 10.0963 100.48 11.573 99.8487Z" fill="#0D0D26"/>
<path d="M11.4407 103.802C11.2798 103.802 11.1189 103.791 10.9638 103.77C10.1709 103.667 9.59054 103.306 9.32049 102.756C9.05044 102.206 9.14237 101.558 9.57904 100.922C9.9755 100.345 10.6248 99.8379 11.4062 99.5035C13.1069 98.7754 14.8594 99.0559 15.388 100.151C15.658 100.701 15.5661 101.348 15.1294 101.984C14.733 102.561 14.0837 103.068 13.3023 103.403C12.6875 103.662 12.044 103.802 11.4407 103.802ZM13.2735 99.8595C12.8024 99.8595 12.2623 99.9673 11.7394 100.194C11.0959 100.469 10.5673 100.873 10.2513 101.337C9.96975 101.747 9.9008 102.141 10.0502 102.448C10.1996 102.756 10.5616 102.961 11.0729 103.031C11.6475 103.106 12.3198 102.998 12.9633 102.718C13.6068 102.443 14.1354 102.038 14.4514 101.575C14.733 101.17 14.8019 100.776 14.6525 100.469C14.4629 100.07 13.9286 99.8595 13.2735 99.8595Z" fill="#0D0D26"/>
<path d="M123.092 101.067C122.96 101.067 122.828 101.003 122.753 100.89L118.001 93.8513C117.88 93.6734 117.938 93.4415 118.128 93.3282C118.317 93.2149 118.564 93.2689 118.685 93.4469L123.437 100.485C123.557 100.663 123.5 100.895 123.31 101.008C123.241 101.051 123.167 101.067 123.092 101.067Z" fill="#0D0D26"/>
<path d="M102.212 99.4604C102.045 99.4604 101.884 99.358 101.832 99.2016C101.764 99.002 101.878 98.7917 102.085 98.727C103.935 98.1499 104.941 96.2623 104.326 94.5256C104.027 93.6843 103.395 92.9993 102.551 92.6056C101.706 92.2065 100.747 92.1418 99.8502 92.4223C99.6376 92.487 99.4135 92.3791 99.3445 92.185C99.2756 91.9854 99.3905 91.7751 99.5974 91.7104C100.695 91.3652 101.873 91.4461 102.913 91.9315C103.953 92.4169 104.723 93.2582 105.09 94.2883C105.458 95.3238 105.372 96.4241 104.855 97.4002C104.338 98.3764 103.441 99.0991 102.344 99.4443C102.298 99.4551 102.252 99.4604 102.212 99.4604Z" fill="#0D0D26"/>
<path d="M44.335 99.7407C44.2316 99.7407 44.1339 99.703 44.0535 99.6329C43.8926 99.4873 43.8926 99.25 44.0477 99.0989L50.1842 93.1664C50.3393 93.0154 50.5921 93.01 50.753 93.161C50.9139 93.3066 50.9139 93.5439 50.7588 93.6949L44.6223 99.6275C44.5419 99.703 44.4385 99.7407 44.335 99.7407Z" fill="#0D0D26"/>
<path d="M67.4443 16.4747C67.3293 16.4747 67.2202 16.4315 67.1397 16.3399L65.8469 14.9106C65.7033 14.7542 65.7263 14.5115 65.8929 14.3767C66.0653 14.2419 66.3181 14.2635 66.4617 14.4199L67.7545 15.8491C67.8982 16.0055 67.8752 16.2482 67.7086 16.383C67.6281 16.4423 67.5362 16.4747 67.4443 16.4747Z" fill="#0D0D26"/>
<path d="M63.1637 11.7448C63.0488 11.7448 62.9396 11.7017 62.8592 11.61L61.5664 10.1808C61.4227 10.0244 61.4457 9.78166 61.6123 9.64683C61.779 9.512 62.0375 9.53357 62.1812 9.68998L63.474 11.1192C63.6176 11.2756 63.5946 11.5183 63.428 11.6531C63.3476 11.7178 63.2556 11.7448 63.1637 11.7448Z" fill="#0D0D26"/>
<path d="M63.2098 17.1974C63.1638 17.1974 63.1178 17.192 63.0719 17.1758C62.865 17.1057 62.7559 16.8899 62.8306 16.6958L63.5028 14.9322C63.5775 14.738 63.8073 14.6356 64.0142 14.7057C64.221 14.7758 64.3302 14.9915 64.2555 15.1857L63.5832 16.9493C63.5315 17.1057 63.3764 17.1974 63.2098 17.1974Z" fill="#0D0D26"/>
<path d="M65.4334 11.3565C65.3875 11.3565 65.3415 11.3511 65.2955 11.3349C65.0887 11.2648 64.9795 11.0491 65.0542 10.8549L65.7265 9.09135C65.8011 8.89719 66.031 8.79472 66.2378 8.86484C66.4447 8.93495 66.5538 9.15068 66.4791 9.34483L65.8069 11.1084C65.7494 11.2594 65.5943 11.3565 65.4334 11.3565Z" fill="#0D0D26"/>
<path d="M60.4231 14.1233C60.2335 14.1233 60.0611 13.9939 60.0267 13.8159C59.9864 13.611 60.1301 13.4114 60.3484 13.3791L62.3135 13.0447C62.5318 13.0069 62.7444 13.1418 62.7789 13.3467C62.8191 13.5516 62.6754 13.7512 62.4571 13.7836L60.4921 14.1179C60.4691 14.1179 60.4461 14.1233 60.4231 14.1233Z" fill="#0D0D26"/>
<path d="M66.9271 13.0068C66.7375 13.0068 66.5651 12.8774 66.5306 12.6994C66.4904 12.4945 66.6341 12.2949 66.8524 12.2626L68.8174 11.9282C69.0358 11.8905 69.2484 12.0253 69.2828 12.2302C69.3231 12.4352 69.1794 12.6347 68.9611 12.6671L66.996 13.0015C66.9731 13.0068 66.9501 13.0068 66.9271 13.0068Z" fill="#0D0D26"/>
<path d="M95.6675 65.251C95.5239 65.251 95.386 65.1809 95.3113 65.0569L92.4844 60.1976C92.3752 60.0142 92.4499 59.7877 92.6453 59.6852C92.8406 59.5827 93.0819 59.6529 93.1911 59.8362L95.8284 64.3612L100.649 61.8857C100.844 61.7832 101.086 61.8533 101.195 62.0367C101.304 62.22 101.229 62.4466 101.034 62.549L95.8571 65.2025C95.7997 65.2349 95.7307 65.251 95.6675 65.251Z" fill="#0D0D26"/>
<path d="M80.6826 91.721C80.6769 91.721 80.6769 91.721 80.6826 91.721C80.4585 91.721 80.2804 91.5484 80.2804 91.3381L80.3264 86.6514C80.3264 86.5219 80.3953 86.4033 80.5102 86.3386C80.6251 86.2684 80.7688 86.2631 80.8952 86.3116L84.5035 87.8379L84.5437 83.7282C84.5437 83.5233 84.7276 83.3561 84.9459 83.3561C84.9459 83.3561 84.9459 83.3561 84.9517 83.3561C85.1758 83.3561 85.3539 83.5287 85.3481 83.739L85.3022 88.4311C85.3022 88.5606 85.2332 88.6792 85.1183 88.7439C85.0034 88.8141 84.8598 88.8248 84.7334 88.7709L81.125 87.2446L81.0848 91.3543C81.0791 91.5538 80.9009 91.721 80.6826 91.721Z" fill="#0D0D26"/>
<path d="M100.04 38.7865C99.9479 38.7865 99.8617 38.7595 99.787 38.7056L96.6728 36.3649C96.5004 36.2355 96.4717 35.9982 96.6096 35.8364C96.7475 35.6746 97.0003 35.6476 97.1727 35.7771L99.9709 37.8858L102.2 35.2701C102.269 35.1892 102.367 35.1407 102.47 35.1299C102.574 35.1191 102.683 35.1461 102.763 35.2108L105.561 37.3196L107.791 34.7038C107.929 34.542 108.182 34.5151 108.354 34.6445C108.526 34.7739 108.555 35.0112 108.417 35.173L105.935 38.0854C105.866 38.1609 105.768 38.2148 105.665 38.2256C105.561 38.2364 105.452 38.2094 105.372 38.1447L102.574 36.036L100.344 38.6517C100.275 38.7326 100.178 38.7811 100.074 38.7919C100.069 38.7865 100.051 38.7865 100.04 38.7865Z" fill="#0D0D26"/>
<path d="M103.447 80.3574C103.298 80.3574 103.16 80.2819 103.085 80.1471L101.419 77.0406L98.1037 78.6046C97.9026 78.6963 97.6612 78.6208 97.5636 78.4374L95.8973 75.3255L92.582 76.8896C92.3809 76.9813 92.1396 76.9112 92.0419 76.7224L90.3757 73.6159L87.0604 75.1799C86.8593 75.2716 86.6179 75.2015 86.5203 75.0127C86.4226 74.8294 86.4973 74.5975 86.6984 74.5058L90.3699 72.7691C90.5653 72.6721 90.8123 72.7476 90.91 72.9363L92.5763 76.0482L95.8916 74.4842C96.0869 74.3871 96.334 74.4626 96.4317 74.6514L98.0979 77.7579L101.413 76.1939C101.614 76.0968 101.85 76.1723 101.953 76.361L103.803 79.8073C103.901 79.9907 103.826 80.2226 103.625 80.3143C103.574 80.3466 103.51 80.3574 103.447 80.3574Z" fill="#0D0D26"/>
<path d="M14.1871 86.0635C13.8768 86.0635 13.5665 85.9988 13.2735 85.8693C12.7507 85.6374 12.3599 85.2329 12.1588 84.726C12.0842 84.5318 12.1933 84.3107 12.4002 84.2406C12.607 84.1705 12.8368 84.2729 12.9173 84.4671C13.0379 84.7853 13.285 85.0388 13.6125 85.1844C13.94 85.33 14.3077 85.3462 14.6467 85.2275C15.3477 84.9902 15.7097 84.2621 15.4569 83.6042C15.3822 83.41 15.4914 83.1889 15.6982 83.1188C15.9051 83.0487 16.1349 83.1511 16.2153 83.3453C16.6175 84.397 16.0372 85.5565 14.9225 85.934C14.6812 86.0203 14.4342 86.0635 14.1871 86.0635Z" fill="#0D0D26"/>
<path d="M15.8362 83.8524C15.6696 83.8524 15.5145 83.7553 15.457 83.6043C15.0835 82.6335 14.2561 82.2074 13.6241 82.0133C12.7335 81.7436 11.6878 81.7868 10.6823 82.1266C10.4755 82.1967 10.2456 82.0942 10.1652 81.9C10.0905 81.7059 10.1997 81.4901 10.4065 81.4146C11.5786 81.0155 12.8082 80.9724 13.8712 81.2906C15.0031 81.6304 15.8362 82.3585 16.2154 83.34C16.2901 83.5342 16.181 83.7553 15.9741 83.8254C15.9282 83.847 15.8822 83.8524 15.8362 83.8524Z" fill="#0D0D26"/>
<path d="M12.5382 84.974C12.3716 84.974 12.2164 84.877 12.159 84.726C11.7797 83.7444 11.9234 82.6819 12.5612 81.7435C13.1587 80.8644 14.1355 80.1579 15.3076 79.7642C15.5145 79.6941 15.7443 79.7965 15.8247 79.9907C15.8994 80.1849 15.7903 80.406 15.5834 80.4761C14.5779 80.8159 13.7448 81.4145 13.2392 82.1534C12.8829 82.6765 12.5382 83.5017 12.9117 84.4725C12.9863 84.6666 12.8772 84.8878 12.6703 84.9579C12.6301 84.9633 12.5841 84.974 12.5382 84.974Z" fill="#0D0D26"/>
<path d="M15.4456 80.4923C15.2789 80.4923 15.1238 80.3952 15.0663 80.2442C14.9916 80.0501 15.1008 79.8343 15.3077 79.7588C15.8937 79.5593 16.5085 79.4676 17.1233 79.4784C17.3474 79.4838 17.5198 79.6564 17.5198 79.8613C17.514 80.0716 17.3359 80.2334 17.1118 80.2334C16.5947 80.2226 16.0718 80.3035 15.5835 80.4707C15.5375 80.4869 15.4915 80.4923 15.4456 80.4923Z" fill="#0D0D26"/>
<path d="M9.28606 87.7245C8.97579 87.7245 8.66552 87.6598 8.37249 87.5304C7.84963 87.2985 7.45892 86.894 7.25782 86.387C7.18312 86.1929 7.29229 85.9717 7.49914 85.9016C7.70598 85.8315 7.93581 85.934 8.01625 86.1281C8.13691 86.4463 8.38398 86.6998 8.71149 86.8454C9.03899 86.9911 9.40672 87.0072 9.74572 86.8886C10.4467 86.6513 10.8087 85.9232 10.5559 85.2652C10.4812 85.0711 10.5903 84.8553 10.7972 84.7798C11.004 84.7097 11.2396 84.8122 11.3143 85.0064C11.7165 86.058 11.1362 87.2176 10.0215 87.5951C9.78019 87.6814 9.53313 87.7245 9.28606 87.7245Z" fill="#0D0D26"/>
<path d="M10.9349 85.5188C10.7683 85.5188 10.6132 85.4218 10.5557 85.2708C10.1823 84.3 9.35487 83.8739 8.72284 83.6797C7.83226 83.4101 6.78653 83.4532 5.78103 83.793C5.57418 83.8631 5.34435 83.7606 5.26391 83.5665C5.18922 83.3723 5.29839 83.1566 5.50523 83.0811C6.67736 82.682 7.90695 82.6388 8.96991 82.957C10.1018 83.2968 10.9349 84.0249 11.3142 85.0065C11.3889 85.2006 11.2797 85.4218 11.0728 85.4919C11.0269 85.508 10.9809 85.5188 10.9349 85.5188Z" fill="#0D0D26"/>
<path d="M7.63703 86.6352C7.4704 86.6352 7.31527 86.5381 7.25781 86.3871C6.87859 85.4056 7.02223 84.3431 7.66001 83.4047C8.25757 82.5256 9.23434 81.8191 10.4065 81.4254C10.6133 81.3552 10.8431 81.4577 10.9236 81.6519C10.9983 81.846 10.8891 82.0672 10.6823 82.1373C9.67676 82.477 8.84363 83.0757 8.33801 83.8146C7.98177 84.3377 7.63703 85.1629 8.0105 86.1337C8.08519 86.3278 7.97603 86.5489 7.76918 86.619C7.72896 86.6298 7.68299 86.6352 7.63703 86.6352Z" fill="#0D0D26"/>
<path d="M4.18398 84.6236C4.06906 84.6236 3.95989 84.5805 3.87945 84.4942C3.73581 84.3378 3.75305 84.1005 3.91967 83.9602C4.39082 83.5773 4.92518 83.2861 5.51124 83.0865C5.71809 83.0164 5.95366 83.1189 6.02836 83.3131C6.10305 83.5072 5.99388 83.7229 5.78704 83.7984C5.29865 83.9656 4.85048 84.2137 4.44828 84.5319C4.36784 84.5912 4.27591 84.6236 4.18398 84.6236Z" fill="#0D0D26"/>
<path d="M70.6906 36.8341C70.6102 36.8341 70.5355 36.8233 70.455 36.8018C70.0413 36.6777 69.8115 36.2624 69.9437 35.8741C70.0758 35.4858 70.5125 35.2701 70.9262 35.3941C71.3399 35.5182 71.5697 35.9335 71.4376 36.3218C71.3341 36.6346 71.0239 36.8341 70.6906 36.8341ZM70.6964 36.0791C70.6906 36.0791 70.6791 36.0845 70.6791 36.0899L70.5814 36.4404L70.6964 36.0791Z" fill="#0D0D26"/>
<path d="M69.3404 89.251C69.26 89.251 69.1796 89.2402 69.0991 89.2133C68.6797 89.0892 68.4441 88.6631 68.5763 88.2694C68.6395 88.0753 68.7831 87.9189 68.9727 87.8272C69.1623 87.7355 69.3807 87.7193 69.5818 87.7787C69.7829 87.838 69.9495 87.9728 70.0529 88.1508C70.1506 88.3288 70.1678 88.5337 70.1046 88.7225C70.0414 88.9166 69.8978 89.073 69.7082 89.1647C69.5932 89.224 69.4668 89.251 69.3404 89.251ZM69.3404 88.496L69.2198 88.8573L69.3404 88.496Z" fill="#0D0D26"/>
<path d="M28.3102 30.098C28.2298 30.098 28.1493 30.0872 28.0747 30.0656C27.8736 30.0063 27.7127 29.8769 27.615 29.7043C27.5173 29.5317 27.5001 29.3321 27.5633 29.1434C27.6265 28.9546 27.7644 28.8036 27.9482 28.7119C28.1321 28.6202 28.3447 28.6041 28.5458 28.6634C28.7469 28.7227 28.9078 28.8521 29.0055 29.0247C29.1031 29.1973 29.1204 29.3969 29.0572 29.5856C28.994 29.7744 28.8561 29.9254 28.6722 30.0171C28.5573 30.071 28.4309 30.098 28.3102 30.098ZM28.3102 29.3429C28.2987 29.3429 28.293 29.3483 28.2872 29.3591L28.316 29.3483C28.3102 29.3429 28.3102 29.3429 28.3102 29.3429Z" fill="#0D0D26"/>
<path d="M124.281 40.5608H117.455C117.231 40.5608 117.053 40.3936 117.053 40.1833C117.053 39.973 117.231 39.8058 117.455 39.8058H124.281C124.505 39.8058 124.683 39.973 124.683 40.1833C124.683 40.3936 124.499 40.5608 124.281 40.5608Z" fill="#0D0D26"/>
<path d="M120.868 43.7644C120.644 43.7644 120.466 43.5972 120.466 43.3869V36.9797C120.466 36.7694 120.644 36.6022 120.868 36.6022C121.092 36.6022 121.27 36.7694 121.27 36.9797V43.3869C121.27 43.5972 121.087 43.7644 120.868 43.7644Z" fill="#0D0D26"/>
<path d="M62.4227 83.8739H55.7462C55.5221 83.8739 55.344 83.7067 55.344 83.4964C55.344 83.2861 55.5221 83.1189 55.7462 83.1189H62.4227C62.6468 83.1189 62.8249 83.2861 62.8249 83.4964C62.8249 83.7013 62.6468 83.8739 62.4227 83.8739Z" fill="#0D0D26"/>
<path d="M59.0843 87.0073C58.8603 87.0073 58.6821 86.8401 58.6821 86.6298V80.3628C58.6821 80.1525 58.8603 79.9853 59.0843 79.9853C59.3084 79.9853 59.4865 80.1525 59.4865 80.3628V86.6298C59.4865 86.8401 59.3027 87.0073 59.0843 87.0073Z" fill="#0D0D26"/>
<path d="M60.7793 28.9061C60.6759 28.9061 60.5725 28.8684 60.492 28.7929C60.3369 28.6472 60.3369 28.4045 60.492 28.2589L65.2667 23.7771C65.4219 23.6315 65.6804 23.6315 65.8356 23.7771C65.9907 23.9228 65.9907 24.1655 65.8356 24.3111L61.0609 28.7929C60.9862 28.8684 60.8827 28.9061 60.7793 28.9061Z" fill="#0D0D26"/>
<path d="M65.554 28.9061C65.4506 28.9061 65.3472 28.8684 65.2667 28.7929L60.492 24.3111C60.3369 24.1655 60.3369 23.9228 60.492 23.7771C60.6472 23.6315 60.9057 23.6315 61.0609 23.7771L65.8356 28.2589C65.9907 28.4045 65.9907 28.6472 65.8356 28.7929C65.7609 28.8684 65.6575 28.9061 65.554 28.9061Z" fill="#0D0D26"/>
<path d="M25.7707 18.9232C25.6615 18.9232 25.5638 18.8855 25.4834 18.81L21.6452 15.2073C21.4901 15.0617 21.4901 14.819 21.6452 14.6733L25.4834 11.0707C25.6328 10.9304 25.9028 10.9304 26.0522 11.0707L29.8904 14.6733C30.0455 14.819 30.0455 15.0617 29.8904 15.2073L26.0522 18.81C25.9775 18.8801 25.8741 18.9232 25.7707 18.9232ZM22.4956 14.9376L25.7649 18.0064L29.0342 14.9376L25.7707 11.8689L22.4956 14.9376Z" fill="#0D0D26"/>
</g>
</g>
</svg>
