<svg width="40" height="40" viewBox="0 0 40 40" fill="none" xmlns="http://www.w3.org/2000/svg">
<g clip-path="url(#clip0_8_6096)">
<path d="M8.77665 16.275C9.55646 13.9157 11.0614 11.863 13.0768 10.4097C15.0923 8.95631 17.5152 8.17656 20 8.18167C22.8167 8.18167 25.3633 9.18167 27.3633 10.8183L33.1833 5C29.6367 1.90833 25.0917 0 20 0C12.1167 0 5.32998 4.49667 2.06665 11.0833L8.77665 16.275Z" fill="#EA4335"/>
<path d="M26.7333 30.0217C24.9166 31.1934 22.61 31.8184 20 31.8184C17.5251 31.8234 15.1113 31.0499 13.1004 29.6073C11.0894 28.1647 9.58322 26.126 8.79498 23.78L2.06165 28.8917C3.71372 32.2355 6.27042 35.049 9.44135 37.0126C12.6123 38.9762 16.2703 40.0112 20 40C24.8883 40 29.5583 38.2617 33.0566 35L26.735 30.0217H26.7333Z" fill="#356899"/>
<path d="M33.0567 34.9999C36.715 31.5866 39.09 26.5066 39.09 19.9999C39.09 18.8166 38.9083 17.5449 38.6367 16.3633H20V24.0916H30.7267C30.1983 26.6899 28.7767 28.7016 26.735 30.0216L33.0567 34.9999Z" fill="#4A90E2"/>
<path d="M8.79495 23.7799C8.38721 22.5614 8.18007 21.2848 8.18162 19.9999C8.18162 18.6966 8.38995 17.4449 8.77662 16.2749L2.06662 11.0833C0.693913 13.8544 -0.0137107 16.9074 -5.00497e-05 19.9999C-5.00497e-05 23.1999 0.741617 26.2166 2.06162 28.8916L8.79495 23.7799Z" fill="#FBBC05"/>
</g>
<defs>
<clipPath id="clip0_8_6096">
<rect width="40" height="40" fill="white"/>
</clipPath>
</defs>
</svg>
