<svg width="74" height="122" viewBox="0 0 74 122" fill="none" xmlns="http://www.w3.org/2000/svg">
<path d="M30.5686 22.547C29.819 23.3142 29.0163 24.1613 28.2756 25.004C27.535 25.8467 26.7943 26.7115 26.098 27.5986C25.4017 28.4856 24.7674 29.3726 24.111 30.3084L23.6675 31.0048L23.224 31.7099C23.0776 31.945 22.9446 32.1845 22.816 32.4284L22.4612 33.0804C22.3165 33.4532 22.2341 33.8473 22.2172 34.2468C22.1817 34.7607 22.1817 35.2764 22.2172 35.7903C22.3042 36.899 22.4522 38.002 22.6607 39.0944C22.8559 40.2121 23.1043 41.3342 23.3659 42.4518C23.6276 43.5695 23.9159 44.7004 24.2086 45.8003L22.5676 46.4168C21.5592 44.2475 20.7142 42.006 20.0396 39.7109C19.697 38.528 19.4347 37.3234 19.2546 36.1052C19.1649 35.4555 19.1189 34.8006 19.1171 34.1448C19.1067 33.3722 19.2374 32.6041 19.5029 31.8785C19.6049 31.6301 19.6582 31.5325 19.7291 31.3817L19.9331 30.9604C20.0662 30.681 20.2037 30.4016 20.3767 30.131L20.8202 29.315L21.2903 28.5211C21.9168 27.4752 22.5993 26.464 23.3349 25.4919C24.0622 24.5206 24.8162 23.5759 25.6101 22.6623C26.404 21.7486 27.2068 20.8882 28.1293 20.0012L30.5686 22.547Z" fill="#B55B52"/>
<path d="M30.7592 17.225C28.3553 17.3315 26.0712 21.3231 26.0712 21.3231L29.2468 27.8028C29.2468 27.8028 33.5489 24.2192 33.6021 20.7066C33.6376 18.4048 33.1231 17.1141 30.7592 17.225Z" fill="#356899"/>
<path opacity="0.7" d="M30.7592 17.225C28.3553 17.3315 26.0712 21.3231 26.0712 21.3231L29.2468 27.8028C29.2468 27.8028 33.5489 24.2192 33.6021 20.7066C33.6376 18.4048 33.1231 17.1141 30.7592 17.225Z" fill="white"/>
<path opacity="0.2" d="M31.3314 21.8816C30.6306 22.9416 30.2935 25.6914 30.1871 26.9155C31.2453 25.8864 32.1424 24.7037 32.8482 23.4073C32.3736 22.2231 31.7926 21.1853 31.3314 21.8816Z" fill="black"/>
<path d="M23.7339 45.1255L26.6567 46.0125L24.7097 47.9817C24.7097 47.9817 22.603 47.3297 22.3103 45.8972L23.7339 45.1255Z" fill="#B55B52"/>
<path d="M28.4263 48.2438L27.934 50.1287L24.7096 47.9644L26.6567 45.9952L28.4263 48.2438Z" fill="#B55B52"/>
<path d="M47.657 9.52939C47.5638 9.79106 47.6304 10.0572 47.8033 10.1193C47.9763 10.1814 48.1892 10.0261 48.2779 9.76445C48.3666 9.50278 48.3045 9.23223 48.1315 9.17014C47.9586 9.10805 47.7501 9.26328 47.657 9.52939Z" fill="#263238"/>
<path d="M48.0517 9.15651L48.7481 9.21417C48.7481 9.21417 48.2513 9.58228 48.0517 9.15651Z" fill="#263238"/>
<path d="M47.7901 9.86672C47.8163 10.5567 47.9357 11.24 48.1449 11.898C47.9756 11.9423 47.7988 11.9494 47.6265 11.9187C47.4542 11.8881 47.2906 11.8205 47.147 11.7206L47.7901 9.86672Z" fill="#A02724"/>
<path d="M48.5175 8.50536C48.4859 8.50098 48.4563 8.48723 48.4326 8.46588C48.4089 8.44454 48.3921 8.41658 48.3844 8.38561C48.3358 8.18513 48.2423 7.99831 48.1109 7.83927C47.9795 7.68023 47.8137 7.55312 47.626 7.46754C47.5857 7.45254 47.5528 7.42228 47.5346 7.38328C47.5163 7.34429 47.5141 7.29969 47.5284 7.25909C47.5354 7.23874 47.5463 7.22001 47.5607 7.204C47.575 7.18799 47.5924 7.17504 47.6119 7.16593C47.6314 7.15682 47.6525 7.15174 47.6739 7.15098C47.6954 7.15022 47.7168 7.1538 47.7369 7.16151C47.9783 7.26639 48.1916 7.42664 48.3596 7.62929C48.5276 7.83193 48.6455 8.07128 48.7038 8.32796C48.7091 8.34892 48.7102 8.37074 48.707 8.39214C48.7039 8.41354 48.6965 8.4341 48.6854 8.45265C48.6742 8.47119 48.6596 8.48736 48.6422 8.50021C48.6248 8.51307 48.605 8.52235 48.584 8.52753L48.5175 8.50536Z" fill="#263238"/>
<path d="M38.5472 10.6429C38.6093 12.7407 38.3965 16.515 36.7732 17.5839C36.7732 17.5839 36.9905 19.7393 40.7648 20.4711C44.9117 21.2739 43.0844 18.808 43.0844 18.808C40.9112 17.8322 41.2438 16.1735 41.8958 14.6833L38.5472 10.6429Z" fill="#B55B52"/>
<path d="M50.8724 24.9993C51.245 26.0149 51.6707 27.1148 52.1231 28.1571C52.5755 29.1993 53.0102 30.2549 53.5379 31.2617C54.0657 32.2685 54.5802 33.2797 55.139 34.2598C55.4273 34.7433 55.7156 35.2267 56.026 35.6879C56.1768 35.9274 56.3321 36.1581 56.4962 36.3754L56.7357 36.7125L56.8554 36.8854L56.9175 36.9697L56.9574 37.014C57.2458 37.3422 57.577 37.6301 57.942 37.87C58.3816 38.1702 58.8377 38.4457 59.308 38.695C60.2793 39.2183 61.3216 39.6929 62.3816 40.1408C63.4416 40.5888 64.5237 41.0278 65.6192 41.4137C66.7147 41.7995 67.8368 42.2076 68.9145 42.5846L68.5021 44.2921C66.1252 43.8948 63.777 43.3421 61.4724 42.6378C60.2925 42.278 59.1344 41.85 58.0041 41.356C57.4114 41.093 56.8339 40.7968 56.2744 40.469C55.6253 40.099 55.0373 39.6307 54.5314 39.0808L54.425 38.9611L54.3496 38.8679L54.2032 38.6861L53.9105 38.3135C53.7109 38.0696 53.5202 37.8212 53.3428 37.5684C52.9658 37.0673 52.6199 36.5528 52.2784 36.0339C51.6054 35.0045 50.9852 33.9417 50.42 32.8495C49.8568 31.7628 49.3246 30.6674 48.8367 29.5497C48.3488 28.4321 47.9098 27.3322 47.5062 26.1081L50.8724 24.9993Z" fill="#B55B52"/>
<path d="M68.3292 42.5758L70.9459 41.5646L70.8173 44.5849C70.8173 44.5849 68.6973 45.1481 67.7127 44.0793L68.3292 42.5758Z" fill="#B55B52"/>
<path d="M72.9195 42.6024L73.8154 44.5317L70.8173 44.5849L70.9459 41.5646L72.9195 42.6024Z" fill="#B55B52"/>
<path d="M29.5218 118.297L32.9856 118.554L34.0146 110.602L30.5507 110.345L29.5218 118.297Z" fill="#B55B52"/>
<path d="M2.0861 100.308L4.34802 102.995L11.0628 98.6799L8.80089 95.9922L2.0861 100.308Z" fill="#B55B52"/>
<path d="M5.40357 102.65L3.58073 99.1458C3.55172 99.0849 3.50136 99.0368 3.43921 99.0107C3.37707 98.9845 3.30747 98.9821 3.24366 99.0039L0.347522 100.006C0.274844 100.035 0.209187 100.08 0.154876 100.136C0.100564 100.193 0.0588324 100.26 0.032432 100.334C0.00603151 100.407 -0.00443868 100.486 0.00171103 100.564C0.00786074 100.642 0.0304909 100.718 0.0681101 100.787C0.724509 101.998 1.10149 102.561 1.89982 104.091C2.39655 105.036 3.02191 106.473 3.70048 107.781C4.37906 109.089 5.67411 108.508 5.50558 107.901C4.74274 105.191 5.24834 104.441 5.50558 103.266C5.54213 103.055 5.50618 102.838 5.40357 102.65Z" fill="#263238"/>
<path d="M33.203 118.062H29.3089C29.2419 118.061 29.1768 118.084 29.1255 118.127C29.0742 118.17 29.0402 118.231 29.0295 118.297L28.5062 121.375C28.4954 121.451 28.5012 121.53 28.5232 121.604C28.5452 121.678 28.583 121.747 28.6339 121.805C28.6847 121.864 28.7476 121.911 28.8181 121.943C28.8887 121.975 28.9653 121.991 29.0428 121.991C30.4044 121.969 31.0564 121.889 32.7683 121.889C33.8239 121.889 35.9971 122 37.4518 122C38.9065 122 39.0219 120.563 38.4187 120.43C35.7177 119.849 34.671 119.042 33.7751 118.275C33.617 118.136 33.4134 118.06 33.203 118.062Z" fill="#263238"/>
<path opacity="0.2" d="M34.0146 110.602L33.4425 115.024L29.9919 114.678L30.5508 110.349L34.0146 110.602Z" fill="black"/>
<path opacity="0.2" d="M8.80091 95.9922L11.0628 98.6799L8.282 100.467L5.93581 97.8328L8.80091 95.9922Z" fill="black"/>
<path d="M29.7967 38.313L43.6875 41.0051C50.2515 21.6812 48.6815 21.047 48.6815 21.047C47.661 20.4956 46.6079 20.0069 45.5281 19.5834L45.3374 19.5125C44.4503 19.1887 44.2641 19.1399 43.0755 18.794C41.0264 18.3105 39.1238 17.9069 36.7687 17.5743L36.3252 17.5122C35.8817 17.459 35.4736 17.4146 35.0656 17.3747C34.7906 17.3437 34.5157 17.3259 34.254 17.3082L33.367 17.2594C31.8501 17.184 30.7635 17.2062 30.7635 17.2062C31.5264 29.2742 30.9454 32.7469 29.7967 38.313Z" fill="#356899"/>
<path opacity="0.7" d="M29.7967 38.313L43.6875 41.0051C50.2515 21.6812 48.6815 21.047 48.6815 21.047C47.661 20.4956 46.6079 20.0069 45.5281 19.5834L45.3374 19.5125C44.4503 19.1887 44.2641 19.1399 43.0755 18.794C41.0264 18.3105 39.1238 17.9069 36.7687 17.5743L36.3252 17.5122C35.8817 17.459 35.4736 17.4146 35.0656 17.3747C34.7906 17.3437 34.5157 17.3259 34.254 17.3082L33.367 17.2594C31.8501 17.184 30.7635 17.2062 30.7635 17.2062C31.5264 29.2742 30.9454 32.7469 29.7967 38.313Z" fill="white"/>
<path opacity="0.2" d="M46.6857 25.5582L45.4305 25.3541C45.4305 27.0084 46.0603 29.8469 46.6724 31.652C47.1913 29.878 47.5949 28.4188 47.9009 27.1903L46.6857 25.5582Z" fill="black"/>
<path d="M48.1982 20.8124C50.2516 21.4688 51.7463 25.5314 52.3051 27.2832L48.3135 31.9712C48.3135 31.9712 44.2243 26.0946 44.8762 24.2718C45.5149 22.3736 47.2047 20.4886 48.1982 20.8124Z" fill="#356899"/>
<path opacity="0.7" d="M48.1982 20.8124C50.2516 21.4688 51.7463 25.5314 52.3051 27.2832L48.3135 31.9712C48.3135 31.9712 44.2243 26.0946 44.8762 24.2718C45.5149 22.3736 47.2047 20.4886 48.1982 20.8124Z" fill="white"/>
<path d="M49.5287 5.81264C49.1162 7.02343 47.3111 7.50685 45.5149 6.89924C43.7186 6.29163 42.5832 4.80586 42.9957 3.59507C43.4082 2.38428 45.2133 1.90085 46.9873 2.5129C48.7614 3.12495 49.9367 4.60185 49.5287 5.81264Z" fill="#263238"/>
<path d="M39.1105 5.48054C38.188 8.78028 37.7267 10.1552 38.7823 12.4259C40.37 15.8454 44.6189 16.3821 46.5083 13.4505C48.2069 10.816 49.431 5.86196 46.7167 3.38272C46.1439 2.82912 45.4366 2.43446 44.6646 2.23768C43.8927 2.0409 43.0828 2.0488 42.3148 2.2606C41.5469 2.4724 40.8474 2.88079 40.2855 3.44546C39.7235 4.01012 39.3185 4.71156 39.1105 5.48054Z" fill="#B55B52"/>
<path d="M44.2642 1.62605C42.9336 2.38889 40.1084 -2.38774 36.6003 1.62605C34.09 4.50445 35.691 8.72225 35.691 8.72225C35.691 8.72225 33.6908 5.2052 32.0942 6.92159C30.0096 9.13916 32.1651 17.0736 39.0396 16.5281C45.914 15.9826 45.2488 10.4032 45.2488 10.4032C45.2488 10.4032 48.4687 7.13004 48.309 4.19398C48.1892 1.99416 46.4817 0.370907 44.2642 1.62605Z" fill="#263238"/>
<path d="M45.0979 8.31419C44.9264 8.9282 44.9481 9.58012 45.16 10.1814C45.4439 11.0285 46.0958 11.0329 46.4418 10.4475C46.7877 9.86205 46.9784 8.84641 46.4861 8.1634C45.9938 7.48039 45.3197 7.63561 45.0979 8.31419Z" fill="#B55B52"/>
<path d="M39.9976 40.2874C39.9976 40.2874 38.5163 45.4232 36.6136 52.2001C35.3496 56.7151 33.8948 61.9574 32.5687 66.8937C31.8103 69.7189 31.0963 72.442 30.4798 74.8769C26.9938 88.648 9.60808 100.485 9.60808 100.485L6.24182 96.782C6.24182 96.782 17.924 86.9449 21.3213 74.0963C28.1824 48.0133 24.3238 43.6137 29.7924 38.3137L39.9976 40.2874Z" fill="#263238"/>
<path opacity="0.2" d="M38.4985 44.8909C37.984 46.8823 37.3365 49.397 36.6224 52.2089C35.3584 56.7239 33.9037 61.9662 32.5776 66.9025C32.0099 60.6046 31.6906 49.0245 36.3253 45.4231C37.2389 44.7224 37.9618 44.576 38.4985 44.8909Z" fill="black"/>
<path d="M9.89644 101.017L5.69193 96.391L6.96481 95.1137L12.1229 99.9746L9.89644 101.017Z" fill="#356899"/>
<path opacity="0.7" d="M9.89644 101.017L5.69193 96.391L6.96481 95.1137L12.1229 99.9746L9.89644 101.017Z" fill="white"/>
<path d="M6.03776 104.53C5.99546 104.529 5.95357 104.522 5.91357 104.508C5.50111 104.357 5.23943 103.568 5.11969 103.111C5.11581 103.095 5.1167 103.079 5.12224 103.064C5.12777 103.049 5.1377 103.036 5.15073 103.027C5.16362 103.017 5.17915 103.012 5.19508 103.012C5.21102 103.012 5.22654 103.017 5.23943 103.027C5.36362 103.098 6.45466 103.736 6.47683 104.184C6.48051 104.233 6.47091 104.282 6.44904 104.326C6.42717 104.369 6.39386 104.406 6.35265 104.433C6.26202 104.5 6.15082 104.535 6.03776 104.53ZM5.33257 103.266C5.51441 103.865 5.74504 104.268 5.97123 104.348C6.01958 104.363 6.07092 104.366 6.12053 104.356C6.17014 104.346 6.2164 104.323 6.25508 104.291C6.31273 104.251 6.31717 104.211 6.31274 104.184C6.29056 103.954 5.76278 103.537 5.33257 103.266Z" fill="#356899"/>
<path d="M43.4658 41.0059C43.4658 41.0059 44.3528 68.4239 42.3925 78.7533C40.379 89.5174 34.2319 113.911 34.2319 113.911L29.2379 113.267C29.2379 113.267 32.3957 88.5816 33.7396 77.9107C35.1987 66.2729 33.2961 39.019 33.2961 39.019L43.4658 41.0059Z" fill="#263238"/>
<path d="M35.3053 114.216L28.1869 113.298L28.2711 111.604L36.0193 111.941L35.3053 114.216Z" fill="#356899"/>
<path opacity="0.7" d="M35.3053 114.216L28.1869 113.298L28.2711 111.604L36.0193 111.941L35.3053 114.216Z" fill="white"/>
<path d="M6.20639 103.457C5.83795 103.439 5.47843 103.338 5.15526 103.16C5.14316 103.152 5.13315 103.142 5.12617 103.129C5.11919 103.117 5.11546 103.103 5.11535 103.089C5.1173 103.074 5.12226 103.061 5.12991 103.049C5.13755 103.036 5.14771 103.026 5.1597 103.018C5.19961 103.018 6.04672 102.552 6.53459 102.734C6.59574 102.756 6.65128 102.791 6.69727 102.837C6.74325 102.883 6.77856 102.939 6.8007 103C6.82985 103.059 6.83826 103.126 6.82458 103.191C6.8109 103.255 6.77592 103.313 6.7253 103.355C6.56776 103.444 6.38582 103.479 6.20639 103.457ZM5.37702 103.098C5.76288 103.275 6.43701 103.373 6.62329 103.226C6.65434 103.2 6.68538 103.16 6.62329 103.058C6.61023 103.018 6.5882 102.983 6.55894 102.954C6.52969 102.924 6.49402 102.902 6.45476 102.889C6.08267 102.847 5.7067 102.92 5.37702 103.098Z" fill="#356899"/>
<path d="M34.4892 118.664C34.1239 118.656 33.7601 118.615 33.4026 118.54C33.3856 118.538 33.3697 118.53 33.3576 118.518C33.3456 118.506 33.3379 118.49 33.336 118.473C33.3334 118.456 33.3363 118.439 33.3443 118.424C33.3523 118.409 33.3649 118.396 33.3804 118.389C33.54 118.305 34.9415 117.6 35.3584 117.835C35.3982 117.857 35.4315 117.889 35.4549 117.928C35.4782 117.967 35.4909 118.011 35.4915 118.056C35.5001 118.13 35.49 118.205 35.4621 118.274C35.4342 118.343 35.3894 118.404 35.3318 118.451C35.0827 118.614 34.786 118.689 34.4892 118.664ZM33.6775 118.425C34.4404 118.553 35.0081 118.518 35.2254 118.331C35.2627 118.299 35.2915 118.257 35.3093 118.211C35.327 118.165 35.3333 118.115 35.3274 118.065C35.3287 118.047 35.3248 118.029 35.3161 118.014C35.3075 117.998 35.2944 117.985 35.2786 117.977C35.0524 117.852 34.2541 118.15 33.6775 118.425Z" fill="#356899"/>
<path d="M33.4203 118.545C33.4044 118.55 33.3875 118.55 33.3715 118.545C33.3596 118.537 33.3501 118.525 33.3438 118.512C33.3376 118.499 33.3349 118.484 33.3361 118.47C33.3361 118.408 33.509 116.909 34.3473 116.997C34.569 117.02 34.6356 117.13 34.6489 117.224C34.711 117.614 33.8727 118.368 33.4514 118.554L33.4203 118.545ZM34.2808 117.139C33.784 117.139 33.5844 117.96 33.5223 118.315C33.9659 118.057 34.5247 117.467 34.4892 117.232C34.4892 117.232 34.4892 117.157 34.3295 117.144L34.2808 117.139Z" fill="#356899"/>
<path d="M29.7081 37.4667L28.8787 38.5799C28.8166 38.6686 28.9142 38.7883 29.0739 38.8194L43.6433 41.6401C43.7674 41.6401 43.8828 41.6401 43.9005 41.547L44.2331 40.3318C44.2331 40.2519 44.1577 40.1544 44.0202 40.1278L29.952 37.4046C29.9094 37.3932 29.8646 37.3929 29.8219 37.4038C29.7792 37.4146 29.74 37.4363 29.7081 37.4667Z" fill="#356899"/>
<path d="M31.3402 39.4002L30.9632 39.3248C30.8879 39.3248 30.8391 39.2627 30.8524 39.2184L31.2959 37.6439C31.2959 37.5996 31.3846 37.573 31.4555 37.5863L31.8325 37.6617C31.9079 37.6617 31.9612 37.7238 31.9478 37.7681L31.5043 39.3426C31.4866 39.4002 31.4156 39.4002 31.3402 39.4002Z" fill="#263238"/>
<path d="M40.8536 41.2583L40.4766 41.1874C40.4012 41.1874 40.3524 41.1208 40.3657 41.0765L40.8092 39.5064C40.8092 39.4577 40.8935 39.431 40.9689 39.4488L41.3459 39.5198C41.4168 39.5198 41.4701 39.5863 41.4567 39.6306L41.0132 41.2007C40.9999 41.2494 40.929 41.2761 40.8536 41.2583Z" fill="#263238"/>
</svg>
