<svg width="75" height="135" viewBox="0 0 75 135" fill="none" xmlns="http://www.w3.org/2000/svg">
<path d="M68.5076 0.000370923H17.5313C15.7829 0.0291146 14.108 0.708516 12.8336 1.90591C11.5592 3.1033 10.7769 4.7327 10.6394 6.47594L2.71102 128.528C2.64642 129.359 2.75552 130.195 3.03139 130.982C3.30725 131.768 3.74383 132.489 4.31335 133.097C4.88287 133.706 5.57286 134.19 6.33941 134.517C7.10596 134.845 7.93228 135.009 8.76581 135H59.7598C61.5078 134.972 63.1827 134.293 64.4572 133.097C65.7317 131.9 66.5141 130.271 66.6517 128.528L72.3389 40.8027C72.5805 40.7183 72.7926 40.5661 72.9497 40.3642C73.1068 40.1622 73.2023 39.9192 73.2247 39.6643L74.2435 23.9671C74.2612 23.7232 74.1991 23.4802 74.0664 23.2748C73.9338 23.0694 73.7378 22.9128 73.5082 22.8287L74.5668 6.47594C74.6314 5.64429 74.5222 4.8083 74.2461 4.02116C73.97 3.23402 73.5331 2.51296 72.9632 1.90387C72.3932 1.29477 71.7028 0.810981 70.9357 0.483269C70.1686 0.155558 69.3417 -0.00889568 68.5076 0.000370923Z" fill="#356899"/>
<path d="M6.51128 31.6025H7.51229C7.82204 31.597 8.11867 31.4765 8.34458 31.2645C8.57049 31.0525 8.70955 30.7641 8.73477 30.4553L9.17769 23.9C9.18875 23.7526 9.16903 23.6044 9.1198 23.4649C9.07056 23.3255 8.99288 23.1977 8.89169 23.0899C8.79049 22.982 8.66798 22.8964 8.53194 22.8384C8.39589 22.7803 8.24927 22.7512 8.10138 22.7529H7.1048C6.79475 22.7574 6.49757 22.8776 6.27145 23.0898C6.04534 23.302 5.90657 23.5909 5.88233 23.9L5.4394 30.4553C5.42838 30.6025 5.44797 30.7503 5.49694 30.8894C5.5459 31.0286 5.62318 31.1561 5.7239 31.2639C5.82462 31.3717 5.94659 31.4574 6.08211 31.5157C6.21763 31.574 6.36376 31.6035 6.51128 31.6025Z" fill="#356899"/>
<path d="M5.75395 43.3048H6.75053C7.06145 43.2992 7.35921 43.1783 7.58594 42.9655C7.81268 42.7527 7.95221 42.4632 7.97744 42.1532L8.42036 35.6023C8.43142 35.4549 8.4117 35.3067 8.36247 35.1672C8.31323 35.0277 8.23556 34.9 8.13436 34.7922C8.03317 34.6843 7.91066 34.5987 7.77461 34.5406C7.63857 34.4826 7.49195 34.4535 7.34406 34.4552H6.34747C6.03696 34.4596 5.73923 34.5796 5.51239 34.7917C5.28555 35.0038 5.14587 35.2928 5.12057 35.6023L4.67764 42.1532C4.66525 42.3012 4.684 42.4501 4.73269 42.5904C4.78137 42.7307 4.85892 42.8593 4.96033 42.9678C5.06173 43.0763 5.18474 43.1623 5.32143 43.2204C5.45812 43.2784 5.60546 43.3072 5.75395 43.3048Z" fill="#356899"/>
<path d="M57.0491 135H6.07285C5.23933 135.009 4.413 134.844 3.64645 134.517C2.8799 134.189 2.18992 133.706 1.6204 133.097C1.05088 132.489 0.614292 131.768 0.338429 130.981C0.0625664 130.195 -0.0465356 129.359 0.0180627 128.528L7.92871 6.47589C8.06726 4.73227 8.85051 3.10282 10.1256 1.90552C11.4007 0.70822 13.0762 0.0289726 14.8251 0.000323309H65.7969C66.6306 -0.00832416 67.457 0.156585 68.2236 0.48457C68.9902 0.812556 69.6801 1.29644 70.2495 1.90547C70.819 2.51449 71.2555 3.23533 71.5313 4.02217C71.8071 4.809 71.9163 5.64461 71.8517 6.47589L63.941 128.528C63.8035 130.271 63.021 131.9 61.7465 133.097C60.472 134.293 58.7971 134.972 57.0491 135Z" fill="#263238"/>
<path opacity="0.2" d="M35.0259 129.81C36.8116 128.081 36.9462 125.323 35.3264 123.65C33.7066 121.977 30.946 122.022 29.1603 123.75C27.3746 125.479 27.24 128.237 28.8598 129.91C30.4796 131.583 33.2402 131.538 35.0259 129.81Z" fill="white"/>
<path d="M61.6555 119.157H3.70759C3.51025 119.156 3.31505 119.116 3.13403 119.037C2.95302 118.959 2.79004 118.844 2.65514 118.7C2.52024 118.556 2.4163 118.386 2.34973 118.2C2.28316 118.014 2.25537 117.817 2.26808 117.62L9.04927 12.9475C9.07922 12.586 9.24374 12.2489 9.51029 12.0028C9.77684 11.7568 10.126 11.6197 10.4888 11.6187H68.4411C68.6385 11.6189 68.8337 11.6596 69.0147 11.7381C69.1957 11.8167 69.3587 11.9316 69.4936 12.0756C69.6285 12.2196 69.7324 12.3898 69.799 12.5755C69.8656 12.7613 69.8933 12.9588 69.8806 13.1557L63.095 117.806C63.0714 118.171 62.9095 118.515 62.6422 118.766C62.3749 119.016 62.0221 119.156 61.6555 119.157Z" fill="white"/>
<path opacity="0.2" d="M45.487 77.9C51.9689 71.6251 52.4568 61.6142 46.5767 55.54C40.6965 49.4658 30.6751 49.6285 24.1931 55.9034C17.7112 62.1783 17.2233 72.1892 23.1035 78.2633C28.9836 84.3375 39.005 84.1748 45.487 77.9Z" fill="#356899"/>
<path opacity="0.2" d="M33.2729 91.2921C19.8212 91.2921 9.58521 80.3474 10.4578 66.8958C11.3303 53.4441 22.9793 42.4994 36.4353 42.4994C49.8914 42.4994 60.123 53.4441 59.2504 66.8958C58.3779 80.3474 46.7112 91.2921 33.2729 91.2921ZM36.3733 42.9424C23.1653 42.9424 11.7245 53.6877 10.8697 66.8958C10.0148 80.1038 20.0604 90.8492 33.2684 90.8492C46.4765 90.8492 57.9172 80.1038 58.7765 66.8958C59.6358 53.6877 49.5991 42.9424 36.3733 42.9424Z" fill="#356899"/>
<path d="M31.0583 74.5623L29.7295 71.9978C26.8505 66.4125 20.2199 61.4207 17.9034 59.9679L20.0915 56.6947C22.8332 58.4133 28.3121 62.6698 31.7492 67.728C38.1052 60.1982 47.0878 52.4426 59.1132 44.0758L61.1639 47.1762C48.3191 56.1145 39.0752 64.2864 32.9274 72.1617L31.0583 74.5623Z" fill="#356899"/>
<path opacity="0.2" d="M30.4301 6.96804C31.1525 6.26876 31.2057 5.15189 30.549 4.47347C29.8922 3.79504 28.7742 3.81196 28.0518 4.51125C27.3295 5.21053 27.2763 6.32739 27.933 7.00581C28.5898 7.68424 29.7078 7.66733 30.4301 6.96804Z" fill="white"/>
<path opacity="0.2" d="M35.4477 3.97313H50.1041C50.3319 3.97047 50.5578 4.01546 50.7672 4.10523C50.9766 4.19499 51.1649 4.32754 51.32 4.49437C51.4752 4.66119 51.5937 4.85861 51.6681 5.07396C51.7424 5.2893 51.771 5.51782 51.7518 5.74483C51.7155 6.22093 51.5029 6.66636 51.1556 6.99401C50.8083 7.32167 50.3512 7.50799 49.8738 7.51653H35.2218C34.994 7.51846 34.7683 7.473 34.5591 7.38305C34.3498 7.2931 34.1615 7.16062 34.0061 6.99402C33.8508 6.82742 33.7318 6.63034 33.6566 6.41529C33.5815 6.20024 33.5519 5.97193 33.5697 5.74483C33.606 5.26873 33.8186 4.8233 34.1659 4.49564C34.5133 4.16798 34.9703 3.98167 35.4477 3.97313Z" fill="white"/>
</svg>
