<svg width="19" height="19" viewBox="0 0 19 19" fill="none" xmlns="http://www.w3.org/2000/svg">
<g opacity="0.2">
<path d="M11.9304 1.58325C14.0758 1.58325 15.8095 2.43034 15.8333 4.58367V16.6012C15.8333 16.7358 15.8016 16.8703 15.7383 16.9891C15.6354 17.1791 15.4612 17.3216 15.2475 17.3849C15.0416 17.4483 14.812 17.4166 14.622 17.3058L9.49204 14.7408L4.35413 17.3058C4.23617 17.3683 4.10079 17.4087 3.96621 17.4087C3.52288 17.4087 3.16663 17.0445 3.16663 16.6012V4.58367C3.16663 2.43034 4.90829 1.58325 7.04579 1.58325H11.9304ZM12.4687 6.36492H6.50746C6.16704 6.36492 5.88996 6.642 5.88996 6.99034C5.88996 7.33788 6.16704 7.61575 6.50746 7.61575H12.4687C12.8091 7.61575 13.0862 7.33788 13.0862 6.99034C13.0862 6.642 12.8091 6.36492 12.4687 6.36492Z" fill="white"/>
</g>
</svg>
