<svg width="280" height="192" viewBox="0 0 280 192" fill="none" xmlns="http://www.w3.org/2000/svg">
<path d="M88.6406 102.792L93.1195 95.7092L94.7554 101.625L100.112 100.118L101.06 105.605L107.105 104.537L102.636 111.62L88.6406 102.792Z" fill="white"/>
<path d="M102.636 112.318C102.506 112.318 102.377 112.278 102.267 112.208L88.2817 103.38C87.9525 103.171 87.8627 102.742 88.0622 102.412L92.5311 95.33C92.6808 95.1006 92.9501 94.9709 93.2194 95.0108C93.4888 95.0507 93.7182 95.2502 93.788 95.5196L95.2344 100.767L99.9228 99.4498C100.112 99.3999 100.322 99.4298 100.481 99.5296C100.651 99.6393 100.761 99.8089 100.801 99.9984L101.629 104.797L106.985 103.849C107.255 103.799 107.534 103.919 107.684 104.148C107.833 104.378 107.843 104.677 107.693 104.906L103.225 111.989C103.095 112.198 102.865 112.318 102.636 112.318ZM89.6084 102.572L102.417 110.652L105.669 105.495L101.18 106.293C101 106.323 100.811 106.283 100.661 106.173C100.511 106.063 100.402 105.904 100.372 105.724L99.5537 100.996L94.9352 102.293C94.7556 102.343 94.5661 102.323 94.4065 102.233C94.2469 102.143 94.1272 101.993 94.0773 101.814L92.8603 97.4149L89.6084 102.572Z" fill="white"/>
<path d="M5.48735 168.828C5.28784 168.828 5.09832 168.738 4.95866 168.588C4.79906 168.409 4.74918 168.149 4.81901 167.92L7.6021 159.032C7.6819 158.783 7.89138 158.593 8.15073 158.553L17.3379 157.027C17.5773 156.987 17.8167 157.077 17.9763 157.256C18.1359 157.436 18.1858 157.695 18.116 157.925L15.3329 166.813C15.2531 167.062 15.0436 167.252 14.7843 167.291L5.59708 168.818C5.55718 168.828 5.51728 168.828 5.48735 168.828ZM8.79912 159.86L6.48487 167.252L14.1259 165.975L16.4401 158.583L8.79912 159.86Z" fill="white"/>
<path d="M17.6072 108.597L3.13312 101.395C2.11565 100.897 1.93609 99.2007 2.72413 97.6147C3.51218 96.0286 4.96856 95.1608 5.98603 95.6595L20.4601 102.862C21.4776 103.37 21.6571 105.056 20.8691 106.642C20.081 108.228 18.6246 109.106 17.6072 108.597Z" fill="white"/>
<path d="M18.2357 109.445C17.9165 109.445 17.5973 109.375 17.298 109.226L2.82395 102.024C1.44737 101.335 1.12816 99.2704 2.09576 97.3153C3.07333 95.3601 4.90878 94.3626 6.29533 95.0509L20.7694 102.253C21.4676 102.602 21.9265 103.34 22.0362 104.288C22.126 105.136 21.9365 106.084 21.4976 106.971C20.7295 108.498 19.4227 109.445 18.2357 109.445ZM17.9165 107.979C18.4851 108.268 19.5823 107.66 20.2407 106.343C20.5599 105.704 20.6996 105.006 20.6397 104.438C20.5898 103.979 20.4103 103.64 20.1409 103.5L5.66689 96.2978C5.0983 96.0085 4.00103 96.617 3.34266 97.9337C2.6843 99.2505 2.86385 100.487 3.43244 100.777L17.9165 107.979Z" fill="white"/>
<path d="M2.72426 97.6245C3.5123 96.0384 4.96868 95.1705 5.98616 95.6693C7.00363 96.1681 7.18318 97.8639 6.39514 99.4499C5.6071 101.036 4.15071 101.904 3.13324 101.405C2.11577 100.896 1.93621 99.2005 2.72426 97.6245Z" fill="white"/>
<path d="M3.75161 102.243C3.42243 102.243 3.10322 102.173 2.81394 102.034C1.43736 101.345 1.11815 99.2804 2.08575 97.3252C2.52466 96.4374 3.16308 95.7192 3.90124 95.2803C4.71921 94.7716 5.58706 94.7017 6.28532 95.0409C6.98359 95.39 7.44245 96.1282 7.55217 97.0758C7.64195 97.9237 7.45242 98.8714 7.01351 99.7592C6.5746 100.647 5.92621 101.365 5.19802 101.804C4.71921 102.093 4.22045 102.243 3.75161 102.243ZM3.34263 97.9337C2.68427 99.2504 2.86382 100.487 3.44238 100.777C3.71171 100.906 4.09077 100.846 4.48978 100.607C4.98854 100.308 5.4474 99.7791 5.76661 99.1407C6.08582 98.5023 6.22547 97.804 6.16562 97.2354C6.11574 96.7766 5.93619 96.4374 5.66686 96.2978C5.39753 96.1681 5.01847 96.2279 4.61946 96.4673C4.13067 96.7566 3.66184 97.2953 3.34263 97.9337Z" fill="white"/>
<path d="M45.827 20.1469C45.6973 19.8776 45.6275 19.289 45.6275 19.289L44.5801 5.10425L54.6251 15.1692L54.6052 15.1792C54.8246 15.3787 55.0241 15.6082 55.1538 15.8775C55.9119 17.5234 54.4356 19.8177 51.862 20.9948C49.2784 22.1719 46.5751 21.7928 45.827 20.1469Z" fill="white"/>
<path d="M48.8895 22.3812C47.1837 22.3812 45.7772 21.7029 45.1987 20.436C45.039 20.0869 44.9592 19.5382 44.9393 19.3687L43.8819 5.15396C43.862 4.86468 44.0216 4.58538 44.2909 4.46567C44.5602 4.34597 44.8695 4.39585 45.0789 4.60533L55.124 14.6703C55.1639 14.7102 55.1938 14.7501 55.2238 14.8C55.4731 15.0494 55.6527 15.3087 55.7824 15.588C56.2512 16.6055 56.0916 17.8125 55.3335 18.9896C54.6452 20.0669 53.508 21.0046 52.1414 21.6231C51.0242 22.1418 49.907 22.3812 48.8895 22.3812ZM46.4655 19.8475C47.0441 21.1143 49.3783 21.3537 51.5628 20.3562C52.69 19.8375 53.6078 19.0894 54.1564 18.2315C54.6452 17.4734 54.7749 16.7352 54.5055 16.1666C54.4357 16.017 54.316 15.8574 54.1265 15.6878C54.0766 15.6379 54.0267 15.5781 53.9868 15.5182L45.4081 6.91958L46.3159 19.219C46.3458 19.4185 46.4156 19.7477 46.4655 19.8475Z" fill="white"/>
<path d="M49.1191 15.0295C51.6927 13.8524 54.386 14.2315 55.1441 15.8774C55.9023 17.5233 54.4259 19.8176 51.8523 20.9947C49.2787 22.1718 46.5854 21.7927 45.8273 20.1468C45.0692 18.4909 46.5455 16.2066 49.1191 15.0295Z" fill="white"/>
<path d="M48.8895 22.3712C48.6002 22.3712 48.3209 22.3512 48.0516 22.3113C46.675 22.1118 45.6476 21.4435 45.1887 20.426C44.7199 19.4085 44.8795 18.2015 45.6376 17.0245C46.3259 15.9471 47.4631 15.0095 48.8297 14.391C51.8023 13.0344 54.8547 13.5631 55.7824 15.588C56.7101 17.613 55.1141 20.2664 52.1414 21.623C51.0641 22.1218 49.9369 22.3712 48.8895 22.3712ZM49.4082 15.6678C48.281 16.1865 47.3633 16.9347 46.8147 17.7926C46.3259 18.5507 46.1962 19.2888 46.4655 19.8574C46.7249 20.426 47.3633 20.8151 48.2611 20.9447C49.2686 21.0844 50.4456 20.8849 51.5629 20.3662C53.7474 19.3686 55.0941 17.4534 54.5155 16.1766C53.927 14.8997 51.5928 14.6703 49.4082 15.6678Z" fill="white"/>
<path d="M238.558 160.628L231.765 158.334L230.358 151.311L235.725 146.583L242.518 148.867L243.935 155.89L238.558 160.628Z" fill="white"/>
<path d="M238.558 161.326C238.478 161.326 238.409 161.316 238.339 161.286L231.546 159.002C231.306 158.922 231.137 158.723 231.087 158.473L229.67 151.451C229.62 151.201 229.71 150.952 229.89 150.792L235.266 146.054C235.456 145.885 235.715 145.835 235.955 145.915L242.748 148.199C242.987 148.279 243.157 148.478 243.207 148.728L244.623 155.75C244.673 156 244.583 156.249 244.404 156.408L239.027 161.147C238.887 161.266 238.718 161.326 238.558 161.326ZM232.374 157.805L238.399 159.84L243.167 155.64L241.91 149.406L235.885 147.371L231.117 151.571L232.374 157.805Z" fill="white"/>
<path d="M238.559 161.326C238.229 161.326 237.94 161.097 237.87 160.768L236.534 154.144L230.129 151.989C229.76 151.87 229.571 151.471 229.691 151.102C229.81 150.733 230.209 150.543 230.578 150.663L237.371 152.947C237.611 153.027 237.78 153.226 237.83 153.476L239.247 160.498C239.327 160.877 239.077 161.246 238.698 161.316C238.648 161.316 238.598 161.326 238.559 161.326Z" fill="white"/>
<path d="M237.142 154.304C236.952 154.304 236.753 154.224 236.613 154.064C236.354 153.775 236.384 153.336 236.673 153.077L242.05 148.338C242.339 148.089 242.778 148.109 243.037 148.398C243.297 148.688 243.267 149.127 242.977 149.386L237.601 154.124C237.471 154.244 237.311 154.304 237.142 154.304Z" fill="white"/>
<path d="M154.377 127.849L154.387 127.869C154.467 127.78 154.547 127.69 154.637 127.61C154.756 127.5 154.876 127.401 155.026 127.321C155.145 127.261 155.315 127.211 155.475 127.171C155.544 127.151 155.624 127.131 155.694 127.121C155.764 127.101 155.824 127.091 155.824 127.091L156.153 127.101C156.203 127.101 156.253 127.101 156.313 127.111L165.27 127.42L160.442 134.972C160.412 135.022 160.382 135.062 160.352 135.111L160.173 135.391L160.163 135.371C160.083 135.461 160.003 135.55 159.914 135.63C159.794 135.74 159.674 135.84 159.525 135.919C159.405 135.979 159.225 136.029 159.066 136.069C158.996 136.089 158.926 136.109 158.846 136.119C158.776 136.139 158.717 136.149 158.717 136.149L158.387 136.139C158.337 136.139 158.288 136.139 158.228 136.129L149.27 135.82L154.098 128.268C154.128 128.219 154.158 128.179 154.188 128.129L154.377 127.849Z" fill="white"/>
<path d="M158.727 136.827C158.717 136.827 158.707 136.827 158.707 136.827L158.378 136.817C158.278 136.817 158.218 136.817 158.158 136.807L149.27 136.508C149.021 136.498 148.791 136.358 148.672 136.139C148.552 135.919 148.562 135.65 148.702 135.441L153.53 127.889C153.53 127.879 153.589 127.8 153.589 127.8L153.789 127.48C153.839 127.401 153.909 127.331 153.978 127.281C154.038 127.221 154.098 127.151 154.168 127.101C154.268 127.002 154.447 126.852 154.687 126.722C154.687 126.722 154.697 126.722 154.697 126.712C154.846 126.632 155.036 126.563 155.305 126.503C155.435 126.463 155.525 126.443 155.604 126.433L155.684 126.413C155.734 126.403 155.804 126.393 155.844 126.403L156.173 126.413C156.273 126.413 156.333 126.413 156.382 126.423L165.28 126.732C165.53 126.742 165.759 126.882 165.879 127.101C165.999 127.321 165.989 127.59 165.849 127.8L161.021 135.341C161.021 135.341 160.991 135.391 160.961 135.441L160.762 135.75C160.712 135.83 160.642 135.899 160.572 135.949C160.512 136.019 160.452 136.079 160.383 136.139C160.233 136.289 160.073 136.408 159.894 136.498C159.874 136.508 159.854 136.518 159.844 136.528C159.704 136.598 159.515 136.668 159.255 136.737C159.126 136.777 159.046 136.787 158.956 136.807L158.866 136.827C158.816 136.827 158.767 136.827 158.727 136.827ZM150.537 135.151L158.268 135.421L158.397 136.129L158.417 135.431L158.667 135.441L158.836 135.401C159.066 135.341 159.156 135.311 159.186 135.291C159.195 135.281 159.205 135.281 159.215 135.271C159.275 135.241 159.345 135.181 159.435 135.101C159.515 135.032 159.565 134.972 159.614 134.912C159.634 134.892 159.654 134.862 159.674 134.842L159.754 134.722L159.814 134.742C159.844 134.722 159.884 134.702 159.924 134.692L159.824 134.633L164.014 128.069L156.283 127.8L156.153 127.091L156.133 127.79L155.884 127.78L155.714 127.82C155.465 127.879 155.375 127.919 155.355 127.929C155.355 127.929 155.345 127.929 155.345 127.939C155.275 127.979 155.205 128.029 155.116 128.119C155.036 128.189 154.986 128.248 154.936 128.308C154.916 128.328 154.896 128.358 154.876 128.378L154.796 128.498L154.747 128.478C154.707 128.498 154.677 128.518 154.637 128.528L154.747 128.598L150.537 135.151Z" fill="white"/>
<path d="M158.527 136.837C157.899 136.837 157.24 136.647 156.572 136.268C155.515 135.67 154.567 134.642 153.899 133.376C153.24 132.109 152.931 130.752 153.031 129.535C153.14 128.208 153.729 127.201 154.687 126.702C155.026 126.523 155.455 126.652 155.634 126.991C155.814 127.331 155.684 127.76 155.345 127.939C154.647 128.308 154.477 129.176 154.437 129.655C154.357 130.602 154.607 131.7 155.145 132.727C155.684 133.755 156.442 134.583 157.27 135.051C157.689 135.291 158.507 135.64 159.205 135.271C159.545 135.091 159.963 135.221 160.153 135.57C160.333 135.909 160.203 136.328 159.864 136.518C159.445 136.737 158.996 136.837 158.527 136.837Z" fill="white"/>
<path d="M41.9267 138.682L45.6974 125.076L40.3606 127.101L39.393 119.38L35.5725 132.817L40.7995 130.832L41.9267 138.682Z" fill="white"/>
<path d="M41.9268 139.381C41.9068 139.381 41.8968 139.381 41.8769 139.381C41.5477 139.361 41.2784 139.111 41.2285 138.782L40.231 131.8L35.812 133.475C35.5626 133.575 35.2833 133.515 35.0937 133.336C34.9042 133.156 34.8244 132.887 34.8942 132.628L38.7247 119.191C38.8145 118.872 39.1237 118.662 39.4529 118.682C39.7821 118.712 40.0514 118.962 40.0913 119.291L40.9392 126.134L45.448 124.428C45.6974 124.338 45.9767 124.388 46.1662 124.568C46.3558 124.747 46.4356 125.016 46.3657 125.276L42.5951 138.882C42.5153 139.171 42.236 139.381 41.9268 139.381ZM40.7996 130.134C40.9193 130.134 41.0489 130.164 41.1587 130.234C41.3382 130.343 41.4679 130.523 41.4978 130.732L42.1462 135.281L44.66 126.223L40.6001 127.76C40.4006 127.839 40.1711 127.81 39.9916 127.71C39.812 127.6 39.6823 127.411 39.6624 127.201L39.1237 122.892L36.6199 131.68L40.5502 130.194C40.63 130.154 40.7198 130.134 40.7996 130.134Z" fill="white"/>
<path d="M131.006 111.021C131.006 111.021 130.118 108.677 128.771 105.325C127.365 101.834 129.07 99.42 131.235 98.9711C133.669 98.4623 135.165 100.527 135.484 102.682C137.469 101.754 140.013 101.874 140.931 104.188C141.749 106.253 140.671 108.996 136.991 109.754C133.449 110.473 131.006 111.021 131.006 111.021Z" fill="white"/>
<path d="M131.005 111.719C130.716 111.719 130.457 111.54 130.357 111.271C130.357 111.271 129.469 108.926 128.123 105.585C127.374 103.719 127.374 101.924 128.133 100.517C128.751 99.3601 129.828 98.5521 131.095 98.2828C132.183 98.0534 133.22 98.2529 134.088 98.8514C134.986 99.4699 135.654 100.497 136.003 101.734C137.22 101.345 138.447 101.345 139.464 101.744C140.442 102.133 141.18 102.891 141.589 103.929C142.068 105.136 141.988 106.482 141.36 107.63C140.602 109.036 139.095 110.024 137.13 110.433C133.609 111.151 131.165 111.699 131.165 111.709C131.105 111.719 131.055 111.719 131.005 111.719ZM131.963 99.5896C131.774 99.5896 131.574 99.6095 131.375 99.6494C130.517 99.829 129.778 100.388 129.36 101.176C128.801 102.213 128.821 103.6 129.419 105.066C130.377 107.44 131.105 109.315 131.444 110.213C132.372 110.004 134.337 109.575 136.851 109.066C138.407 108.747 139.564 108.009 140.133 106.971C140.562 106.183 140.612 105.265 140.292 104.447C140.023 103.769 139.574 103.3 138.946 103.051C138.078 102.702 136.901 102.802 135.784 103.32C135.584 103.41 135.355 103.41 135.155 103.3C134.966 103.201 134.826 103.011 134.796 102.792C134.616 101.585 134.048 100.537 133.28 100.009C132.891 99.7292 132.452 99.5896 131.963 99.5896Z" fill="white"/>
<path d="M102.107 72.4969C98.9651 72.4969 96.3715 69.9831 96.2917 66.821C96.2119 63.609 98.7656 60.9456 101.968 60.8658C103.534 60.8159 105 61.3945 106.117 62.4718C107.245 63.5391 107.883 64.9855 107.923 66.5417C108.003 69.7537 105.459 72.4171 102.247 72.4969C102.207 72.4969 102.157 72.4969 102.107 72.4969ZM102.107 62.2623C102.067 62.2623 102.037 62.2623 101.998 62.2623C100.82 62.2922 99.7132 62.781 98.9052 63.6289C98.0873 64.4868 97.6583 65.604 97.6883 66.7911C97.7481 69.225 99.7531 71.1702 102.217 71.1003C104.651 71.0405 106.586 69.0056 106.526 66.5716C106.476 64.1676 104.501 62.2623 102.107 62.2623Z" fill="white"/>
<path d="M75.0742 89.4946C74.9545 89.4946 74.8348 89.4647 74.7251 89.4049C73.0493 88.4473 71.8423 86.9011 71.3235 85.0357C70.8148 83.1704 71.0542 81.2252 72.0019 79.5493C72.9595 77.8735 74.5056 76.6665 76.371 76.1478C78.2364 75.6291 80.1815 75.8785 81.8574 76.8261C82.1965 77.0156 82.3063 77.4446 82.1167 77.7738C81.9272 78.1129 81.4983 78.2226 81.1691 78.0331C79.8125 77.265 78.2364 77.0655 76.7401 77.4845C75.2438 77.9034 73.9869 78.871 73.2188 80.2277C71.6328 83.0207 72.6103 86.5919 75.4134 88.1779C75.7525 88.3674 75.8623 88.7964 75.6727 89.1256C75.553 89.365 75.3136 89.4946 75.0742 89.4946Z" fill="white"/>
<path d="M114.676 137.525C114.596 137.525 114.516 137.515 114.437 137.485C114.077 137.356 113.888 136.957 114.018 136.588C114.975 133.924 116.92 131.79 119.484 130.583C122.048 129.376 124.93 129.246 127.594 130.203C127.953 130.333 128.142 130.732 128.013 131.101C127.883 131.46 127.484 131.65 127.115 131.52C124.801 130.692 122.297 130.802 120.073 131.849C117.848 132.897 116.162 134.752 115.324 137.066C115.225 137.346 114.965 137.525 114.676 137.525Z" fill="white"/>
<path d="M242.558 16.9848C242.329 16.9848 242.1 16.8651 241.97 16.6556L234.079 4.21651C233.87 3.88733 233.97 3.45839 234.299 3.24891C234.628 3.03943 235.057 3.13919 235.267 3.46837L243.157 15.9075C243.366 16.2367 243.267 16.6656 242.937 16.8751C242.818 16.9549 242.688 16.9848 242.558 16.9848Z" fill="white"/>
<path d="M75.6129 122.223C75.5032 122.223 75.3934 122.193 75.2837 122.143L63.9718 116.089C63.6326 115.909 63.503 115.48 63.6825 115.141C63.8621 114.802 64.291 114.672 64.6302 114.852L75.9421 120.907C76.2812 121.086 76.4109 121.515 76.2313 121.854C76.1017 122.084 75.8623 122.223 75.6129 122.223Z" fill="white"/>
<path d="M66.9247 124.847C66.815 124.847 66.7053 124.817 66.5956 124.767C66.2564 124.588 66.1267 124.159 66.3063 123.819L72.3612 112.508C72.5408 112.168 72.9697 112.039 73.3089 112.218C73.648 112.398 73.7777 112.827 73.5982 113.166L67.5432 124.478C67.4135 124.707 67.1741 124.847 66.9247 124.847Z" fill="white"/>
<path d="M92.5411 137.665C92.3715 137.665 92.2119 137.605 92.0723 137.485C91.783 137.226 91.763 136.787 92.0124 136.498L94.3666 133.864C94.6259 133.575 95.0648 133.545 95.3541 133.805C95.6434 134.064 95.6633 134.503 95.414 134.792L93.0598 137.426C92.9301 137.585 92.7306 137.665 92.5411 137.665Z" fill="white"/>
<path d="M84.7505 146.393C84.5809 146.393 84.4213 146.334 84.2816 146.214C83.9923 145.955 83.9724 145.516 84.2218 145.226L86.5759 142.593C86.8353 142.304 87.2742 142.284 87.5635 142.533C87.8527 142.792 87.8727 143.231 87.6233 143.521L85.2692 146.154C85.1295 146.314 84.94 146.393 84.7505 146.393Z" fill="white"/>
<path d="M97.2794 142.264C97.2296 142.264 97.1797 142.264 97.1398 142.254L93.6784 141.536C93.2993 141.456 93.0599 141.087 93.1397 140.708C93.2195 140.329 93.5886 140.089 93.9677 140.169L97.4291 140.887C97.8081 140.967 98.0475 141.336 97.9677 141.715C97.8979 142.034 97.6086 142.264 97.2794 142.264Z" fill="white"/>
<path d="M85.8278 139.879C85.7779 139.879 85.728 139.879 85.6881 139.869L82.2267 139.151C81.8477 139.071 81.6083 138.702 81.6881 138.323C81.7679 137.944 82.1369 137.705 82.516 137.785L85.9774 138.503C86.3565 138.583 86.5959 138.952 86.5161 139.331C86.4462 139.65 86.157 139.879 85.8278 139.879Z" fill="white"/>
<path d="M92.2118 147.949C91.9225 147.949 91.6432 147.76 91.5435 147.47L90.4362 144.109C90.3165 143.74 90.516 143.351 90.8851 143.231C91.2542 143.111 91.6432 143.311 91.7629 143.68L92.8702 147.042C92.9899 147.411 92.7904 147.8 92.4213 147.919C92.3515 147.929 92.2816 147.949 92.2118 147.949Z" fill="white"/>
<path d="M88.5509 136.837C88.2616 136.837 87.9823 136.647 87.8826 136.358L86.7753 132.997C86.6556 132.627 86.8551 132.238 87.2242 132.119C87.5933 131.999 87.9823 132.199 88.102 132.568L89.2093 135.929C89.329 136.298 89.1295 136.687 88.7604 136.807C88.6906 136.827 88.6207 136.837 88.5509 136.837Z" fill="white"/>
<path d="M59.5429 61.2147C59.5229 61.2147 59.503 61.2147 59.483 61.2147C59.104 61.1748 58.8147 60.8357 58.8546 60.4566L59.7723 50.4714L49.7771 49.5537C49.3981 49.5138 49.1088 49.1746 49.1487 48.7956C49.1886 48.4065 49.5178 48.1272 49.9068 48.1671L60.5903 49.1447C60.9693 49.1846 61.2586 49.5238 61.2187 49.9028L60.2412 60.5863C60.2112 60.9454 59.902 61.2147 59.5429 61.2147Z" fill="white"/>
<path d="M207.097 42.9302C207.037 42.9302 206.977 42.9202 206.917 42.9103L198.937 40.7955C198.707 40.7357 198.528 40.5661 198.448 40.3367C198.378 40.1172 198.418 39.8678 198.568 39.6783L202.618 34.6009L195.665 32.7555C195.296 32.6557 195.066 32.2767 195.166 31.8976C195.266 31.5285 195.635 31.2991 196.024 31.3989L204.004 33.5136C204.234 33.5735 204.413 33.743 204.493 33.9725C204.563 34.1919 204.523 34.4413 204.373 34.6308L200.323 39.7082L207.276 41.5536C207.645 41.6534 207.875 42.0325 207.775 42.4115C207.685 42.7207 207.406 42.9302 207.097 42.9302Z" fill="white"/>
<path d="M127.843 82.911C127.684 82.911 127.524 82.8611 127.394 82.7514L121.778 78.073C121.479 77.8236 121.439 77.3847 121.689 77.0854C121.938 76.7862 122.377 76.7463 122.676 76.9957L127.754 81.2351L131.993 76.1577C132.242 75.8585 132.681 75.8186 132.981 76.068L138.058 80.3074L142.297 75.2301C142.547 74.9308 142.986 74.8909 143.285 75.1403C143.584 75.3897 143.624 75.8286 143.375 76.1278L138.696 81.7439C138.447 82.0431 138.008 82.083 137.709 81.8337L132.631 77.5942L128.392 82.6716C128.242 82.8312 128.043 82.911 127.843 82.911Z" fill="white"/>
<path d="M36.6199 104.876C36.2907 104.876 36.0015 104.647 35.9316 104.318C35.8518 103.939 36.1012 103.57 36.4803 103.5L42.9342 102.213L41.6474 95.7589C41.5676 95.3799 41.817 95.0108 42.1961 94.941L48.65 93.6542L47.3632 87.2002C47.2834 86.8211 47.5328 86.452 47.9119 86.3822L54.3658 85.0954L53.079 78.6414C52.9992 78.2624 53.2486 77.8933 53.6277 77.8235C54.0067 77.7437 54.3758 77.9931 54.4457 78.3721L55.8721 85.5144C55.9519 85.8934 55.7025 86.2625 55.3235 86.3323L48.8695 87.6192L50.1563 94.0731C50.2361 94.4522 49.9867 94.8213 49.6077 94.8911L43.1537 96.1779L44.4405 102.632C44.5203 103.011 44.2709 103.38 43.8919 103.45L36.7496 104.876C36.7097 104.876 36.6698 104.876 36.6199 104.876Z" fill="white"/>
<path d="M173.899 102.562C173.839 102.562 173.779 102.552 173.72 102.542L164.034 99.9687C163.665 99.8689 163.435 99.4899 163.535 99.1108L166.108 89.4249C166.158 89.2453 166.278 89.0957 166.438 88.996C166.597 88.9062 166.787 88.8763 166.966 88.9261L176.652 91.4997C177.021 91.5995 177.251 91.9785 177.151 92.3576L174.577 102.044C174.488 102.363 174.208 102.562 173.899 102.562ZM165.071 98.7916L173.41 101.006L175.625 92.6668L167.286 90.4523L165.071 98.7916Z" fill="white"/>
<path d="M220.972 135.55C220.753 135.55 220.533 135.5 220.334 135.391C219.655 135.031 219.396 134.194 219.745 133.515C219.915 133.186 220.204 132.947 220.563 132.837C220.922 132.727 221.291 132.757 221.62 132.927C221.95 133.096 222.189 133.386 222.299 133.745C222.409 134.094 222.379 134.473 222.209 134.802C221.96 135.281 221.481 135.55 220.972 135.55ZM220.972 134.154V134.164L221.591 134.473L220.972 134.154Z" fill="white"/>
<path d="M229.331 47.8081L223.107 42.1721L229.222 41.5636L228.643 35.9974H234.209L234.169 29.8228L240.394 35.4588L229.331 47.8081Z" fill="white"/>
<path d="M229.331 48.5064C229.162 48.5064 228.992 48.4465 228.862 48.3268L222.638 42.6908C222.428 42.5013 222.359 42.212 222.438 41.9527C222.528 41.6933 222.758 41.5038 223.037 41.4739L228.443 40.9352L227.935 36.0673C227.915 35.8678 227.975 35.6782 228.114 35.5286C228.244 35.379 228.433 35.2992 228.633 35.2992H233.501L233.471 29.8228C233.471 29.5435 233.631 29.2941 233.89 29.1844C234.139 29.0746 234.439 29.1145 234.638 29.3041L240.863 34.9401C241.152 35.1994 241.172 35.6383 240.912 35.9276L229.85 48.277C229.73 48.4166 229.551 48.4964 229.361 48.5064C229.361 48.5064 229.351 48.5064 229.331 48.5064ZM224.743 42.7108L229.281 46.8206L239.406 35.5087L234.877 31.3989L234.907 35.9875C234.907 36.177 234.838 36.3566 234.708 36.4862C234.578 36.6159 234.399 36.6957 234.209 36.6957H229.421L229.92 41.4938C229.94 41.6833 229.88 41.8629 229.77 42.0125C229.65 42.1522 229.481 42.2519 229.301 42.2619L224.743 42.7108Z" fill="white"/>
<path d="M243.556 116.129C243.516 116.129 243.486 116.129 243.446 116.119L234.169 114.622C233.91 114.582 233.69 114.393 233.611 114.143L230.768 105.186C230.698 104.956 230.748 104.697 230.907 104.517C231.067 104.338 231.306 104.248 231.546 104.288L240.823 105.794C241.082 105.834 241.292 106.024 241.371 106.273L244.214 115.231C244.284 115.46 244.234 115.72 244.075 115.899C243.955 116.039 243.755 116.129 243.556 116.129ZM234.818 113.315L242.548 114.562L240.174 107.091L232.444 105.844L234.818 113.315Z" fill="white"/>
<path d="M170.029 18.5908L185.131 16.6456C186.188 16.5059 187.216 17.7329 187.425 19.3888C187.635 21.0347 186.956 22.4911 185.899 22.6208L170.797 24.5659C169.739 24.7056 168.712 23.4786 168.502 21.8227C168.293 20.1768 168.971 18.7304 170.029 18.5908Z" fill="white"/>
<path d="M170.637 25.2842C169.27 25.2842 168.063 23.8677 167.804 21.9225C167.684 20.9948 167.804 20.0771 168.153 19.3489C168.542 18.5309 169.191 18.0023 169.939 17.9025L185.041 15.9573C186.508 15.7778 187.854 17.2342 188.124 19.299C188.243 20.2267 188.124 21.1445 187.774 21.8726C187.385 22.6906 186.737 23.2193 185.989 23.3191L170.886 25.2642C170.807 25.2742 170.717 25.2842 170.637 25.2842ZM185.291 17.3339C185.271 17.3339 185.241 17.3339 185.221 17.3339L170.118 19.2791C169.859 19.309 169.6 19.5484 169.42 19.9375C169.191 20.4262 169.111 21.0746 169.191 21.733C169.36 23.0497 170.128 23.9375 170.707 23.8777L185.809 21.9325C186.069 21.9026 186.328 21.6632 186.508 21.2741C186.737 20.7853 186.817 20.137 186.737 19.4786C186.577 18.2117 185.859 17.3339 185.291 17.3339Z" fill="white"/>
<path d="M187.435 19.3888C187.645 21.0447 186.966 22.4911 185.909 22.6208C184.852 22.7604 183.824 21.5335 183.615 19.8776C183.405 18.2217 184.084 16.7753 185.141 16.6456C186.198 16.516 187.226 17.7429 187.435 19.3888Z" fill="white"/>
<path d="M185.749 23.339C185.081 23.339 184.423 22.9998 183.904 22.3814C183.385 21.7629 183.036 20.905 182.916 19.9774C182.797 19.0497 182.916 18.1319 183.266 17.4037C183.655 16.5858 184.303 16.0571 185.051 15.9573C186.517 15.7778 187.864 17.2342 188.133 19.299C188.253 20.2267 188.133 21.1445 187.784 21.8726C187.395 22.6906 186.747 23.2193 185.999 23.3191C185.919 23.329 185.829 23.339 185.749 23.339ZM185.29 17.3339C185.271 17.3339 185.241 17.3339 185.221 17.3339C184.961 17.3638 184.702 17.6033 184.522 17.9923C184.293 18.4811 184.213 19.1295 184.293 19.7878C184.383 20.4462 184.622 21.0547 184.971 21.4736C185.241 21.8028 185.56 21.9724 185.809 21.9325C186.069 21.9026 186.328 21.6632 186.507 21.2741C186.737 20.7853 186.817 20.137 186.737 19.4786C186.577 18.2117 185.859 17.3339 185.29 17.3339Z" fill="white"/>
<path d="M204.722 89.3949C204.982 89.2452 205.56 89.1355 205.56 89.1355L219.546 87.0208L210.318 97.7541L210.308 97.7341C210.129 97.9735 209.919 98.183 209.65 98.3227C208.074 99.1905 205.69 97.9037 204.333 95.4398C202.977 92.976 203.146 90.2727 204.722 89.3949Z" fill="white"/>
<path d="M208.563 99.2902C208.234 99.2902 207.885 99.2404 207.535 99.1406C206.079 98.7217 204.653 97.4648 203.725 95.779C202.149 92.936 202.438 89.8637 204.383 88.7863C204.712 88.6068 205.261 88.4871 205.421 88.4472L219.436 86.3324C219.725 86.2925 220.014 86.4322 220.154 86.6816C220.294 86.9409 220.264 87.2502 220.074 87.4796L210.847 98.2129C210.807 98.2528 210.767 98.2927 210.727 98.3226C210.498 98.592 210.259 98.7915 209.989 98.9311C209.56 99.1705 209.082 99.2902 208.563 99.2902ZM205.062 90.0133C203.845 90.6916 203.795 93.0158 204.952 95.1106C205.7 96.4673 206.837 97.4947 207.934 97.8139C208.303 97.9236 208.842 97.9935 209.331 97.7241C209.481 97.6443 209.62 97.5147 209.77 97.3152C209.82 97.2553 209.87 97.2054 209.929 97.1655L217.8 88.0083L205.68 89.8437C205.48 89.8637 205.161 89.9534 205.062 90.0133Z" fill="white"/>
<path d="M210.049 92.2776C211.416 94.7415 211.236 97.4448 209.66 98.3226C208.084 99.1904 205.7 97.9036 204.343 95.4398C202.976 92.9759 203.156 90.2726 204.732 89.3948C206.298 88.5269 208.682 89.8137 210.049 92.2776Z" fill="white"/>
<path d="M208.563 99.2902C208.234 99.2902 207.885 99.2403 207.535 99.1406C206.079 98.7216 204.653 97.4647 203.725 95.7789C202.149 92.936 202.438 89.8636 204.383 88.7863C205.361 88.2476 206.578 88.3075 207.795 88.9758C208.912 89.5843 209.929 90.6417 210.658 91.9484C212.234 94.7914 211.944 97.8637 209.999 98.9411C209.56 99.1705 209.082 99.2902 208.563 99.2902ZM205.82 89.8237C205.54 89.8237 205.281 89.8836 205.062 90.0132C203.845 90.6816 203.795 93.0158 204.942 95.1106C205.69 96.4672 206.827 97.4946 207.924 97.8139C208.294 97.9236 208.832 97.9934 209.321 97.7241C210.538 97.0557 210.588 94.7215 209.441 92.6267C208.842 91.5494 208.024 90.6915 207.136 90.2127C206.668 89.9534 206.219 89.8237 205.82 89.8237Z" fill="white"/>
<path d="M104.342 31.3989L111.654 30.8901L115.743 36.965L112.541 43.5487L105.23 44.0574L101.13 37.9825L104.342 31.3989Z" fill="white"/>
<path d="M105.229 44.7557C105 44.7557 104.781 44.636 104.651 44.4464L100.551 38.3715C100.411 38.1621 100.391 37.9027 100.501 37.6733L103.713 31.0896C103.823 30.8602 104.042 30.7205 104.292 30.7006L111.604 30.1919C111.863 30.1719 112.092 30.2916 112.232 30.5011L116.332 36.576C116.472 36.7855 116.491 37.0448 116.382 37.2743L113.17 43.8579C113.06 44.0873 112.841 44.227 112.591 44.2469L105.279 44.7557C105.259 44.7557 105.249 44.7557 105.229 44.7557ZM101.938 37.9227L105.589 43.3292L112.092 42.8704L114.955 37.0049L111.304 31.5984L104.801 32.0572L101.938 37.9227Z" fill="white"/>
<path d="M108.441 38.1721C108.212 38.1721 107.993 38.0524 107.863 37.8629L103.763 31.788C103.544 31.4687 103.633 31.0298 103.953 30.8204C104.272 30.6109 104.711 30.6907 104.92 31.0099L108.791 36.7456L115.693 36.2668C116.083 36.2369 116.412 36.5262 116.442 36.9152C116.472 37.3043 116.182 37.6334 115.793 37.6634L108.481 38.1721C108.471 38.1721 108.451 38.1721 108.441 38.1721Z" fill="white"/>
<path d="M105.229 44.7557C105.13 44.7557 105.02 44.7358 104.92 44.6859C104.571 44.5163 104.431 44.0974 104.601 43.7482L107.813 37.1646C107.982 36.8155 108.401 36.6758 108.751 36.8454C109.1 37.015 109.239 37.4339 109.07 37.7831L105.858 44.3667C105.738 44.6161 105.489 44.7557 105.229 44.7557Z" fill="white"/>
<path d="M29.7069 69.1751L29.687 69.1551C29.6471 69.2649 29.5972 69.3646 29.5373 69.4644C29.4575 69.5941 29.3777 69.7237 29.268 69.8335C29.1782 69.9232 29.0286 70.023 28.8989 70.1028C28.8391 70.1427 28.7792 70.1826 28.7094 70.2125C28.6496 70.2424 28.5997 70.2724 28.5997 70.2724L28.3004 70.3522C28.2505 70.3621 28.2106 70.3821 28.1508 70.3921L19.9113 72.6066L22.2056 64.387C22.2155 64.3371 22.2355 64.2872 22.2455 64.2374L22.3253 63.9381L22.3452 63.9581C22.3851 63.8483 22.435 63.7486 22.4948 63.6488C22.5746 63.5191 22.6544 63.3895 22.7642 63.2797C22.8539 63.19 23.0036 63.0902 23.1333 63.0104C23.1931 62.9705 23.253 62.9306 23.3228 62.9007C23.3926 62.8708 23.4425 62.8508 23.4425 62.8508L23.7417 62.771C23.7916 62.761 23.8315 62.7411 23.8814 62.7311L32.1209 60.5166L29.8266 68.7362C29.8167 68.7861 29.7967 68.8359 29.7867 68.8858L29.7069 69.1751Z" fill="white"/>
<path d="M19.9115 73.3048C19.7319 73.3048 19.5523 73.235 19.4127 73.0953C19.2331 72.9158 19.1733 72.6564 19.2331 72.417L21.5274 64.1974C21.5274 64.1874 21.5574 64.0977 21.5574 64.0877L21.6471 63.7485C21.6771 63.6588 21.717 63.5789 21.7668 63.5091C21.8067 63.4293 21.8466 63.3595 21.8865 63.2897C21.9863 63.1101 22.106 62.9505 22.2357 62.8109C22.2457 62.8009 22.2556 62.7909 22.2556 62.7809C22.3753 62.6612 22.5349 62.5515 22.7544 62.4118C22.8641 62.342 22.9339 62.3021 23.0038 62.2722L23.0736 62.2323C23.1235 62.2024 23.1734 62.1824 23.2232 62.1724L23.5225 62.0926C23.6123 62.0627 23.6621 62.0527 23.722 62.0428L31.9017 59.8382C32.1411 59.7784 32.4004 59.8482 32.58 60.0178C32.7595 60.1973 32.8194 60.4567 32.7595 60.6961L30.4652 68.9157C30.4652 68.9257 30.4353 69.0154 30.4353 69.0254L30.3356 69.3646C30.3056 69.4544 30.2657 69.5342 30.2159 69.604C30.176 69.6838 30.1361 69.7536 30.0962 69.8234C29.9964 70.003 29.8767 70.1626 29.747 70.2923C29.737 70.3022 29.7271 70.3122 29.7171 70.3222C29.5974 70.4319 29.4478 70.5516 29.2183 70.6913C29.1086 70.7611 29.0388 70.801 28.969 70.8409L28.9291 70.8908C28.8792 70.9207 28.8293 70.9407 28.7794 70.9506L28.4802 71.0304C28.3904 71.0604 28.3405 71.0703 28.2807 71.0803L20.101 73.2848C20.0411 73.2948 19.9813 73.3048 19.9115 73.3048ZM22.7843 64.5066L22.894 64.5366L20.9189 71.619L27.9714 69.7237L28.3006 70.3621L28.1211 69.6838L28.4802 69.5441C28.6697 69.4244 28.7495 69.3746 28.7695 69.3546L28.7794 69.3446C28.8293 69.2948 28.8792 69.2249 28.939 69.1252C28.9889 69.0454 29.0188 68.9755 29.0488 68.9057C29.0587 68.8758 29.0687 68.8558 29.0887 68.8259L29.1286 68.6962L29.1784 68.7062C29.2084 68.6763 29.2283 68.6464 29.2582 68.6264L29.1485 68.5965L31.1236 61.5141L23.5624 63.5789C23.3629 63.6987 23.2931 63.7585 23.2731 63.7785L23.2631 63.7884C23.2133 63.8383 23.1634 63.9081 23.1035 64.0079C23.0536 64.0877 23.0237 64.1575 22.9938 64.2273C22.9838 64.2573 22.9738 64.2772 22.9539 64.3071L22.914 64.4368L22.8641 64.4268C22.8442 64.4568 22.8142 64.4867 22.7843 64.5066Z" fill="white"/>
<path d="M29.2682 70.5416C29.0887 70.5416 28.9091 70.4718 28.7695 70.3321C28.5001 70.0628 28.5001 69.6139 28.7695 69.3446C29.2882 68.8259 29.2084 68.0079 29.1086 67.559C28.9191 66.6812 28.3904 65.7635 27.6124 64.9754C26.8343 64.1974 25.9265 63.6487 25.0487 63.4592C24.5998 63.3595 23.7819 63.2697 23.2632 63.7884C22.9838 64.0577 22.5449 64.0577 22.2756 63.7884C22.0063 63.5191 22.0063 63.0702 22.2756 62.8008C23.0138 62.0726 24.1011 61.8233 25.358 62.1026C26.4951 62.3619 27.6523 63.0303 28.6099 63.9979C29.5675 64.9655 30.2358 66.1326 30.4752 67.2697C30.7446 68.5266 30.4852 69.6139 29.747 70.3421C29.6174 70.4718 29.4478 70.5416 29.2682 70.5416Z" fill="white"/>
<path d="M176.283 46.5513L167.086 56.6562L172.592 57.2347L170.048 64.3271L179.216 54.3818L173.829 53.8232L176.283 46.5513Z" fill="white"/>
<path d="M170.048 65.0254C169.929 65.0254 169.799 64.9954 169.689 64.9256C169.4 64.756 169.28 64.4069 169.39 64.0977L171.635 57.8432L167.016 57.3544C166.757 57.3245 166.527 57.1549 166.437 56.9055C166.348 56.6561 166.398 56.3868 166.577 56.1873L175.774 46.0824C175.994 45.833 176.363 45.7832 176.642 45.9527C176.931 46.1223 177.061 46.4615 176.951 46.7807L174.777 53.2247L179.295 53.7035C179.555 53.7334 179.784 53.903 179.874 54.1524C179.964 54.4017 179.914 54.6811 179.734 54.8706L170.567 64.8059C170.428 64.9456 170.238 65.0254 170.048 65.0254ZM168.532 56.1075L172.662 56.5464C172.871 56.5664 173.071 56.6861 173.181 56.8656C173.29 57.0452 173.32 57.2746 173.25 57.4741L171.874 61.3246L177.769 54.9304L173.769 54.5115C173.56 54.4915 173.37 54.3718 173.25 54.1923C173.131 54.0127 173.111 53.7933 173.181 53.5938L174.567 49.484L168.532 56.1075Z" fill="white"/>
<path d="M88.9499 174.344C88.9499 174.344 86.6755 172.977 83.3737 171.072C79.9323 169.087 79.7627 165.975 81.2689 164.189C82.9548 162.174 85.5483 162.912 87.2242 164.498C88.2716 162.434 90.4561 160.867 92.7205 162.194C94.7455 163.371 95.6432 166.354 93.0796 169.386C90.6257 172.289 88.9499 174.344 88.9499 174.344Z" fill="white"/>
<path d="M88.9499 175.042C88.8302 175.042 88.7005 175.012 88.5908 174.942C88.5709 174.932 86.2865 173.556 83.0346 171.681C81.2092 170.633 80.0421 169.147 79.7528 167.491C79.5134 166.144 79.8725 164.778 80.7503 163.74C81.4984 162.842 82.476 162.344 83.5733 162.274C84.7204 162.204 85.9574 162.623 87.0546 163.431C87.8128 162.304 88.8302 161.486 89.9375 161.167C90.9949 160.857 92.0821 160.997 93.0896 161.586C94.2567 162.264 95.0647 163.431 95.2942 164.778C95.5735 166.434 94.9849 168.219 93.6183 169.835C91.1844 172.698 89.5085 174.763 89.4886 174.783C89.3589 174.952 89.1494 175.042 88.9499 175.042ZM83.8027 163.67C83.7528 163.67 83.693 163.67 83.6431 163.67C82.9249 163.71 82.3064 164.039 81.8077 164.638C81.1992 165.356 80.9498 166.314 81.1194 167.251C81.3388 168.488 82.2665 169.626 83.7229 170.473C86.087 171.83 87.9325 172.927 88.7903 173.436C89.4188 172.668 90.7953 171.002 92.551 168.927C93.6383 167.641 94.1271 166.254 93.9076 165.017C93.748 164.079 93.1894 163.271 92.3714 162.793C91.6931 162.394 91.0048 162.304 90.3165 162.503C89.3589 162.783 88.4412 163.65 87.8527 164.808C87.7529 165.007 87.5634 165.137 87.3539 165.177C87.1344 165.217 86.915 165.147 86.7554 164.997C85.8476 164.159 84.7603 163.67 83.8027 163.67Z" fill="white"/>
<path d="M13.4974 40.1671C13.4376 40.1671 13.3677 40.1571 13.2979 40.1372C12.9288 40.0274 12.7094 39.6384 12.8191 39.2693C12.9887 38.6908 12.9188 38.0923 12.6296 37.5636C12.3403 37.0349 11.8615 36.6558 11.2929 36.4962C10.7143 36.3266 10.1158 36.3965 9.58712 36.6857C9.05843 36.975 8.67938 37.4538 8.51977 38.0224C8.41004 38.3915 8.02101 38.611 7.65193 38.5012C7.28284 38.3915 7.07336 38.0025 7.17312 37.6334C7.44245 36.6957 8.06091 35.9276 8.90881 35.4588C9.7567 34.99 10.7442 34.8802 11.6719 35.1496C12.6096 35.4189 13.3777 36.0374 13.8465 36.8852C14.3154 37.7331 14.4251 38.7207 14.1558 39.6484C14.076 39.9676 13.7967 40.1671 13.4974 40.1671Z" fill="white"/>
<path d="M13.228 46.2021C13.1681 46.2021 13.0983 46.1921 13.0285 46.1722C11.0135 45.5836 9.29774 44.4365 8.19049 42.9302C7.01342 41.3142 6.64433 39.4389 7.16305 37.6434C7.27277 37.2743 7.66181 37.0548 8.03089 37.1646C8.39997 37.2743 8.61943 37.6633 8.5097 38.0324C8.00096 39.788 8.66931 41.2245 9.31769 42.1123C10.2454 43.3691 11.6918 44.3367 13.4175 44.8355C13.7866 44.9452 14.0061 45.3343 13.8963 45.7033C13.8165 46.0026 13.5372 46.2021 13.228 46.2021Z" fill="white"/>
<path d="M7.46238 44.1571C6.55463 44.1571 5.60699 44.0275 4.64936 43.7481C4.28028 43.6384 4.0708 43.2494 4.17055 42.8803C4.28028 42.5112 4.66931 42.2918 5.0384 42.4015C8.6594 43.4489 12.0011 42.1022 12.8191 39.2792C12.9288 38.9102 13.3178 38.7007 13.6869 38.8004C14.056 38.9102 14.2755 39.2992 14.1657 39.6683C13.3478 42.4713 10.6844 44.1571 7.46238 44.1571Z" fill="white"/>
<path d="M4.84878 43.7682C4.78893 43.7682 4.71911 43.7583 4.64928 43.7383C3.65176 43.449 2.71409 42.9802 1.88614 42.3518C1.57691 42.1223 1.51706 41.6834 1.74649 41.3742C1.97592 41.0649 2.41483 41.0051 2.72406 41.2345C3.42233 41.7632 4.2004 42.1522 5.03831 42.3917C5.4074 42.5014 5.62685 42.8904 5.51712 43.2595C5.42735 43.5687 5.14804 43.7682 4.84878 43.7682Z" fill="white"/>
<path d="M21.8764 42.6012C21.8166 42.6012 21.7468 42.5912 21.6769 42.5713C21.3078 42.4615 21.0984 42.0725 21.1981 41.7034C21.3677 41.1248 21.2979 40.5263 21.0086 39.9976C20.7193 39.469 20.2405 39.0899 19.6719 38.9303C19.0933 38.7607 18.4948 38.8305 17.9661 39.1198C17.4375 39.4091 17.0584 39.8879 16.8988 40.4565C16.7891 40.8256 16.4 41.045 16.031 40.9353C15.6619 40.8256 15.4524 40.4366 15.5521 40.0675C15.8215 39.1298 16.4399 38.3617 17.2878 37.8929C18.1357 37.424 19.1233 37.3143 20.051 37.5836C20.9886 37.853 21.7567 38.4714 22.2256 39.3193C22.6944 40.1672 22.8041 41.1548 22.5348 42.0825C22.465 42.4017 22.1857 42.6012 21.8764 42.6012Z" fill="white"/>
<path d="M21.6171 48.6261C21.5473 48.6261 21.4874 48.6161 21.4176 48.5961C17.0385 47.3293 14.5148 43.6584 15.5622 40.0673C15.6719 39.6982 16.0609 39.4888 16.43 39.5885C16.7991 39.6982 17.0086 40.0873 16.9088 40.4564C16.0909 43.2893 18.1956 46.2121 21.8166 47.2595C22.1857 47.3692 22.3952 47.7582 22.2954 48.1273C22.1957 48.4266 21.9164 48.6261 21.6171 48.6261Z" fill="white"/>
<path d="M15.8016 46.5712C14.8939 46.5712 13.9562 46.4415 13.0385 46.1722C12.6694 46.0625 12.45 45.6735 12.5597 45.3044C12.6694 44.9353 13.0585 44.7258 13.4275 44.8256C15.1433 45.3243 16.8889 45.2844 18.3453 44.7158C19.3728 44.3168 20.6995 43.459 21.2082 41.7033C21.3179 41.3342 21.707 41.1248 22.0761 41.2245C22.4451 41.3342 22.6546 41.7233 22.5549 42.0924C22.0362 43.8879 20.7194 45.2844 18.864 46.0126C17.9164 46.3817 16.879 46.5712 15.8016 46.5712Z" fill="white"/>
<path d="M23.782 48.9353C22.9839 48.9353 22.1959 48.8256 21.4278 48.5962C21.0587 48.4864 20.8492 48.0974 20.949 47.7283C21.0587 47.3592 21.4378 47.1398 21.8168 47.2495C22.6548 47.4889 23.5226 47.5787 24.3904 47.4989C24.7695 47.469 25.1087 47.7483 25.1486 48.1373C25.1785 48.5263 24.8992 48.8555 24.5102 48.8954C24.2608 48.9254 24.0214 48.9353 23.782 48.9353Z" fill="white"/>
<path d="M6.17548 138.603C5.04828 138.603 3.91111 138.293 2.89363 137.655C0.000817652 135.839 -0.867027 132.009 0.948464 129.126C2.76396 126.233 6.58447 125.355 9.47728 127.181C12.3701 128.996 13.2379 132.827 11.4225 135.71C10.2553 137.575 8.24035 138.603 6.17548 138.603ZM6.19543 127.63C4.5994 127.63 3.04326 128.428 2.13552 129.874C0.729009 132.109 1.40732 135.071 3.64177 136.478C4.72907 137.156 6.0059 137.376 7.25281 137.096C8.49971 136.807 9.56706 136.059 10.2454 134.972C11.6519 132.737 10.9736 129.774 8.73912 128.368C7.9411 127.869 7.06328 127.63 6.19543 127.63Z" fill="white"/>
<path d="M259.915 168.877C259.716 168.877 259.526 168.788 259.386 168.638C259.227 168.458 259.177 168.199 259.247 167.97L262.05 159.002C262.13 158.752 262.339 158.563 262.598 158.523L271.865 156.977C272.105 156.937 272.344 157.027 272.504 157.206C272.663 157.386 272.713 157.645 272.643 157.875L269.84 166.842C269.761 167.092 269.551 167.281 269.292 167.321L260.025 168.867C259.985 168.877 259.955 168.877 259.915 168.877ZM263.257 159.83L260.923 167.301L268.643 166.014L270.978 158.543L263.257 159.83Z" fill="white"/>
<path d="M271.736 108.198L258.15 101.445C257.202 100.976 257.022 99.3899 257.761 97.9036C258.499 96.4173 259.865 95.5993 260.823 96.0682L274.409 102.821C275.357 103.29 275.536 104.876 274.798 106.363C274.05 107.849 272.684 108.677 271.736 108.198Z" fill="white"/>
<path d="M272.324 109.036C272.005 109.036 271.706 108.966 271.427 108.827L257.84 102.073C257.172 101.744 256.733 101.036 256.633 100.128C256.544 99.3301 256.723 98.4224 257.142 97.5945C257.561 96.7565 258.169 96.0682 258.858 95.6593C259.636 95.1904 260.464 95.1206 261.132 95.4498L274.718 102.203C275.387 102.532 275.826 103.24 275.925 104.148C276.015 104.946 275.836 105.854 275.417 106.682C274.878 107.769 274.01 108.597 273.092 108.906C272.833 108.986 272.574 109.036 272.324 109.036ZM260.234 96.6368C260.035 96.6368 259.805 96.7067 259.576 96.8563C259.117 97.1356 258.688 97.6244 258.389 98.2229C258.1 98.8114 257.96 99.4598 258.02 99.9885C258.07 100.407 258.229 100.717 258.459 100.826L272.045 107.58C272.205 107.659 272.414 107.659 272.644 107.58C273.212 107.39 273.791 106.812 274.16 106.063C274.449 105.475 274.589 104.826 274.529 104.298C274.489 103.879 274.319 103.57 274.09 103.46L260.504 96.7067C260.434 96.6568 260.334 96.6368 260.234 96.6368Z" fill="white"/>
<path d="M257.77 97.9036C258.509 96.4173 259.875 95.5993 260.833 96.0682C261.78 96.537 261.96 98.123 261.222 99.6094C260.484 101.096 259.117 101.914 258.159 101.445C257.202 100.976 257.032 99.3899 257.77 97.9036Z" fill="white"/>
<path d="M258.738 102.273C258.429 102.273 258.13 102.203 257.84 102.063C257.172 101.734 256.733 101.026 256.633 100.118C256.544 99.3202 256.723 98.4124 257.142 97.5845C258.07 95.7291 259.825 94.7815 261.132 95.4398C262.449 96.0982 262.758 98.0633 261.83 99.9187C261.112 101.385 259.865 102.273 258.738 102.273ZM260.244 96.6369C259.696 96.6369 258.888 97.2154 258.399 98.2129C258.11 98.8015 257.97 99.4499 258.03 99.9786C258.08 100.398 258.239 100.707 258.469 100.816C258.987 101.076 260.005 100.477 260.593 99.3002C261.182 98.1232 261.042 96.9461 260.524 96.6967C260.434 96.6568 260.344 96.6369 260.244 96.6369Z" fill="white"/>
<path d="M267.985 40.1372C267.925 40.1372 267.856 40.1273 267.796 40.1073C267.427 39.9976 267.207 39.6085 267.317 39.2395C267.666 38.0325 266.968 36.7656 265.761 36.4165C264.554 36.0673 263.287 36.7656 262.938 37.9726C262.828 38.3417 262.449 38.5512 262.07 38.4514C261.701 38.3417 261.481 37.9527 261.591 37.5836C262.16 35.6384 264.205 34.5112 266.15 35.0798C268.095 35.6484 269.222 37.6833 268.654 39.6385C268.564 39.9377 268.284 40.1372 267.985 40.1372Z" fill="white"/>
<path d="M267.716 46.242C267.656 46.242 267.586 46.232 267.516 46.2121C265.481 45.6235 263.736 44.4564 262.618 42.9302C261.421 41.2943 261.052 39.399 261.581 37.5735C261.691 37.2045 262.07 36.985 262.449 37.0947C262.818 37.2045 263.027 37.5935 262.928 37.9626C262.409 39.7481 263.087 41.2045 263.746 42.1023C264.683 43.3791 266.16 44.3667 267.905 44.8654C268.274 44.9752 268.494 45.3642 268.384 45.7333C268.294 46.0525 268.015 46.242 267.716 46.242Z" fill="white"/>
<path d="M261.87 44.1773C260.953 44.1773 259.995 44.0376 259.018 43.7583C258.648 43.6486 258.439 43.2596 258.539 42.8905C258.648 42.5214 259.027 42.302 259.407 42.4117C263.077 43.479 266.469 42.1124 267.307 39.2396C267.417 38.8705 267.796 38.651 268.175 38.7607C268.544 38.8705 268.763 39.2595 268.654 39.6286C267.826 42.4715 265.122 44.1773 261.87 44.1773Z" fill="white"/>
<path d="M259.217 43.7882C259.157 43.7882 259.087 43.7782 259.017 43.7583C258.01 43.469 257.062 42.9902 256.214 42.3518C255.905 42.1223 255.845 41.6834 256.075 41.3742C256.304 41.0649 256.743 41.0051 257.052 41.2345C257.761 41.7732 258.549 42.1622 259.396 42.4116C259.766 42.5213 259.975 42.9104 259.875 43.2794C259.795 43.5887 259.516 43.7882 259.217 43.7882Z" fill="white"/>
<path d="M276.484 42.6011C276.424 42.6011 276.355 42.5911 276.285 42.5712C275.916 42.4614 275.706 42.0724 275.806 41.7033C276.155 40.4963 275.457 39.2295 274.25 38.8803C273.043 38.5312 271.776 39.2295 271.427 40.4365C271.317 40.8056 270.938 41.025 270.559 40.9153C270.19 40.8056 269.98 40.4165 270.08 40.0474C270.639 38.1023 272.694 36.9751 274.629 37.5437C275.576 37.813 276.355 38.4414 276.823 39.2993C277.292 40.1572 277.402 41.1547 277.133 42.0924C277.063 42.4016 276.783 42.6011 276.484 42.6011Z" fill="white"/>
<path d="M276.215 48.7059C276.155 48.7059 276.085 48.6959 276.015 48.676C273.98 48.0874 272.235 46.9203 271.117 45.3941C269.92 43.7582 269.551 41.8629 270.08 40.0374C270.19 39.6683 270.569 39.4489 270.948 39.5586C271.317 39.6683 271.526 40.0574 271.427 40.4264C270.908 42.212 271.586 43.6684 272.245 44.5662C273.182 45.843 274.659 46.8305 276.404 47.3293C276.773 47.439 276.983 47.8281 276.883 48.1971C276.793 48.5064 276.514 48.7059 276.215 48.7059Z" fill="white"/>
<path d="M270.319 46.6212C269.402 46.6212 268.454 46.4815 267.516 46.2122C267.147 46.1025 266.938 45.7134 267.037 45.3443C267.147 44.9753 267.526 44.7558 267.905 44.8655C269.651 45.3743 271.427 45.3344 272.893 44.7558C273.93 44.3468 275.287 43.489 275.796 41.6934C275.905 41.3243 276.295 41.1049 276.664 41.2146C277.033 41.3243 277.252 41.7134 277.142 42.0824C276.614 43.8979 275.287 45.3144 273.402 46.0526C272.464 46.4416 271.407 46.6212 270.319 46.6212Z" fill="white"/>
<path d="M278.409 49.0252C277.601 49.0252 276.803 48.9154 276.025 48.686C275.656 48.5763 275.447 48.1873 275.547 47.8182C275.656 47.4491 276.035 47.2296 276.414 47.3394C277.262 47.5887 278.14 47.6785 279.028 47.5987C279.407 47.5688 279.746 47.8481 279.786 48.2371C279.816 48.6262 279.537 48.9553 279.148 48.9952C278.898 49.0152 278.649 49.0252 278.409 49.0252Z" fill="white"/>
<path d="M260.663 138.303C259.596 138.303 258.509 138.014 257.541 137.406C254.798 135.68 253.96 132.039 255.686 129.286C257.411 126.533 261.052 125.705 263.805 127.43C266.559 129.156 267.387 132.797 265.661 135.55C264.544 137.326 262.618 138.303 260.663 138.303ZM258.279 136.219C260.374 137.535 263.157 136.897 264.474 134.802C265.112 133.785 265.312 132.578 265.052 131.41C264.783 130.243 264.075 129.246 263.057 128.607C262.04 127.969 260.833 127.769 259.666 128.029C258.499 128.298 257.501 129.006 256.863 130.024C255.546 132.129 256.184 134.902 258.279 136.219Z" fill="white"/>
<path d="M33.0988 29.4737C33.0589 29.4737 33.019 29.4737 32.9791 29.4638C30.1361 28.975 27.6523 27.4089 25.9864 25.0547C24.3206 22.7005 23.6722 19.8377 24.161 16.9847C24.2308 16.6057 24.5899 16.3463 24.969 16.4162C25.348 16.486 25.6074 16.8451 25.5376 17.2242C25.1086 19.698 25.6772 22.1918 27.1336 24.2467C28.59 26.3016 30.7446 27.6582 33.2285 28.0872C33.6075 28.157 33.8669 28.5161 33.797 28.8952C33.7272 29.2343 33.428 29.4737 33.0988 29.4737Z" fill="white"/>
<path d="M206.498 13.8625C206.209 13.8625 205.929 13.6729 205.84 13.3836C205.72 13.0146 205.919 12.6255 206.278 12.4959C207.725 12.017 208.892 10.9996 209.57 9.64294C210.249 8.28631 210.358 6.74015 209.879 5.29374C209.401 3.84733 208.383 2.68023 207.027 2.00192C205.67 1.3236 204.124 1.21387 202.677 1.69268C202.308 1.81239 201.919 1.61288 201.8 1.25377C201.68 0.884692 201.879 0.495658 202.238 0.36598C204.034 -0.232534 205.959 -0.0928805 207.655 0.755014C209.351 1.60291 210.608 3.05929 211.206 4.85483C211.805 6.65037 211.665 8.57559 210.817 10.2714C209.969 11.9672 208.513 13.224 206.717 13.8226C206.648 13.8525 206.568 13.8625 206.498 13.8625Z" fill="white"/>
<path d="M106.028 14.8001C105.848 14.8001 105.678 14.7303 105.539 14.6006C105.259 14.3313 105.259 13.8924 105.529 13.6131L116.142 2.68023C116.412 2.40092 116.851 2.40092 117.13 2.67025C117.409 2.93958 117.409 3.37849 117.14 3.6578L106.526 14.5906C106.397 14.7203 106.207 14.8001 106.028 14.8001Z" fill="white"/>
<path d="M45.8468 189.765C45.7271 189.496 45.6473 188.907 45.6473 188.907L44.6099 174.802L54.5951 184.818L54.5751 184.828C54.7946 185.027 54.9941 185.257 55.1138 185.526C55.8619 187.162 54.3956 189.446 51.8319 190.613C49.2783 191.78 46.5949 191.401 45.8468 189.765Z" fill="white"/>
<path d="M48.8892 192C47.1934 192 45.7869 191.322 45.2083 190.055C45.0487 189.716 44.9689 189.157 44.949 188.997L43.9016 174.862C43.8816 174.573 44.0412 174.294 44.3106 174.174C44.5799 174.055 44.8891 174.114 45.0986 174.314L55.0838 184.329C55.1237 184.369 55.1536 184.409 55.1836 184.459C55.4329 184.708 55.6125 184.967 55.7422 185.237C56.6699 187.252 55.0738 189.895 52.1212 191.252C51.0239 191.751 49.9067 192 48.8892 192ZM46.4852 189.476C47.0637 190.743 49.378 190.972 51.5526 189.975C53.7172 188.987 55.0639 187.082 54.4853 185.815C54.4155 185.666 54.2958 185.516 54.1062 185.346C54.0564 185.297 54.0065 185.237 53.9666 185.177L45.4378 176.628L46.3455 188.858C46.3754 189.047 46.4353 189.376 46.4852 189.476Z" fill="white"/>
<path d="M49.1287 184.678C51.6923 183.511 54.3657 183.89 55.1238 185.526C55.8719 187.162 54.4056 189.436 51.8419 190.613C49.2783 191.781 46.6049 191.401 45.8468 189.766C45.0987 188.13 46.565 185.845 49.1287 184.678Z" fill="white"/>
<path d="M48.8992 191.99C48.6199 191.99 48.3406 191.97 48.0713 191.93C46.6947 191.741 45.6872 191.072 45.2184 190.055C44.7495 189.037 44.9091 187.84 45.6672 186.663C46.3555 185.596 47.4827 184.658 48.8394 184.04C51.792 182.693 54.8345 183.212 55.7522 185.237C56.221 186.254 56.0614 187.451 55.3033 188.628C54.615 189.696 53.4878 190.633 52.1312 191.252C51.0638 191.731 49.9466 191.99 48.8992 191.99ZM52.0813 184.698C51.2634 184.698 50.3257 184.898 49.4179 185.317C48.3007 185.825 47.383 186.573 46.8344 187.431C46.3456 188.189 46.2259 188.918 46.4852 189.486C46.7446 190.055 47.373 190.434 48.2608 190.563C49.2583 190.703 50.4254 190.504 51.5427 189.985C52.6599 189.476 53.5776 188.728 54.1262 187.87C54.615 187.122 54.7347 186.394 54.4754 185.825C54.1462 185.087 53.2185 184.698 52.0813 184.698Z" fill="white"/>
<path d="M242.738 186.933C242.509 186.933 242.279 186.813 242.15 186.603L233.9 173.586C233.691 173.256 233.79 172.828 234.119 172.618C234.449 172.409 234.878 172.508 235.087 172.838L243.337 185.855C243.546 186.184 243.446 186.613 243.117 186.823C242.997 186.903 242.868 186.933 242.738 186.933Z" fill="white"/>
<path d="M206.488 183.96C206.199 183.96 205.919 183.771 205.829 183.481C205.71 183.112 205.909 182.723 206.268 182.603C209.48 181.536 211.226 178.045 210.159 174.833C209.64 173.277 208.543 172.01 207.076 171.282C205.61 170.543 203.944 170.424 202.388 170.942C202.019 171.062 201.63 170.863 201.51 170.504C201.39 170.134 201.59 169.745 201.949 169.626C203.854 168.987 205.899 169.137 207.705 170.035C209.51 170.932 210.847 172.489 211.485 174.394C212.124 176.309 211.974 178.344 211.076 180.15C210.179 181.955 208.622 183.292 206.717 183.93C206.637 183.95 206.558 183.96 206.488 183.96Z" fill="white"/>
<path d="M106.008 184.479C105.828 184.479 105.658 184.409 105.519 184.279C105.239 184.01 105.239 183.571 105.509 183.292L116.162 172.319C116.432 172.04 116.871 172.03 117.15 172.309C117.429 172.578 117.429 173.017 117.16 173.297L106.506 184.269C106.367 184.409 106.187 184.479 106.008 184.479Z" fill="white"/>
<path d="M146.128 30.4712C145.928 30.4712 145.739 30.3914 145.599 30.2218L143.355 27.5784C143.105 27.2891 143.145 26.8402 143.434 26.5909C143.734 26.3415 144.172 26.3814 144.422 26.6707L146.666 29.3141C146.916 29.6034 146.876 30.0523 146.586 30.3016C146.447 30.4114 146.287 30.4712 146.128 30.4712Z" fill="white"/>
<path d="M138.696 21.7229C138.497 21.7229 138.307 21.6431 138.167 21.4735L135.923 18.8301C135.674 18.5408 135.714 18.0919 136.003 17.8426C136.292 17.5932 136.741 17.6331 136.99 17.9224L139.235 20.5658C139.484 20.8551 139.444 21.304 139.155 21.5533C139.015 21.6731 138.856 21.7229 138.696 21.7229Z" fill="white"/>
<path d="M138.776 31.8079C138.696 31.8079 138.617 31.7979 138.537 31.768C138.178 31.6383 137.988 31.2393 138.118 30.8802L139.285 27.6183C139.415 27.2592 139.814 27.0696 140.173 27.1993C140.532 27.329 140.721 27.728 140.592 28.0871L139.425 31.349C139.335 31.6383 139.065 31.8079 138.776 31.8079Z" fill="white"/>
<path d="M142.637 21.0046C142.557 21.0046 142.477 20.9947 142.397 20.9647C142.038 20.8351 141.849 20.4361 141.978 20.0769L143.145 16.815C143.275 16.4559 143.674 16.2664 144.033 16.3961C144.392 16.5258 144.582 16.9248 144.452 17.2839L143.285 20.5458C143.185 20.8251 142.916 21.0046 142.637 21.0046Z" fill="white"/>
<path d="M133.938 26.122C133.609 26.122 133.31 25.8826 133.25 25.5534C133.18 25.1744 133.429 24.8053 133.808 24.7454L137.22 24.127C137.599 24.0571 137.968 24.3065 138.028 24.6856C138.098 25.0646 137.848 25.4337 137.469 25.4936L134.058 26.112C134.018 26.112 133.978 26.122 133.938 26.122Z" fill="white"/>
<path d="M145.23 24.0571C144.901 24.0571 144.602 23.8176 144.542 23.4885C144.472 23.1094 144.721 22.7403 145.1 22.6805L148.512 22.062C148.891 21.9922 149.26 22.2416 149.32 22.6206C149.39 22.9997 149.14 23.3688 148.761 23.4286L145.35 24.0471C145.31 24.0571 145.27 24.0571 145.23 24.0571Z" fill="white"/>
<path d="M195.126 120.687C194.877 120.687 194.638 120.557 194.508 120.328L189.6 111.34C189.411 111.001 189.54 110.582 189.879 110.393C190.219 110.203 190.638 110.333 190.827 110.672L195.406 119.041L203.775 114.463C204.114 114.273 204.533 114.403 204.723 114.742C204.912 115.081 204.782 115.5 204.443 115.69L195.456 120.597C195.356 120.657 195.236 120.687 195.126 120.687Z" fill="white"/>
<path d="M169.111 169.646C169.101 169.646 169.101 169.646 169.111 169.646C168.722 169.646 168.413 169.326 168.413 168.937L168.492 160.269C168.492 160.03 168.612 159.81 168.812 159.69C169.011 159.561 169.26 159.551 169.48 159.64L175.744 162.463L175.814 154.862C175.814 154.483 176.133 154.174 176.512 154.174C176.512 154.174 176.512 154.174 176.522 154.174C176.911 154.174 177.221 154.493 177.211 154.882L177.131 163.561C177.131 163.8 177.011 164.02 176.812 164.139C176.612 164.269 176.363 164.289 176.143 164.189L169.879 161.366L169.809 168.967C169.799 169.336 169.49 169.646 169.111 169.646Z" fill="white"/>
<path d="M202.717 71.7388C202.558 71.7388 202.408 71.6889 202.278 71.5892L196.872 67.2599C196.572 67.0205 196.523 66.5816 196.762 66.2823C197.001 65.9831 197.44 65.9332 197.74 66.1726L202.598 70.0729L206.468 65.2349C206.588 65.0853 206.757 64.9955 206.937 64.9756C207.116 64.9556 207.306 65.0055 207.445 65.1252L212.303 69.0255L216.174 64.1875C216.413 63.8883 216.852 63.8384 217.151 64.0778C217.451 64.3172 217.501 64.7561 217.261 65.0554L212.952 70.442C212.832 70.5817 212.663 70.6814 212.483 70.7014C212.303 70.7213 212.114 70.6714 211.974 70.5517L207.116 66.6514L203.246 71.4894C203.126 71.639 202.957 71.7288 202.777 71.7488C202.767 71.7388 202.737 71.7388 202.717 71.7388Z" fill="white"/>
<path d="M208.633 148.628C208.373 148.628 208.134 148.488 208.004 148.239L205.112 142.493L199.356 145.386C199.007 145.555 198.588 145.416 198.418 145.077L195.525 139.321L189.77 142.214C189.42 142.383 189.002 142.254 188.832 141.904L185.939 136.159L180.183 139.051C179.834 139.221 179.415 139.091 179.246 138.742C179.076 138.403 179.206 137.974 179.555 137.805L185.929 134.593C186.268 134.413 186.697 134.553 186.867 134.902L189.76 140.657L195.515 137.765C195.854 137.585 196.283 137.725 196.453 138.074L199.346 143.82L205.102 140.927C205.451 140.747 205.86 140.887 206.039 141.236L209.251 147.61C209.421 147.949 209.291 148.378 208.942 148.548C208.852 148.608 208.742 148.628 208.633 148.628Z" fill="white"/>
<path d="M53.6675 159.181C53.1288 159.181 52.5901 159.062 52.0814 158.822C51.1737 158.393 50.4953 157.645 50.1462 156.708C50.0165 156.348 50.2061 155.939 50.5652 155.81C50.9243 155.68 51.3233 155.87 51.4629 156.229C51.6724 156.817 52.1014 157.286 52.6699 157.555C53.2385 157.825 53.8769 157.855 54.4655 157.635C55.6825 157.196 56.3109 155.85 55.872 154.633C55.7423 154.274 55.9318 153.865 56.2909 153.735C56.6501 153.605 57.0491 153.795 57.1887 154.154C57.887 156.099 56.8795 158.244 54.9443 158.942C54.5253 159.102 54.0964 159.181 53.6675 159.181Z" fill="white"/>
<path d="M56.5303 155.092C56.241 155.092 55.9717 154.912 55.872 154.633C55.2236 152.837 53.7871 152.049 52.6899 151.69C51.1437 151.191 49.3282 151.271 47.5826 151.9C47.2234 152.029 46.8244 151.84 46.6848 151.481C46.5551 151.122 46.7446 150.723 47.1037 150.583C49.1387 149.845 51.2734 149.765 53.1188 150.353C55.0839 150.982 56.5303 152.329 57.1887 154.144C57.3184 154.503 57.1288 154.912 56.7697 155.042C56.6899 155.082 56.6101 155.092 56.5303 155.092Z" fill="white"/>
<path d="M50.8047 157.166C50.5154 157.166 50.2461 156.987 50.1463 156.708C49.4879 154.892 49.7373 152.927 50.8446 151.191C51.882 149.565 53.5778 148.259 55.6127 147.53C55.9718 147.401 56.3708 147.59 56.5105 147.949C56.6402 148.308 56.4506 148.717 56.0915 148.847C54.3459 149.476 52.8995 150.583 52.0216 151.949C51.4032 152.917 50.8047 154.443 51.4531 156.239C51.5827 156.598 51.3932 157.007 51.0341 157.137C50.9643 157.146 50.8845 157.166 50.8047 157.166Z" fill="white"/>
<path d="M55.8521 148.877C55.5628 148.877 55.2934 148.698 55.1937 148.418C55.064 148.059 55.2535 147.66 55.6127 147.521C56.6301 147.151 57.6975 146.982 58.7648 147.002C59.1539 147.012 59.4531 147.331 59.4531 147.71C59.4431 148.099 59.1339 148.398 58.7449 148.398C57.8471 148.378 56.9394 148.528 56.0915 148.837C56.0117 148.867 55.9319 148.877 55.8521 148.877Z" fill="white"/>
<path d="M45.1587 162.254C44.62 162.254 44.0814 162.134 43.5726 161.895C42.6649 161.466 41.9866 160.718 41.6374 159.78C41.5077 159.421 41.6973 159.012 42.0564 158.882C42.4155 158.753 42.8145 158.942 42.9542 159.301C43.1636 159.89 43.5926 160.359 44.1612 160.628C44.7297 160.897 45.3682 160.927 45.9567 160.708C47.1737 160.269 47.8021 158.922 47.3632 157.705C47.2335 157.346 47.4231 156.947 47.7822 156.807C48.1413 156.678 48.5503 156.867 48.6799 157.226C49.3782 159.172 48.3707 161.316 46.4355 162.015C46.0165 162.174 45.5876 162.254 45.1587 162.254Z" fill="white"/>
<path d="M48.0214 158.174C47.7321 158.174 47.4628 157.995 47.3631 157.715C46.7147 155.92 45.2782 155.132 44.181 154.773C42.6348 154.274 40.8193 154.354 39.0736 154.982C38.7145 155.112 38.3155 154.922 38.1759 154.563C38.0462 154.204 38.2357 153.805 38.5948 153.665C40.6298 152.927 42.7645 152.847 44.6099 153.436C46.575 154.064 48.0214 155.411 48.6798 157.227C48.8095 157.586 48.6199 157.995 48.2608 158.124C48.181 158.154 48.1012 158.174 48.0214 158.174Z" fill="white"/>
<path d="M42.2958 160.239C42.0065 160.239 41.7371 160.059 41.6374 159.78C40.979 157.965 41.2284 155.999 42.3357 154.264C43.3731 152.638 45.0689 151.331 47.1038 150.603C47.4629 150.473 47.8619 150.663 48.0016 151.022C48.1313 151.381 47.9417 151.79 47.5826 151.92C45.837 152.548 44.3906 153.655 43.5127 155.022C42.8943 155.989 42.2958 157.516 42.9441 159.311C43.0738 159.67 42.8843 160.079 42.5252 160.209C42.4554 160.229 42.3756 160.239 42.2958 160.239Z" fill="white"/>
<path d="M36.3008 156.518C36.1013 156.518 35.9117 156.438 35.7721 156.279C35.5227 155.989 35.5526 155.55 35.8419 155.291C36.6599 154.583 37.5876 154.044 38.6051 153.675C38.9642 153.545 39.3731 153.735 39.5028 154.094C39.6325 154.453 39.443 154.852 39.0839 154.992C38.236 155.301 37.4579 155.76 36.7596 156.348C36.62 156.458 36.4604 156.518 36.3008 156.518Z" fill="white"/>
<path d="M151.764 68.1276C151.624 68.1276 151.495 68.1077 151.355 68.0678C150.637 67.8384 150.238 67.0703 150.467 66.352C150.697 65.6338 151.455 65.2348 152.173 65.4643C152.891 65.6937 153.29 66.4618 153.061 67.18C152.881 67.7585 152.343 68.1276 151.764 68.1276ZM151.774 66.7311C151.764 66.7311 151.744 66.7411 151.744 66.7511L151.574 67.3994L151.774 66.7311Z" fill="white"/>
<path d="M26.924 88.2477C26.7843 88.2477 26.6447 88.2278 26.505 88.1779C25.7669 87.9485 25.3579 87.1505 25.5873 86.4123C25.697 86.0532 25.9464 85.7639 26.2756 85.5943C26.6048 85.4247 26.9839 85.3848 27.343 85.5045C27.7021 85.6143 27.9913 85.8637 28.1609 86.1928C28.3305 86.522 28.3604 86.9011 28.2507 87.2602C28.0712 87.8687 27.5125 88.2477 26.924 88.2477Z" fill="white"/>
<path d="M149.42 165.077C149.28 165.077 149.141 165.057 149.001 165.007C148.273 164.778 147.864 163.99 148.093 163.261C148.203 162.902 148.452 162.613 148.781 162.443C149.111 162.274 149.49 162.244 149.839 162.354C150.188 162.463 150.477 162.713 150.657 163.042C150.826 163.371 150.856 163.75 150.747 164.099C150.637 164.458 150.387 164.748 150.058 164.917C149.859 165.027 149.639 165.077 149.42 165.077ZM149.42 163.68L149.21 164.349L149.42 163.68Z" fill="white"/>
<path d="M78.1868 55.6688C78.0471 55.6688 77.9075 55.6488 77.7778 55.6089C77.4286 55.4992 77.1493 55.2598 76.9798 54.9406C76.8102 54.6214 76.7803 54.2523 76.89 53.9031C76.9997 53.554 77.2391 53.2747 77.5583 53.1051C77.8775 52.9355 78.2466 52.9056 78.5957 53.0153C78.9449 53.1251 79.2242 53.3645 79.3938 53.6837C79.5633 54.0029 79.5933 54.372 79.4835 54.7211C79.3738 55.0702 79.1344 55.3495 78.8152 55.5191C78.6157 55.6189 78.3962 55.6688 78.1868 55.6688ZM78.1868 54.2722C78.1668 54.2722 78.1568 54.2822 78.1469 54.3021L78.1967 54.2822C78.1868 54.2722 78.1868 54.2722 78.1868 54.2722Z" fill="white"/>
<path d="M253.102 56.8157C252.963 56.8157 252.823 56.7957 252.673 56.7458C252.314 56.6361 252.015 56.3867 251.845 56.0476C251.676 55.7084 251.636 55.3294 251.756 54.9703C251.865 54.6111 252.115 54.3219 252.454 54.1423C252.793 53.9628 253.172 53.9328 253.531 54.0525C254.279 54.2919 254.688 55.08 254.449 55.8281C254.259 56.4266 253.701 56.8157 253.102 56.8157ZM253.112 55.3992L253.092 55.4092C253.102 55.4191 253.112 55.4092 253.112 55.3992Z" fill="white"/>
<path d="M244.803 75.0205H232.952C232.563 75.0205 232.254 74.7113 232.254 74.3223C232.254 73.9333 232.563 73.624 232.952 73.624H244.803C245.192 73.624 245.501 73.9333 245.501 74.3223C245.501 74.7113 245.182 75.0205 244.803 75.0205Z" fill="white"/>
<path d="M238.877 80.9458C238.488 80.9458 238.179 80.6366 238.179 80.2476V68.397C238.179 68.008 238.488 67.6987 238.877 67.6987C239.266 67.6987 239.576 68.008 239.576 68.397V80.2476C239.576 80.6366 239.257 80.9458 238.877 80.9458Z" fill="white"/>
<path d="M137.41 155.132H125.819C125.429 155.132 125.12 154.822 125.12 154.433C125.12 154.044 125.429 153.735 125.819 153.735H137.41C137.799 153.735 138.108 154.044 138.108 154.433C138.108 154.812 137.799 155.132 137.41 155.132Z" fill="white"/>
<path d="M131.614 160.927C131.225 160.927 130.916 160.618 130.916 160.229V148.638C130.916 148.249 131.225 147.939 131.614 147.939C132.003 147.939 132.312 148.249 132.312 148.638V160.229C132.312 160.618 131.993 160.927 131.614 160.927Z" fill="white"/>
<path d="M134.557 53.4641C134.377 53.4641 134.197 53.3942 134.058 53.2546C133.789 52.9853 133.789 52.5364 134.058 52.267L142.347 43.9776C142.617 43.7083 143.065 43.7083 143.335 43.9776C143.604 44.247 143.604 44.6958 143.335 44.9652L135.045 53.2546C134.916 53.3942 134.736 53.4641 134.557 53.4641Z" fill="white"/>
<path d="M142.846 53.4641C142.666 53.4641 142.487 53.3942 142.347 53.2546L134.058 44.9652C133.789 44.6958 133.789 44.247 134.058 43.9776C134.327 43.7083 134.776 43.7083 135.045 43.9776L143.335 52.267C143.604 52.5364 143.604 52.9853 143.335 53.2546C143.205 53.3942 143.026 53.4641 142.846 53.4641Z" fill="white"/>
<path d="M73.7777 34.9999C73.5881 34.9999 73.4186 34.9301 73.2789 34.7905L66.6155 28.127C66.3461 27.8577 66.3461 27.4088 66.6155 27.1395L73.2789 20.476C73.5383 20.2167 74.0071 20.2167 74.2664 20.476L80.9299 27.1395C81.1992 27.4088 81.1992 27.8577 80.9299 28.127L74.2664 34.7905C74.1368 34.9201 73.9572 34.9999 73.7777 34.9999ZM68.0918 27.6282L73.7677 33.3041L79.4436 27.6282L73.7777 21.9523L68.0918 27.6282Z" fill="white"/>
</svg>
