<svg width="327" height="162" viewBox="0 0 327 162" fill="none" xmlns="http://www.w3.org/2000/svg">
<path d="M103.598 86.2776L108.833 80.333L110.745 85.298L117.005 84.0337L118.113 88.6387L125.178 87.7428L119.955 93.6874L103.598 86.2776Z" fill="#0E9D57"/>
<path d="M119.955 94.2735C119.803 94.2735 119.652 94.2401 119.524 94.1815L103.178 86.7717C102.794 86.5958 102.689 86.2358 102.922 85.9595L108.145 80.0149C108.32 79.8224 108.635 79.7135 108.949 79.747C109.264 79.7805 109.532 79.9479 109.614 80.174L111.304 84.578L116.784 83.4728C117.005 83.431 117.25 83.4561 117.437 83.5398C117.635 83.6319 117.763 83.7742 117.81 83.9333L118.777 87.9606L125.038 87.1652C125.353 87.1233 125.679 87.2238 125.854 87.4163C126.029 87.6089 126.041 87.8601 125.866 88.0527L120.643 93.9973C120.491 94.1731 120.223 94.2735 119.955 94.2735ZM104.729 86.0935L119.698 92.8753L123.499 88.5467L118.253 89.2165C118.043 89.2416 117.821 89.2081 117.647 89.116C117.472 89.0239 117.343 88.8899 117.308 88.7392L116.352 84.7706L110.955 85.859C110.745 85.9009 110.523 85.8842 110.337 85.8088C110.15 85.7334 110.01 85.6079 109.952 85.4571L108.53 81.7648L104.729 86.0935Z" fill="#0E9D57"/>
<path d="M6.41327 141.705C6.1801 141.705 5.95859 141.629 5.79537 141.504C5.60883 141.353 5.55054 141.135 5.63215 140.943L8.88486 133.483C8.97813 133.273 9.22296 133.114 9.52608 133.081L20.2635 131.8C20.5433 131.766 20.8231 131.842 21.0097 131.992C21.1962 132.143 21.2545 132.361 21.1729 132.553L17.9202 140.013C17.8269 140.223 17.5821 140.382 17.279 140.415L6.54151 141.696C6.49488 141.705 6.44824 141.705 6.41327 141.705ZM10.2839 134.178L7.57911 140.382L16.5095 139.31L19.2143 133.106L10.2839 134.178Z" fill="#0E9D57"/>
<path d="M20.5782 91.1504L3.66175 85.1054C2.47259 84.6867 2.26274 83.2634 3.18375 81.9321C4.10477 80.6009 5.80691 79.8725 6.99607 80.2911L23.9125 86.3361C25.1017 86.7631 25.3115 88.1781 24.3905 89.5094C23.4695 90.8406 21.7673 91.5774 20.5782 91.1504Z" fill="#0E9D57"/>
<path d="M21.3128 91.862C20.9397 91.862 20.5667 91.8034 20.2169 91.6778L3.30049 85.6328C1.69162 85.0551 1.31855 83.3219 2.44942 81.6809C3.59195 80.0398 5.73711 79.2026 7.35763 79.7803L24.2741 85.8253C25.0901 86.1184 25.6264 86.738 25.7547 87.5334C25.8596 88.245 25.6381 89.0404 25.1251 89.7856C24.2274 91.0666 22.7002 91.862 21.3128 91.862ZM20.9397 90.6312C21.6043 90.8741 22.8867 90.3633 23.6562 89.2581C24.0292 88.7223 24.1924 88.1362 24.1225 87.659C24.0642 87.2738 23.8544 86.9891 23.5396 86.8719L6.62315 80.8269C5.95862 80.5841 4.67619 81.0948 3.90673 82.2C3.13727 83.3052 3.34713 84.3434 4.01166 84.5862L20.9397 90.6312Z" fill="#0E9D57"/>
<path d="M3.18388 81.9404C4.10489 80.6092 5.80703 79.8808 6.99619 80.2994C8.18535 80.718 8.39521 82.1414 7.47419 83.4726C6.55317 84.8039 4.85104 85.5323 3.66187 85.1137C2.47271 84.6867 2.26286 83.2633 3.18388 81.9404Z" fill="#0E9D57"/>
<path d="M4.38466 85.8169C3.99993 85.8169 3.62686 85.7583 3.28876 85.6411C1.6799 85.0634 1.30683 83.3303 2.4377 81.6892C2.95067 80.9441 3.69681 80.3412 4.55954 79.9728C5.51553 79.5458 6.52982 79.4872 7.34591 79.7719C8.162 80.0649 8.69829 80.6845 8.82653 81.4799C8.93146 82.1916 8.70995 82.987 8.19697 83.7322C7.684 84.4773 6.9262 85.0802 6.07514 85.4486C5.51553 85.6914 4.93261 85.8169 4.38466 85.8169ZM3.90666 82.2C3.1372 83.3052 3.34706 84.3434 4.02325 84.5862C4.33803 84.695 4.78105 84.6448 5.24739 84.4438C5.83031 84.1927 6.3666 83.7489 6.73967 83.2131C7.11274 82.6772 7.27596 82.0911 7.20601 81.6139C7.14771 81.2287 6.93786 80.9441 6.62308 80.8268C6.3083 80.718 5.86528 80.7682 5.39895 80.9692C4.82768 81.212 4.27973 81.6641 3.90666 82.2Z" fill="#0E9D57"/>
<path d="M53.5598 16.9102C53.4083 16.6841 53.3267 16.1902 53.3267 16.1902L52.1025 4.28425L63.8426 12.7323L63.8193 12.7406C64.0758 12.9081 64.3089 13.1006 64.4605 13.3267C65.3465 14.7082 63.6211 16.6339 60.6132 17.6219C57.5937 18.6099 54.4342 18.2917 53.5598 16.9102Z" fill="#0E9D57"/>
<path d="M57.1391 18.7855C55.1455 18.7855 53.5017 18.2162 52.8255 17.1529C52.639 16.8598 52.5457 16.3993 52.5224 16.257L51.2866 4.32597C51.2633 4.08316 51.4498 3.84873 51.7646 3.74825C52.0794 3.64778 52.4408 3.68965 52.6856 3.86547L64.4257 12.3135C64.4723 12.347 64.5073 12.3805 64.5423 12.4223C64.8337 12.6316 65.0436 12.8493 65.1951 13.0838C65.7431 13.9378 65.5566 14.9509 64.6705 15.9388C63.8661 16.8431 62.537 17.6301 60.9398 18.1492C59.6341 18.5846 58.3283 18.7855 57.1391 18.7855ZM54.3061 16.6589C54.9823 17.7222 57.7104 17.9232 60.2636 17.0859C61.581 16.6505 62.6536 16.0226 63.2948 15.3025C63.8661 14.6662 64.0176 14.0466 63.7029 13.5694C63.6212 13.4438 63.4813 13.3098 63.2598 13.1675C63.2015 13.1256 63.1433 13.0754 63.0966 13.0252L53.0703 5.80793L54.1313 16.1314C54.1662 16.2989 54.2479 16.5752 54.3061 16.6589Z" fill="#0E9D57"/>
<path d="M57.4075 12.6147C60.4154 11.6268 63.5632 11.9449 64.4492 13.3264C65.3353 14.7079 63.6098 16.6336 60.6019 17.6216C57.5941 18.6095 54.4463 18.2914 53.5602 16.9099C52.6742 15.52 54.3996 13.6027 57.4075 12.6147Z" fill="#0E9D57"/>
<path d="M57.1391 18.7771C56.801 18.7771 56.4746 18.7604 56.1598 18.7269C54.551 18.5594 53.3501 17.9985 52.8138 17.1445C52.2659 16.2905 52.4524 15.2774 53.3385 14.2894C54.1429 13.3851 55.472 12.5981 57.0692 12.079C60.5434 10.9403 64.1109 11.3841 65.1951 13.0837C66.2794 14.7834 64.414 17.0105 60.9398 18.1492C59.6807 18.5678 58.3633 18.7771 57.1391 18.7771ZM57.7454 13.1507C56.428 13.5861 55.3554 14.214 54.7142 14.9341C54.1429 15.5704 53.9914 16.19 54.3061 16.6672C54.6093 17.1445 55.3554 17.471 56.4047 17.5798C57.5822 17.6971 58.9579 17.5296 60.2636 17.0942C62.8168 16.257 64.3907 14.6494 63.7145 13.5777C63.0267 12.506 60.2986 12.3134 57.7454 13.1507Z" fill="#0E9D57"/>
<path d="M278.813 134.822L270.873 132.896L269.229 127.002L275.502 123.034L283.441 124.951L285.097 130.845L278.813 134.822Z" fill="#0E9D57"/>
<path d="M278.813 135.408C278.72 135.408 278.638 135.4 278.556 135.375L270.617 133.458C270.337 133.391 270.139 133.223 270.081 133.014L268.425 127.119C268.367 126.91 268.472 126.701 268.682 126.567L274.966 122.59C275.187 122.448 275.49 122.406 275.77 122.473L283.709 124.39C283.989 124.457 284.187 124.624 284.246 124.834L285.901 130.728C285.96 130.937 285.855 131.147 285.645 131.281L279.361 135.258C279.198 135.358 278.999 135.408 278.813 135.408ZM271.585 132.453L278.626 134.161L284.199 130.636L282.73 125.403L275.688 123.695L270.116 127.22L271.585 132.453Z" fill="#0E9D57"/>
<path d="M278.813 135.408C278.428 135.408 278.09 135.216 278.009 134.939L276.447 129.38L268.962 127.571C268.53 127.471 268.309 127.136 268.449 126.826C268.589 126.517 269.055 126.357 269.486 126.458L277.426 128.375C277.706 128.442 277.904 128.61 277.962 128.819L279.618 134.713C279.711 135.032 279.419 135.341 278.976 135.4C278.918 135.4 278.86 135.408 278.813 135.408Z" fill="#0E9D57"/>
<path d="M277.158 129.514C276.936 129.514 276.703 129.447 276.54 129.313C276.237 129.07 276.272 128.702 276.61 128.484L282.894 124.507C283.232 124.298 283.745 124.314 284.048 124.557C284.351 124.8 284.316 125.168 283.978 125.386L277.694 129.363C277.542 129.464 277.356 129.514 277.158 129.514Z" fill="#0E9D57"/>
<path d="M180.427 107.31L180.439 107.327C180.532 107.251 180.625 107.176 180.73 107.109C180.87 107.017 181.01 106.933 181.185 106.866C181.325 106.816 181.523 106.774 181.71 106.74C181.791 106.724 181.884 106.707 181.966 106.699C182.048 106.682 182.118 106.673 182.118 106.673L182.502 106.682C182.561 106.682 182.619 106.682 182.689 106.69L193.158 106.95L187.515 113.288C187.481 113.33 187.446 113.363 187.411 113.405L187.201 113.64L187.189 113.623C187.096 113.698 187.003 113.773 186.898 113.84C186.758 113.933 186.618 114.016 186.443 114.083C186.303 114.134 186.093 114.175 185.907 114.209C185.825 114.226 185.743 114.242 185.65 114.251C185.569 114.267 185.499 114.276 185.499 114.276L185.114 114.267C185.056 114.267 184.997 114.267 184.927 114.259L174.458 114L180.101 107.661C180.136 107.62 180.171 107.586 180.206 107.544L180.427 107.31Z" fill="#0E9D57"/>
<path d="M185.51 114.845C185.499 114.845 185.487 114.845 185.487 114.845L185.102 114.837C184.986 114.837 184.916 114.837 184.846 114.828L174.458 114.577C174.167 114.569 173.899 114.452 173.759 114.267C173.619 114.083 173.63 113.857 173.794 113.681L179.436 107.343C179.436 107.335 179.506 107.268 179.506 107.268L179.739 107C179.798 106.933 179.879 106.874 179.961 106.832C180.031 106.782 180.101 106.724 180.182 106.682C180.299 106.598 180.509 106.472 180.789 106.364C180.789 106.364 180.8 106.364 180.8 106.355C180.975 106.288 181.197 106.23 181.512 106.179C181.663 106.146 181.768 106.129 181.861 106.121L181.955 106.104C182.013 106.096 182.094 106.087 182.141 106.096L182.526 106.104C182.642 106.104 182.712 106.104 182.771 106.112L193.17 106.372C193.461 106.38 193.73 106.498 193.869 106.682C194.009 106.866 193.998 107.092 193.834 107.268L188.192 113.598C188.192 113.598 188.157 113.639 188.122 113.681L187.889 113.941C187.83 114.008 187.749 114.066 187.667 114.108C187.597 114.167 187.527 114.217 187.446 114.267C187.271 114.393 187.084 114.493 186.874 114.569C186.851 114.577 186.828 114.586 186.816 114.594C186.653 114.653 186.431 114.711 186.128 114.77C185.977 114.803 185.883 114.812 185.779 114.828L185.674 114.845C185.615 114.845 185.557 114.845 185.51 114.845ZM175.939 113.439L184.974 113.665L185.126 114.259L185.149 113.673L185.44 113.681L185.639 113.648C185.907 113.598 186.012 113.572 186.047 113.556C186.058 113.547 186.07 113.547 186.082 113.539C186.152 113.514 186.233 113.464 186.338 113.397C186.431 113.338 186.49 113.288 186.548 113.238C186.571 113.221 186.595 113.196 186.618 113.179L186.711 113.078L186.781 113.095C186.816 113.078 186.863 113.062 186.909 113.053L186.793 113.003L191.689 107.494L182.654 107.268L182.502 106.673L182.479 107.259L182.188 107.251L181.99 107.285C181.698 107.335 181.593 107.368 181.57 107.377C181.57 107.377 181.558 107.377 181.558 107.385C181.477 107.419 181.395 107.46 181.29 107.536C181.197 107.594 181.138 107.645 181.08 107.695C181.057 107.712 181.033 107.737 181.01 107.753L180.917 107.854L180.859 107.837C180.812 107.854 180.777 107.871 180.73 107.879L180.859 107.938L175.939 113.439Z" fill="#0E9D57"/>
<path d="M185.277 114.853C184.543 114.853 183.773 114.694 182.992 114.376C181.756 113.874 180.649 113.011 179.868 111.948C179.098 110.885 178.737 109.746 178.853 108.725C178.982 107.611 179.669 106.765 180.789 106.347C181.185 106.196 181.686 106.305 181.896 106.59C182.106 106.874 181.954 107.234 181.558 107.385C180.742 107.695 180.544 108.423 180.497 108.825C180.404 109.62 180.695 110.541 181.325 111.404C181.954 112.266 182.84 112.961 183.808 113.355C184.298 113.556 185.254 113.849 186.07 113.539C186.466 113.388 186.956 113.497 187.177 113.79C187.387 114.075 187.236 114.426 186.839 114.585C186.35 114.77 185.825 114.853 185.277 114.853Z" fill="#0E9D57"/>
<path d="M49.0015 116.402L53.4084 104.982L47.1711 106.682L46.0402 100.201L41.575 111.479L47.6841 109.813L49.0015 116.402Z" fill="#0E9D57"/>
<path d="M49.0015 116.989C48.9782 116.989 48.9665 116.989 48.9432 116.989C48.5585 116.972 48.2437 116.762 48.1854 116.486L47.0196 110.625L41.8549 112.032C41.5634 112.116 41.237 112.065 41.0155 111.915C40.794 111.764 40.7007 111.538 40.7823 111.32L45.2592 100.042C45.3641 99.7744 45.7255 99.5985 46.1102 99.6153C46.4949 99.6404 46.8097 99.8497 46.8564 100.126L47.8473 105.87L53.117 104.438C53.4084 104.363 53.7348 104.404 53.9564 104.555C54.1779 104.706 54.2711 104.932 54.1895 105.15L49.7826 116.57C49.6894 116.813 49.3629 116.989 49.0015 116.989ZM47.6841 109.227C47.824 109.227 47.9756 109.252 48.1038 109.311C48.3137 109.403 48.4652 109.554 48.5002 109.729L49.258 113.547L52.1959 105.945L47.4509 107.234C47.2178 107.301 46.9496 107.276 46.7398 107.193C46.5299 107.1 46.3784 106.941 46.355 106.766L45.7255 103.149L42.7992 110.525L47.3927 109.277C47.4859 109.244 47.5908 109.227 47.6841 109.227Z" fill="#0E9D57"/>
<path d="M153.111 93.1851C153.111 93.1851 152.074 91.2175 150.5 88.4043C148.856 85.4739 150.85 83.4477 153.38 83.0709C156.224 82.6439 157.973 84.377 158.346 86.1855C160.666 85.4069 163.639 85.5073 164.712 87.4498C165.668 89.1829 164.408 91.4854 160.106 92.1217C155.968 92.7246 153.111 93.1851 153.111 93.1851Z" fill="#0E9D57"/>
<path d="M153.112 93.7711C152.773 93.7711 152.47 93.6204 152.354 93.3943C152.354 93.3943 151.316 91.4267 149.742 88.6219C148.868 87.0562 148.868 85.5491 149.754 84.3686C150.477 83.3974 151.736 82.7192 153.216 82.4931C154.487 82.3005 155.7 82.468 156.714 82.9704C157.763 83.4895 158.544 84.3518 158.952 85.3901C160.375 85.0635 161.809 85.0635 162.998 85.3984C164.14 85.725 165.003 86.3613 165.481 87.232C166.041 88.2451 165.947 89.3754 165.213 90.3383C164.327 91.5188 162.567 92.3477 160.27 92.691C156.154 93.2938 153.298 93.7543 153.298 93.7627C153.228 93.7711 153.17 93.7711 153.112 93.7711ZM154.231 83.5899C154.009 83.5899 153.776 83.6067 153.543 83.6402C152.54 83.7909 151.678 84.2597 151.188 84.9212C150.535 85.7919 150.558 86.9557 151.258 88.1865C152.377 90.1792 153.228 91.7533 153.624 92.5068C154.709 92.331 157.005 91.971 159.943 91.544C161.762 91.276 163.114 90.6565 163.779 89.7857C164.28 89.1243 164.339 88.354 163.966 87.6674C163.651 87.0981 163.126 86.7046 162.392 86.4952C161.377 86.2022 160.002 86.2859 158.696 86.7213C158.463 86.7967 158.195 86.7967 157.961 86.7046C157.74 86.6208 157.577 86.4618 157.542 86.2776C157.332 85.2645 156.667 84.3853 155.77 83.9416C155.315 83.7072 154.802 83.5899 154.231 83.5899Z" fill="#0E9D57"/>
<path d="M119.337 60.8498C115.665 60.8498 112.633 58.7399 112.54 56.0858C112.447 53.3898 115.431 51.1543 119.174 51.0873C121.004 51.0454 122.718 51.531 124.024 52.4353C125.341 53.3312 126.087 54.5452 126.134 55.8513C126.227 58.5473 123.254 60.7828 119.5 60.8498C119.454 60.8498 119.395 60.8498 119.337 60.8498ZM119.337 52.2595C119.29 52.2595 119.255 52.2595 119.209 52.2595C117.833 52.2846 116.539 52.6948 115.595 53.4065C114.639 54.1266 114.137 55.0643 114.172 56.0606C114.242 58.1036 116.586 59.7362 119.465 59.6776C122.31 59.6274 124.572 57.9194 124.502 55.8764C124.443 53.8586 122.135 52.2595 119.337 52.2595Z" fill="#0E9D57"/>
<path d="M87.7424 75.1169C87.6025 75.1169 87.4626 75.0918 87.3343 75.0416C85.3757 74.2378 83.965 72.94 83.3588 71.3743C82.7642 69.8087 83.044 68.176 84.1515 66.7694C85.2708 65.3628 87.0778 64.3497 89.2579 63.9143C91.4381 63.4789 93.7115 63.6883 95.6701 64.4837C96.0665 64.6427 96.1947 65.0028 95.9732 65.2791C95.7517 65.5637 95.2504 65.6558 94.8657 65.4967C93.2801 64.8521 91.4381 64.6846 89.6893 65.0363C87.9405 65.3879 86.4716 66.2 85.5739 67.3387C83.7202 69.6831 84.8627 72.6805 88.1387 74.0117C88.5351 74.1708 88.6634 74.5308 88.4419 74.8071C88.302 75.0081 88.0222 75.1169 87.7424 75.1169Z" fill="#0E9D57"/>
<path d="M134.027 115.431C133.933 115.431 133.84 115.423 133.747 115.398C133.327 115.289 133.105 114.954 133.257 114.644C134.376 112.409 136.65 110.617 139.646 109.604C142.642 108.591 146.011 108.482 149.124 109.286C149.544 109.394 149.765 109.729 149.614 110.039C149.462 110.341 148.996 110.5 148.565 110.391C145.86 109.696 142.934 109.788 140.334 110.667C137.734 111.546 135.764 113.103 134.784 115.046C134.668 115.28 134.365 115.431 134.027 115.431Z" fill="#0E9D57"/>
<path d="M283.488 14.2561C283.22 14.2561 282.952 14.1556 282.8 13.9798L273.578 3.53907C273.333 3.26278 273.45 2.90275 273.835 2.72693C274.22 2.5511 274.721 2.63483 274.966 2.91112L284.187 13.3518C284.432 13.6281 284.316 13.9881 283.931 14.164C283.791 14.2309 283.64 14.2561 283.488 14.2561Z" fill="#0E9D57"/>
<path d="M88.3719 102.588C88.2437 102.588 88.1154 102.563 87.9872 102.521L74.7665 97.4384C74.3701 97.2877 74.2186 96.9277 74.4284 96.643C74.6383 96.3584 75.1396 96.2495 75.536 96.4002L88.7566 101.482C89.153 101.633 89.3046 101.993 89.0947 102.278C88.9432 102.47 88.6634 102.588 88.3719 102.588Z" fill="#0E9D57"/>
<path d="M78.2178 104.79C78.0895 104.79 77.9613 104.764 77.833 104.723C77.4366 104.572 77.2851 104.212 77.4949 103.927L84.5716 94.4326C84.7815 94.148 85.2828 94.0391 85.6792 94.1898C86.0756 94.3405 86.2271 94.7006 86.0173 94.9852L78.9406 104.48C78.789 104.672 78.5092 104.79 78.2178 104.79Z" fill="#0E9D57"/>
<path d="M108.157 115.548C107.958 115.548 107.772 115.498 107.609 115.398C107.271 115.18 107.247 114.811 107.539 114.569L110.29 112.358C110.593 112.115 111.106 112.09 111.444 112.308C111.782 112.526 111.806 112.894 111.514 113.137L108.763 115.347C108.611 115.481 108.378 115.548 108.157 115.548Z" fill="#0E9D57"/>
<path d="M99.0514 122.874C98.8532 122.874 98.6666 122.824 98.5034 122.724C98.1653 122.506 98.142 122.138 98.4335 121.895L101.185 119.684C101.488 119.442 102.001 119.425 102.339 119.634C102.677 119.852 102.7 120.22 102.409 120.463L99.6576 122.673C99.4944 122.807 99.2729 122.874 99.0514 122.874Z" fill="#0E9D57"/>
<path d="M113.694 119.408C113.636 119.408 113.578 119.408 113.531 119.4L109.486 118.797C109.043 118.73 108.763 118.42 108.856 118.102C108.95 117.784 109.381 117.583 109.824 117.65L113.869 118.253C114.312 118.32 114.592 118.629 114.499 118.947C114.417 119.215 114.079 119.408 113.694 119.408Z" fill="#0E9D57"/>
<path d="M100.31 117.407C100.252 117.407 100.194 117.407 100.147 117.399L96.1018 116.796C95.6587 116.729 95.3789 116.419 95.4722 116.101C95.5655 115.783 95.9968 115.582 96.4399 115.649L100.485 116.252C100.928 116.319 101.208 116.628 101.115 116.946C101.033 117.214 100.695 117.407 100.31 117.407Z" fill="#0E9D57"/>
<path d="M107.772 124.181C107.434 124.181 107.107 124.022 106.991 123.779L105.697 120.957C105.557 120.647 105.79 120.321 106.221 120.22C106.653 120.12 107.107 120.287 107.247 120.597L108.541 123.419C108.681 123.729 108.448 124.055 108.017 124.156C107.935 124.164 107.853 124.181 107.772 124.181Z" fill="#0E9D57"/>
<path d="M103.493 114.854C103.155 114.854 102.829 114.694 102.712 114.452L101.418 111.63C101.278 111.32 101.511 110.994 101.943 110.893C102.374 110.793 102.829 110.96 102.969 111.27L104.263 114.092C104.403 114.401 104.169 114.728 103.738 114.828C103.656 114.845 103.575 114.854 103.493 114.854Z" fill="#0E9D57"/>
<path d="M69.5903 51.3802C69.567 51.3802 69.5436 51.3802 69.5203 51.3802C69.0773 51.3467 68.7392 51.0621 68.7858 50.7439L69.8584 42.3629L58.1766 41.5926C57.7336 41.5591 57.3955 41.2744 57.4422 40.9563C57.4888 40.6297 57.8735 40.3953 58.3282 40.4288L70.8144 41.2493C71.2574 41.2828 71.5955 41.5675 71.5489 41.8856L70.4064 50.8527C70.3714 51.1542 70.01 51.3802 69.5903 51.3802Z" fill="#0E9D57"/>
<path d="M242.042 36.0333C241.972 36.0333 241.902 36.0249 241.832 36.0165L232.506 34.2415C232.238 34.1913 232.028 34.049 231.934 33.8564C231.853 33.6722 231.899 33.4629 232.074 33.3038L236.808 29.0421L228.682 27.4932C228.25 27.4094 227.982 27.0913 228.099 26.7731C228.215 26.4633 228.647 26.2708 229.101 26.3545L238.428 28.1295C238.696 28.1797 238.906 28.3221 238.999 28.5146C239.081 28.6988 239.034 28.9081 238.86 29.0672L234.126 33.3289L242.252 34.8778C242.684 34.9616 242.952 35.2797 242.835 35.5979C242.73 35.8574 242.404 36.0333 242.042 36.0333Z" fill="#0E9D57"/>
<path d="M149.416 69.5909C149.229 69.5909 149.043 69.549 148.891 69.4569L142.328 65.5301C141.978 65.3208 141.931 64.9524 142.223 64.7012C142.514 64.4501 143.027 64.4166 143.377 64.6259L149.311 68.1843L154.266 63.9226C154.557 63.6714 155.07 63.6379 155.42 63.8472L161.354 67.4056L166.309 63.1439C166.6 62.8927 167.113 62.8593 167.463 63.0686C167.813 63.2779 167.86 63.6463 167.568 63.8975L162.1 68.6113C161.809 68.8624 161.296 68.8959 160.946 68.6866L155.012 65.1282L150.057 69.3899C149.882 69.5239 149.649 69.5909 149.416 69.5909Z" fill="#0E9D57"/>
<path d="M42.7993 88.0273C42.4145 88.0273 42.0764 87.8347 41.9948 87.5585C41.9016 87.2403 42.193 86.9305 42.636 86.8719L50.1791 85.7918L48.6751 80.3747C48.5819 80.0566 48.8733 79.7468 49.3163 79.6882L56.8594 78.6081L55.3554 73.191C55.2622 72.8728 55.5536 72.563 55.9966 72.5044L63.5397 71.4244L62.0357 66.0072C61.9424 65.6891 62.2339 65.3793 62.6769 65.3207C63.1199 65.2537 63.5513 65.463 63.6329 65.7812L65.3001 71.776C65.3933 72.0942 65.1019 72.404 64.6589 72.4626L57.1158 73.5426L58.6198 78.9597C58.7131 79.2779 58.4216 79.5877 57.9786 79.6463L50.4356 80.7264L51.9395 86.1435C52.0328 86.4616 51.7413 86.7714 51.2983 86.83L42.9508 88.0273C42.9042 88.0273 42.8576 88.0273 42.7993 88.0273Z" fill="#0E9D57"/>
<path d="M203.243 86.085C203.173 86.085 203.103 86.0766 203.033 86.0683L191.713 83.9081C191.281 83.8244 191.013 83.5062 191.13 83.1881L194.138 75.0582C194.196 74.9075 194.336 74.7819 194.523 74.6982C194.709 74.6229 194.931 74.5977 195.14 74.6396L206.461 76.7998C206.892 76.8835 207.16 77.2016 207.044 77.5198L204.036 85.6496C203.931 85.9176 203.604 86.085 203.243 86.085ZM192.925 82.9202L202.672 84.7789L205.26 77.7793L195.513 75.9206L192.925 82.9202Z" fill="#0E9D57"/>
<path d="M258.259 113.773C258.003 113.773 257.746 113.731 257.513 113.639C256.72 113.338 256.417 112.635 256.825 112.065C257.024 111.789 257.362 111.588 257.781 111.496C258.201 111.404 258.632 111.429 259.017 111.571C259.402 111.714 259.682 111.957 259.81 112.258C259.938 112.551 259.903 112.869 259.705 113.145C259.413 113.547 258.854 113.773 258.259 113.773ZM258.259 112.601V112.61L258.982 112.869L258.259 112.601Z" fill="#0E9D57"/>
<path d="M268.029 40.1275L260.754 35.397L267.901 34.8862L267.225 30.2143H273.73L273.683 25.0316L280.958 29.7622L268.029 40.1275Z" fill="#0E9D57"/>
<path d="M268.029 40.7137C267.831 40.7137 267.633 40.6635 267.481 40.563L260.206 35.8325C259.961 35.6734 259.88 35.4306 259.973 35.2129C260.078 34.9952 260.346 34.8361 260.672 34.811L266.991 34.3589L266.397 30.273C266.373 30.1056 266.443 29.9465 266.607 29.8209C266.758 29.6953 266.98 29.6283 267.213 29.6283H272.902L272.867 25.0318C272.867 24.7973 273.054 24.588 273.357 24.4959C273.648 24.4038 273.998 24.4373 274.231 24.5964L281.506 29.3269C281.844 29.5446 281.868 29.913 281.564 30.1558L268.635 40.5212C268.495 40.6384 268.285 40.7054 268.064 40.7137C268.064 40.7137 268.052 40.7137 268.029 40.7137ZM262.666 35.8492L267.971 39.2988L279.804 29.8042L274.511 26.3546L274.546 30.2061C274.546 30.3651 274.464 30.5158 274.313 30.6247C274.161 30.7335 273.951 30.8005 273.73 30.8005H268.134L268.717 34.8278C268.74 34.9868 268.67 35.1375 268.542 35.2631C268.402 35.3804 268.204 35.4641 267.994 35.4725L262.666 35.8492Z" fill="#0E9D57"/>
<path d="M284.654 97.4719C284.607 97.4719 284.572 97.4719 284.526 97.4635L273.683 96.2076C273.38 96.1741 273.124 96.015 273.03 95.8057L269.708 88.2871C269.626 88.0945 269.684 87.8768 269.871 87.7261C270.058 87.5754 270.337 87.5001 270.617 87.5335L281.46 88.7978C281.763 88.8313 282.007 88.9904 282.101 89.1997L285.423 96.7183C285.505 96.9109 285.447 97.1286 285.26 97.2793C285.12 97.3965 284.887 97.4719 284.654 97.4719ZM274.441 95.1108L283.476 96.1574L280.702 89.8863L271.666 88.8397L274.441 95.1108Z" fill="#0E9D57"/>
<path d="M198.719 15.604L216.37 13.9713C217.606 13.8541 218.807 14.8839 219.052 16.2738C219.297 17.6553 218.504 18.8777 217.268 18.9865L199.617 20.6192C198.381 20.7364 197.18 19.7066 196.936 18.3167C196.691 16.9352 197.484 15.7212 198.719 15.604Z" fill="#0E9D57"/>
<path d="M199.431 21.222C197.833 21.222 196.423 20.033 196.12 18.4004C195.98 17.6217 196.12 16.8514 196.528 16.2402C196.982 15.5537 197.74 15.1099 198.614 15.0262L216.265 13.3935C217.979 13.2428 219.553 14.4652 219.868 16.1984C220.008 16.977 219.868 17.7473 219.46 18.3585C219.005 19.0451 218.247 19.4888 217.373 19.5725L199.722 21.2052C199.629 21.2136 199.524 21.222 199.431 21.222ZM216.557 14.549C216.534 14.549 216.499 14.549 216.475 14.549L198.824 16.1816C198.521 16.2067 198.218 16.4077 198.008 16.7342C197.74 17.1445 197.647 17.6887 197.74 18.2413C197.938 19.3465 198.836 20.0916 199.512 20.0414L217.163 18.4087C217.466 18.3836 217.769 18.1827 217.979 17.8561C218.247 17.4459 218.341 16.9017 218.247 16.3491C218.061 15.2857 217.221 14.549 216.557 14.549Z" fill="#0E9D57"/>
<path d="M219.063 16.2738C219.308 17.6637 218.515 18.8777 217.28 18.9866C216.044 19.1038 214.843 18.0739 214.598 16.6841C214.353 15.2942 215.146 14.0802 216.382 13.9713C217.618 13.8625 218.818 14.8923 219.063 16.2738Z" fill="#0E9D57"/>
<path d="M217.093 19.5893C216.312 19.5893 215.542 19.3046 214.936 18.7855C214.33 18.2664 213.922 17.5464 213.782 16.7677C213.642 15.989 213.782 15.2188 214.19 14.6076C214.645 13.921 215.402 13.4773 216.277 13.3935C217.991 13.2428 219.565 14.4652 219.879 16.1984C220.019 16.977 219.879 17.7473 219.471 18.3585C219.017 19.0451 218.259 19.4888 217.384 19.5725C217.291 19.5809 217.186 19.5893 217.093 19.5893ZM216.557 14.549C216.533 14.549 216.498 14.549 216.475 14.549C216.172 14.5741 215.869 14.775 215.659 15.1015C215.391 15.5118 215.298 16.056 215.391 16.6086C215.496 17.1612 215.776 17.672 216.184 18.0236C216.498 18.2999 216.871 18.4422 217.163 18.4087C217.466 18.3836 217.769 18.1827 217.979 17.8561C218.247 17.4459 218.34 16.9017 218.247 16.3491C218.061 15.2857 217.221 14.549 216.557 14.549Z" fill="#0E9D57"/>
<path d="M239.267 75.0331C239.571 74.9075 240.247 74.8154 240.247 74.8154L256.592 73.0404L245.808 82.0493L245.796 82.0326C245.586 82.2335 245.341 82.4094 245.027 82.5266C243.185 83.255 240.398 82.1749 238.813 80.1069C237.227 78.0388 237.425 75.7698 239.267 75.0331Z" fill="#0E9D57"/>
<path d="M243.756 83.3386C243.371 83.3386 242.963 83.2968 242.555 83.2131C240.853 82.8614 239.186 81.8065 238.102 80.3915C236.26 78.0053 236.598 75.4265 238.871 74.5222C239.256 74.3715 239.897 74.2711 240.084 74.2376L256.464 72.4626C256.802 72.4291 257.14 72.5463 257.303 72.7556C257.466 72.9733 257.431 73.2329 257.21 73.4254L246.426 82.4344C246.379 82.4679 246.332 82.5014 246.286 82.5265C246.018 82.7526 245.738 82.92 245.423 83.0372C244.922 83.2382 244.362 83.3386 243.756 83.3386ZM239.664 75.5521C238.242 76.1214 238.183 78.0723 239.536 79.8305C240.41 80.9692 241.739 81.8316 243.021 82.0995C243.453 82.1916 244.082 82.2502 244.654 82.0241C244.829 81.9572 244.992 81.8483 245.167 81.6809C245.225 81.6306 245.283 81.5888 245.353 81.5553L254.552 73.8692L240.387 75.4097C240.154 75.4265 239.78 75.5019 239.664 75.5521Z" fill="#0E9D57"/>
<path d="M245.493 77.4528C247.09 79.5209 246.88 81.7898 245.038 82.5266C243.196 83.2551 240.41 82.175 238.824 80.1069C237.227 78.0389 237.437 75.7699 239.279 75.0331C241.109 74.3047 243.896 75.3848 245.493 77.4528Z" fill="#0E9D57"/>
<path d="M243.756 83.3388C243.371 83.3388 242.963 83.297 242.555 83.2132C240.853 82.8616 239.186 81.8066 238.102 80.3917C236.26 78.0055 236.598 75.4267 238.871 74.5224C240.014 74.0703 241.436 74.1205 242.858 74.6815C244.164 75.1922 245.353 76.0797 246.204 77.1766C248.046 79.5628 247.708 82.1415 245.435 83.0458C244.922 83.2384 244.362 83.3388 243.756 83.3388ZM240.55 75.3932C240.223 75.3932 239.92 75.4434 239.664 75.5523C238.242 76.1132 238.183 78.0724 239.524 79.8307C240.398 80.9694 241.727 81.8318 243.01 82.0997C243.441 82.1918 244.071 82.2504 244.642 82.0243C246.064 81.4634 246.123 79.5042 244.782 77.7459C244.082 76.8417 243.126 76.1216 242.089 75.7197C241.541 75.502 241.016 75.3932 240.55 75.3932Z" fill="#0E9D57"/>
<path d="M121.949 26.3543L130.494 25.9273L135.274 31.0263L131.532 36.5522L122.986 36.9792L118.195 31.8803L121.949 26.3543Z" fill="#0E9D57"/>
<path d="M122.986 37.5654C122.718 37.5654 122.461 37.4649 122.31 37.3058L117.518 32.2069C117.355 32.031 117.332 31.8133 117.46 31.6208L121.214 26.0948C121.342 25.9023 121.599 25.785 121.89 25.7683L130.436 25.3413C130.739 25.3245 131.007 25.425 131.17 25.6008L135.962 30.6998C136.125 30.8756 136.148 31.0933 136.02 31.2859L132.266 36.8118C132.138 37.0044 131.881 37.1216 131.59 37.1384L123.044 37.5654C123.021 37.5654 123.009 37.5654 122.986 37.5654ZM119.139 31.8301L123.406 36.3681L131.007 35.9829L134.353 31.0598L130.086 26.5218L122.485 26.907L119.139 31.8301Z" fill="#0E9D57"/>
<path d="M126.74 32.0394C126.472 32.0394 126.215 31.939 126.064 31.7799L121.272 26.6809C121.016 26.413 121.121 26.0446 121.494 25.8688C121.867 25.693 122.38 25.7599 122.625 26.0279L127.148 30.8421L135.216 30.4402C135.67 30.4151 136.055 30.6579 136.09 30.9845C136.125 31.311 135.787 31.5873 135.332 31.6124L126.787 32.0394C126.775 32.0394 126.752 32.0394 126.74 32.0394Z" fill="#0E9D57"/>
<path d="M122.986 37.5655C122.869 37.5655 122.741 37.5488 122.624 37.5069C122.216 37.3646 122.053 37.0129 122.251 36.7199L126.005 31.194C126.204 30.9009 126.693 30.7837 127.101 30.926C127.509 31.0684 127.673 31.42 127.474 31.7131L123.72 37.239C123.58 37.4483 123.289 37.5655 122.986 37.5655Z" fill="#0E9D57"/>
<path d="M34.7198 58.0617L34.6964 58.045C34.6498 58.1371 34.5915 58.2208 34.5216 58.3046C34.4283 58.4134 34.335 58.5222 34.2068 58.6143C34.1019 58.6897 33.927 58.7734 33.7754 58.8404C33.7055 58.8739 33.6355 58.9074 33.5539 58.9325C33.484 58.9576 33.4257 58.9827 33.4257 58.9827L33.0759 59.0497C33.0176 59.0581 32.971 59.0748 32.901 59.0832L23.2711 60.9419L25.9526 54.0429C25.9642 54.001 25.9876 53.9591 25.9992 53.9173L26.0925 53.6661L26.1158 53.6829C26.1624 53.5908 26.2207 53.507 26.2907 53.4233C26.384 53.3145 26.4772 53.2056 26.6055 53.1135C26.7104 53.0382 26.8853 52.9544 27.0368 52.8874C27.1068 52.854 27.1767 52.8205 27.2583 52.7953C27.3399 52.7702 27.3982 52.7535 27.3982 52.7535L27.748 52.6865C27.8063 52.6781 27.8529 52.6614 27.9112 52.653L37.5411 50.7943L34.8597 57.6934C34.848 57.7352 34.8247 57.7771 34.813 57.8189L34.7198 58.0617Z" fill="#0E9D57"/>
<path d="M23.2713 61.528C23.0614 61.528 22.8516 61.4694 22.6884 61.3521C22.4785 61.2014 22.4086 60.9837 22.4785 60.7828L25.16 53.8837C25.16 53.8754 25.1949 53.8 25.1949 53.7916L25.2999 53.507C25.3348 53.4316 25.3815 53.3646 25.4398 53.306C25.4864 53.239 25.533 53.1804 25.5797 53.1218C25.6963 52.9711 25.8362 52.8371 25.9877 52.7199C25.9994 52.7116 26.011 52.7032 26.011 52.6948C26.1509 52.5943 26.3375 52.5022 26.594 52.385C26.7222 52.3264 26.8038 52.2929 26.8854 52.2678L26.967 52.2343C27.0253 52.2092 27.0836 52.1925 27.1419 52.1841L27.4917 52.1171C27.5966 52.092 27.6549 52.0836 27.7248 52.0752L37.2848 50.2249C37.5646 50.1746 37.8677 50.2333 38.0775 50.3756C38.2874 50.5263 38.3573 50.744 38.2874 50.9449L35.6059 57.844C35.6059 57.8524 35.571 57.9277 35.571 57.9361L35.4544 58.2208C35.4194 58.2961 35.3728 58.3631 35.3145 58.4217C35.2678 58.4887 35.2212 58.5473 35.1746 58.6059C35.058 58.7566 34.9181 58.8906 34.7665 58.9994C34.7549 59.0078 34.7432 59.0162 34.7316 59.0245C34.5917 59.1166 34.4168 59.2171 34.1486 59.3343C34.0204 59.3929 33.9388 59.4264 33.8572 59.4599L33.8105 59.5018C33.7522 59.5269 33.694 59.5436 33.6357 59.552L33.2859 59.619C33.181 59.6441 33.1227 59.6525 33.0527 59.6609L23.4928 61.5112C23.4229 61.5196 23.3529 61.528 23.2713 61.528ZM26.6289 54.1433L26.7572 54.1684L24.4488 60.113L32.6913 58.5222L33.0761 59.058L32.8662 58.4887L33.2859 58.3715C33.5074 58.271 33.6007 58.2291 33.624 58.2124L33.6357 58.204C33.694 58.1622 33.7522 58.1035 33.8222 58.0198C33.8805 57.9528 33.9155 57.8942 33.9504 57.8356C33.9621 57.8105 33.9738 57.7938 33.9971 57.7686L34.0437 57.6598L34.102 57.6682C34.137 57.6431 34.1603 57.6179 34.1953 57.6012L34.067 57.5761L36.3754 51.6315L27.5383 53.3646C27.3051 53.4651 27.2235 53.5153 27.2002 53.5321L27.1885 53.5405C27.1302 53.5823 27.072 53.6409 27.002 53.7247C26.9437 53.7916 26.9087 53.8502 26.8738 53.9088C26.8621 53.934 26.8504 53.9507 26.8271 53.9758L26.7805 54.0847L26.7222 54.0763C26.6989 54.1014 26.6639 54.1265 26.6289 54.1433Z" fill="#0E9D57"/>
<path d="M34.207 59.2087C33.9971 59.2087 33.7873 59.1501 33.6241 59.0329C33.3093 58.8068 33.3093 58.4301 33.6241 58.204C34.2303 57.7686 34.137 57.0821 34.0205 56.7053C33.7989 55.9685 33.181 55.1982 32.2717 54.5368C31.3623 53.8837 30.3014 53.4232 29.2755 53.2642C28.7508 53.1804 27.7948 53.1051 27.1886 53.5404C26.8622 53.7665 26.3492 53.7665 26.0344 53.5404C25.7196 53.3144 25.7196 52.9376 26.0344 52.7116C26.8971 52.1004 28.1679 51.891 29.6369 52.1255C30.9659 52.3432 32.3183 52.9041 33.4375 53.7163C34.5567 54.5284 35.3379 55.508 35.6177 56.4625C35.9324 57.5175 35.6293 58.4301 34.7666 59.0413C34.615 59.1501 34.4168 59.2087 34.207 59.2087Z" fill="#0E9D57"/>
<path d="M206.029 39.0725L195.28 47.554L201.716 48.0396L198.743 53.9926L209.457 45.6451L203.161 45.1762L206.029 39.0725Z" fill="#0E9D57"/>
<path d="M198.743 54.5786C198.603 54.5786 198.451 54.5535 198.323 54.4949C197.985 54.3526 197.845 54.0595 197.973 53.8L200.596 48.5503L195.198 48.1401C194.895 48.1149 194.627 47.9726 194.522 47.7633C194.417 47.554 194.476 47.3279 194.686 47.1605L205.435 38.679C205.691 38.4696 206.122 38.4278 206.449 38.5701C206.787 38.7125 206.939 38.9971 206.81 39.265L204.269 44.6738L209.55 45.0757C209.853 45.1008 210.121 45.2431 210.226 45.4524C210.331 45.6618 210.273 45.8962 210.063 46.0553L199.349 54.3944C199.186 54.5116 198.964 54.5786 198.743 54.5786ZM196.971 47.0935L201.797 47.4619C202.042 47.4786 202.275 47.5791 202.403 47.7298C202.532 47.8805 202.567 48.0731 202.485 48.2405L200.876 51.4724L207.766 46.1055L203.091 45.7539C202.846 45.7371 202.625 45.6366 202.485 45.4859C202.345 45.3352 202.322 45.151 202.403 44.9836L204.024 41.534L196.971 47.0935Z" fill="#0E9D57"/>
<path d="M103.959 146.335C103.959 146.335 101.301 145.188 97.4423 143.588C93.4201 141.922 93.2219 139.31 94.9823 137.811C96.9526 136.12 99.9838 136.74 101.942 138.071C103.167 136.338 105.72 135.023 108.366 136.137C110.733 137.125 111.782 139.628 108.786 142.173C105.918 144.61 103.959 146.335 103.959 146.335Z" fill="#0E9D57"/>
<path d="M103.959 146.921C103.82 146.921 103.668 146.896 103.54 146.837C103.516 146.829 100.847 145.673 97.046 144.099C94.9125 143.22 93.5484 141.973 93.2103 140.583C92.9305 139.452 93.3502 138.305 94.3762 137.435C95.2506 136.681 96.3931 136.262 97.6755 136.204C99.0162 136.145 100.462 136.497 101.744 137.175C102.63 136.229 103.82 135.542 105.114 135.274C106.349 135.015 107.62 135.132 108.798 135.626C110.162 136.195 111.106 137.175 111.374 138.305C111.701 139.695 111.013 141.194 109.416 142.55C106.571 144.953 104.612 146.686 104.589 146.703C104.437 146.845 104.193 146.921 103.959 146.921ZM97.9437 137.376C97.8854 137.376 97.8154 137.376 97.7571 137.376C96.9177 137.409 96.1949 137.686 95.612 138.188C94.9008 138.791 94.6093 139.595 94.8075 140.382C95.064 141.42 96.1483 142.374 97.8504 143.086C100.613 144.225 102.77 145.146 103.773 145.573C104.507 144.928 106.116 143.53 108.168 141.788C109.439 140.708 110.01 139.544 109.754 138.506C109.567 137.719 108.914 137.041 107.958 136.639C107.166 136.304 106.361 136.229 105.557 136.396C104.437 136.631 103.365 137.359 102.677 138.33C102.56 138.498 102.339 138.607 102.094 138.64C101.838 138.674 101.581 138.615 101.395 138.49C100.334 137.786 99.0629 137.376 97.9437 137.376Z" fill="#0E9D57"/>
<path d="M15.7749 33.714C15.705 33.714 15.6234 33.7057 15.5417 33.6889C15.1104 33.5968 14.8539 33.2703 14.9821 32.9605C15.1803 32.4749 15.0987 31.9725 14.7606 31.5288C14.4225 31.085 13.8629 30.7669 13.1984 30.6329C12.5222 30.4906 11.8227 30.5492 11.2048 30.792C10.5869 31.0348 10.1439 31.4367 9.95734 31.9139C9.8291 32.2237 9.37442 32.4079 8.94306 32.3158C8.51169 32.2237 8.26687 31.8972 8.38345 31.5874C8.69823 30.8003 9.42105 30.1557 10.412 29.7621C11.403 29.3686 12.5572 29.2765 13.6414 29.5026C14.7373 29.7286 15.635 30.2478 16.183 30.9594C16.7309 31.6711 16.8591 32.5 16.5444 33.2787C16.4511 33.5466 16.1247 33.714 15.7749 33.714Z" fill="#0E9D57"/>
<path d="M15.4602 38.7795C15.3902 38.7795 15.3086 38.7711 15.227 38.7543C12.872 38.2604 10.8667 37.2975 9.57264 36.0332C8.19694 34.6769 7.76557 33.1028 8.37181 31.5957C8.50006 31.2859 8.95474 31.1017 9.3861 31.1938C9.81746 31.2859 10.0739 31.6125 9.94571 31.9223C9.35113 33.3958 10.1322 34.6015 10.89 35.3467C11.9743 36.4016 13.6648 37.2138 15.6817 37.6324C16.113 37.7245 16.3695 38.051 16.2413 38.3608C16.148 38.612 15.8216 38.7795 15.4602 38.7795Z" fill="#0E9D57"/>
<path d="M8.7215 37.063C7.66058 37.063 6.55302 36.9542 5.43381 36.7198C5.00245 36.6277 4.75762 36.3011 4.8742 35.9913C5.00245 35.6815 5.45713 35.4974 5.88849 35.5895C10.1205 36.4686 14.0261 35.3383 14.9821 32.9688C15.1103 32.659 15.565 32.4832 15.9964 32.5669C16.4277 32.659 16.6842 32.9856 16.556 33.2953C15.6 35.6481 12.4872 37.063 8.7215 37.063Z" fill="#0E9D57"/>
<path d="M5.66693 36.7365C5.59698 36.7365 5.51537 36.7281 5.43376 36.7114C4.26792 36.4686 3.17202 36.0751 2.20437 35.5476C1.84296 35.355 1.77301 34.9866 2.04115 34.7271C2.3093 34.4675 2.82227 34.4173 3.18368 34.6099C3.99977 35.0536 4.90913 35.3801 5.88844 35.5811C6.31981 35.6732 6.57629 35.9997 6.44805 36.3095C6.34312 36.5691 6.01669 36.7365 5.66693 36.7365Z" fill="#0E9D57"/>
<path d="M25.5678 35.7571C25.4979 35.7571 25.4163 35.7487 25.3347 35.732C24.9033 35.6399 24.6585 35.3133 24.7751 35.0035C24.9733 34.5179 24.8917 34.0156 24.5536 33.5718C24.2155 33.1281 23.6559 32.8099 22.9913 32.6759C22.3151 32.5336 21.6156 32.5922 20.9977 32.835C20.3798 33.0778 19.9368 33.4797 19.7503 33.957C19.622 34.2667 19.1674 34.4509 18.736 34.3588C18.3046 34.2667 18.0598 33.9402 18.1764 33.6304C18.4912 32.8434 19.214 32.1987 20.205 31.8052C21.1959 31.4117 22.3501 31.3196 23.4343 31.5456C24.5302 31.7717 25.4279 32.2908 25.9759 33.0025C26.5238 33.7142 26.6521 34.543 26.3373 35.3217C26.2557 35.5896 25.9293 35.7571 25.5678 35.7571Z" fill="#0E9D57"/>
<path d="M25.2648 40.8142C25.1831 40.8142 25.1132 40.8058 25.0316 40.7891C19.9135 39.7257 16.9639 36.6446 18.1881 33.6304C18.3163 33.3207 18.771 33.1448 19.2024 33.2286C19.6337 33.3207 19.8785 33.6472 19.762 33.957C18.806 36.3348 21.2659 38.788 25.4979 39.6671C25.9293 39.7592 26.1741 40.0858 26.0575 40.3955C25.9409 40.6467 25.6145 40.8142 25.2648 40.8142Z" fill="#0E9D57"/>
<path d="M18.4681 39.0894C17.4072 39.0894 16.3113 38.9806 15.2387 38.7545C14.8073 38.6624 14.5508 38.3359 14.6791 38.0261C14.8073 37.7163 15.262 37.5405 15.6934 37.6242C17.6986 38.0428 19.7388 38.0093 21.441 37.5321C22.6418 37.1972 24.1924 36.4771 24.787 35.0036C24.9152 34.6938 25.3699 34.5179 25.8012 34.6017C26.2326 34.6938 26.4774 35.0203 26.3608 35.3301C25.7546 36.8372 24.2157 38.0093 22.0472 38.6205C20.9397 38.9303 19.7272 39.0894 18.4681 39.0894Z" fill="#0E9D57"/>
<path d="M27.7949 41.0737C26.8622 41.0737 25.9412 40.9816 25.0435 40.789C24.6121 40.6969 24.3673 40.3704 24.4839 40.0606C24.6121 39.7508 25.0552 39.5666 25.4982 39.6587C26.4775 39.8597 27.4918 39.935 28.5061 39.8681C28.9491 39.8429 29.3455 40.0774 29.3921 40.4039C29.4271 40.7304 29.1006 41.0067 28.646 41.0402C28.3545 41.0653 28.0747 41.0737 27.7949 41.0737Z" fill="#0E9D57"/>
<path d="M7.21754 116.335C5.90014 116.335 4.57107 116.076 3.38191 115.54C0.000955624 114.016 -1.01333 110.801 1.10851 108.381C3.23035 105.953 7.69554 105.216 11.0765 106.749C14.4574 108.272 15.4717 111.488 13.3499 113.907C11.9859 115.473 9.63084 116.335 7.21754 116.335ZM7.24086 107.125C5.3755 107.125 3.55679 107.795 2.49587 109.009C0.852023 110.885 1.6448 113.371 4.25629 114.552C5.52707 115.121 7.01935 115.305 8.47665 115.071C9.93396 114.828 11.1814 114.2 11.9742 113.288C13.618 111.412 12.8253 108.925 10.2138 107.745C9.28109 107.326 8.25514 107.125 7.24086 107.125Z" fill="#0E9D57"/>
<path d="M303.773 141.746C303.54 141.746 303.319 141.671 303.156 141.545C302.969 141.395 302.911 141.177 302.992 140.984L306.268 133.457C306.362 133.248 306.606 133.089 306.91 133.055L317.74 131.758C318.02 131.724 318.3 131.8 318.486 131.95C318.673 132.101 318.731 132.319 318.65 132.511L315.374 140.038C315.28 140.248 315.036 140.407 314.732 140.44L303.902 141.738C303.855 141.746 303.82 141.746 303.773 141.746ZM307.679 134.152L304.951 140.423L313.975 139.343L316.703 133.072L307.679 134.152Z" fill="#0E9D57"/>
<path d="M317.589 90.8156L301.71 85.1473C300.603 84.7538 300.393 83.4225 301.255 82.175C302.118 80.9275 303.715 80.2409 304.835 80.6345L320.713 86.3027C321.821 86.6963 322.031 88.0275 321.168 89.275C320.294 90.5226 318.696 91.2175 317.589 90.8156Z" fill="#0E9D57"/>
<path d="M318.277 91.519C317.904 91.519 317.554 91.4604 317.227 91.3432L301.349 85.6749C300.568 85.3986 300.055 84.8042 299.938 84.0422C299.833 83.3724 300.043 82.6105 300.533 81.9156C301.022 81.2123 301.733 80.6346 302.538 80.2913C303.447 79.8978 304.415 79.8392 305.196 80.1155L321.075 85.7838C321.856 86.06 322.369 86.6545 322.485 87.4164C322.59 88.0862 322.381 88.8481 321.891 89.5431C321.261 90.4557 320.247 91.1506 319.174 91.4102C318.871 91.4772 318.568 91.519 318.277 91.519ZM304.147 81.1118C303.914 81.1118 303.645 81.1704 303.377 81.296C302.841 81.5304 302.34 81.9407 301.99 82.4431C301.652 82.9371 301.489 83.4813 301.559 83.925C301.617 84.2767 301.803 84.5362 302.071 84.6283L317.95 90.2966C318.137 90.3636 318.382 90.3636 318.65 90.2966C319.314 90.1375 319.991 89.6519 320.422 89.024C320.76 88.53 320.923 87.9858 320.853 87.542C320.807 87.1904 320.608 86.9308 320.34 86.8387L304.461 81.1704C304.38 81.1286 304.263 81.1118 304.147 81.1118Z" fill="#0E9D57"/>
<path d="M301.267 82.175C302.13 80.9275 303.727 80.2409 304.846 80.6345C305.954 81.028 306.163 82.3592 305.301 83.6067C304.438 84.8543 302.841 85.5408 301.722 85.1473C300.602 84.7538 300.404 83.4225 301.267 82.175Z" fill="#0E9D57"/>
<path d="M302.398 85.8421C302.037 85.8421 301.687 85.7835 301.349 85.6663C300.568 85.39 300.055 84.7956 299.938 84.0337C299.833 83.3638 300.043 82.6019 300.533 81.907C301.617 80.3497 303.669 79.5543 305.196 80.1069C306.735 80.6595 307.096 82.3089 306.012 83.8662C305.173 85.097 303.715 85.8421 302.398 85.8421ZM304.158 81.1116C303.517 81.1116 302.573 81.5972 302.002 82.4345C301.663 82.9285 301.5 83.4727 301.57 83.9164C301.628 84.2681 301.815 84.5276 302.083 84.6197C302.689 84.8374 303.879 84.3351 304.566 83.3471C305.254 82.3591 305.091 81.3711 304.485 81.1618C304.38 81.1283 304.275 81.1116 304.158 81.1116Z" fill="#0E9D57"/>
<path d="M313.205 33.6889C313.135 33.6889 313.054 33.6806 312.984 33.6638C312.552 33.5717 312.296 33.2452 312.424 32.9354C312.832 31.9223 312.016 30.859 310.605 30.5659C309.195 30.2729 307.714 30.859 307.306 31.8721C307.178 32.1819 306.735 32.3577 306.292 32.274C305.86 32.1819 305.604 31.8553 305.732 31.5455C306.397 29.9129 308.787 28.9668 311.06 29.444C313.333 29.9212 314.651 31.6293 313.986 33.2703C313.881 33.5215 313.555 33.6889 313.205 33.6889Z" fill="#0E9D57"/>
<path d="M312.89 38.8129C312.82 38.8129 312.739 38.8045 312.657 38.7878C310.279 38.2938 308.239 37.3142 306.933 36.0332C305.534 34.6601 305.103 33.0693 305.72 31.5371C305.849 31.2273 306.292 31.0431 306.735 31.1352C307.166 31.2273 307.411 31.5538 307.294 31.8636C306.688 33.3623 307.481 34.5847 308.25 35.3383C309.346 36.41 311.072 37.2389 313.112 37.6575C313.543 37.7496 313.8 38.0761 313.671 38.3859C313.567 38.6538 313.24 38.8129 312.89 38.8129Z" fill="#0E9D57"/>
<path d="M306.059 37.0798C304.986 37.0798 303.867 36.9626 302.725 36.7282C302.293 36.6361 302.048 36.3095 302.165 35.9998C302.293 35.69 302.736 35.5058 303.179 35.5979C307.47 36.4937 311.434 35.3467 312.413 32.9354C312.541 32.6256 312.984 32.4414 313.427 32.5335C313.858 32.6256 314.115 32.9521 313.987 33.2619C313.019 35.6481 309.86 37.0798 306.059 37.0798Z" fill="#0E9D57"/>
<path d="M302.957 36.7533C302.888 36.7533 302.806 36.7449 302.724 36.7281C301.547 36.4853 300.439 36.0834 299.448 35.5476C299.087 35.355 299.017 34.9866 299.285 34.7271C299.553 34.4675 300.066 34.4173 300.428 34.6099C301.255 35.062 302.176 35.3885 303.167 35.5978C303.599 35.6899 303.844 36.0165 303.727 36.3263C303.634 36.5858 303.307 36.7533 302.957 36.7533Z" fill="#0E9D57"/>
<path d="M323.138 35.7569C323.069 35.7569 322.987 35.7485 322.905 35.7318C322.474 35.6397 322.229 35.3132 322.346 35.0034C322.754 33.9903 321.938 32.927 320.527 32.6339C319.116 32.3409 317.636 32.927 317.228 33.94C317.099 34.2498 316.656 34.434 316.213 34.3419C315.782 34.2498 315.537 33.9233 315.654 33.6135C316.307 31.9808 318.708 31.0347 320.97 31.512C322.078 31.738 322.987 32.2655 323.535 32.9856C324.083 33.7056 324.211 34.5429 323.896 35.3299C323.815 35.5895 323.488 35.7569 323.138 35.7569Z" fill="#0E9D57"/>
<path d="M322.824 40.8811C322.754 40.8811 322.672 40.8728 322.591 40.856C320.212 40.362 318.172 39.3824 316.866 38.1014C315.467 36.7283 315.036 35.1375 315.654 33.6053C315.782 33.2955 316.225 33.1113 316.668 33.2034C317.099 33.2955 317.344 33.622 317.228 33.9318C316.621 35.4305 317.414 36.6529 318.184 37.4065C319.28 38.4782 321.005 39.3071 323.045 39.7257C323.477 39.8178 323.721 40.1443 323.605 40.4541C323.5 40.7137 323.173 40.8811 322.824 40.8811Z" fill="#0E9D57"/>
<path d="M315.933 39.1311C314.861 39.1311 313.753 39.0139 312.657 38.7878C312.226 38.6957 311.981 38.3692 312.098 38.0594C312.226 37.7496 312.669 37.5654 313.112 37.6575C315.152 38.0845 317.227 38.051 318.941 37.5654C320.154 37.2222 321.739 36.5021 322.334 34.995C322.462 34.6852 322.917 34.501 323.348 34.5931C323.779 34.6852 324.036 35.0118 323.908 35.3216C323.29 36.8454 321.739 38.0343 319.536 38.6539C318.44 38.9804 317.204 39.1311 315.933 39.1311Z" fill="#0E9D57"/>
<path d="M325.389 41.149C324.444 41.149 323.512 41.0569 322.602 40.8643C322.171 40.7722 321.926 40.4457 322.043 40.1359C322.171 39.8261 322.614 39.6419 323.057 39.734C324.048 39.9433 325.074 40.0187 326.111 39.9517C326.554 39.9266 326.951 40.161 326.997 40.4875C327.032 40.8141 326.706 41.0904 326.251 41.1239C325.96 41.1406 325.668 41.149 325.389 41.149Z" fill="#0E9D57"/>
<path d="M304.648 116.084C303.4 116.084 302.13 115.841 300.999 115.331C297.793 113.882 296.813 110.826 298.83 108.515C300.847 106.205 305.102 105.51 308.32 106.958C311.538 108.407 312.506 111.463 310.489 113.773C309.183 115.264 306.933 116.084 304.648 116.084ZM301.861 114.334C304.31 115.44 307.562 114.904 309.101 113.145C309.848 112.291 310.081 111.278 309.778 110.299C309.463 109.319 308.635 108.482 307.446 107.946C306.257 107.41 304.846 107.243 303.482 107.46C302.118 107.686 300.952 108.281 300.206 109.135C298.667 110.902 299.413 113.229 301.861 114.334Z" fill="#0E9D57"/>
<path d="M38.6839 24.7386C38.6373 24.7386 38.5906 24.7386 38.544 24.7302C35.2213 24.3199 32.3184 23.0054 30.3714 21.0295C28.4245 19.0535 27.6667 16.6506 28.2379 14.256C28.3195 13.9378 28.7392 13.7201 29.1823 13.7788C29.6253 13.8374 29.9284 14.1388 29.8468 14.4569C29.3455 16.5334 30.01 18.6265 31.7121 20.3513C33.4143 22.076 35.9325 23.2147 38.8355 23.5748C39.2785 23.6334 39.5816 23.9348 39.5 24.2529C39.4184 24.5376 39.0686 24.7386 38.6839 24.7386Z" fill="#0E9D57"/>
<path d="M241.343 11.6354C241.005 11.6354 240.678 11.4763 240.573 11.2335C240.433 10.9237 240.666 10.5972 241.086 10.4883C242.777 10.0864 244.141 9.23243 244.933 8.09375C245.726 6.95507 245.854 5.65731 245.295 4.44327C244.735 3.22924 243.546 2.24964 241.961 1.6803C240.375 1.11096 238.568 1.01886 236.877 1.42075C236.446 1.52122 235.991 1.35376 235.852 1.05235C235.712 0.742561 235.945 0.416028 236.364 0.307183C238.463 -0.195176 240.713 -0.0779588 242.695 0.633717C244.677 1.34539 246.146 2.5678 246.845 4.07488C247.545 5.58195 247.382 7.19788 246.391 8.62123C245.4 10.0446 243.698 11.0995 241.599 11.6019C241.518 11.627 241.424 11.6354 241.343 11.6354Z" fill="#0E9D57"/>
<path d="M123.919 12.4225C123.709 12.4225 123.511 12.3639 123.347 12.2551C123.021 12.029 123.021 11.6606 123.336 11.4262L135.74 2.24974C136.055 2.01531 136.568 2.01531 136.895 2.24137C137.221 2.46743 137.221 2.83583 136.906 3.07026L124.502 12.2467C124.35 12.3555 124.129 12.4225 123.919 12.4225Z" fill="#0E9D57"/>
<path d="M53.583 159.279C53.4431 159.053 53.3498 158.559 53.3498 158.559L52.1373 146.72L63.8075 155.126L63.7841 155.134C64.0406 155.302 64.2738 155.494 64.4137 155.72C65.2881 157.093 63.5743 159.011 60.5781 159.99C57.5935 160.97 54.4574 160.652 53.583 159.279Z" fill="#0E9D57"/>
<path d="M57.1388 161.154C55.1569 161.154 53.513 160.585 52.8368 159.521C52.6503 159.237 52.557 158.768 52.5337 158.634L51.3096 146.77C51.2863 146.527 51.4728 146.293 51.7876 146.192C52.1023 146.092 52.4638 146.142 52.7086 146.309L64.3787 154.715C64.4253 154.749 64.4603 154.782 64.4953 154.824C64.7867 155.034 64.9966 155.251 65.1482 155.477C66.2324 157.169 64.367 159.387 60.9161 160.526C59.6337 160.945 58.328 161.154 57.1388 161.154ZM54.3291 159.036C55.0053 160.099 57.7101 160.292 60.2516 159.454C62.7815 158.626 64.3554 157.026 63.6792 155.963C63.5976 155.837 63.4577 155.712 63.2362 155.57C63.1779 155.528 63.1196 155.477 63.073 155.427L53.105 148.252L54.1659 158.517C54.2009 158.676 54.2708 158.952 54.3291 159.036Z" fill="#0E9D57"/>
<path d="M57.4187 155.009C60.415 154.029 63.5394 154.347 64.4255 155.72C65.2998 157.093 63.5861 159.002 60.5898 159.99C57.5936 160.97 54.4691 160.652 53.5831 159.279C52.7087 157.906 54.4225 155.988 57.4187 155.009Z" fill="#0E9D57"/>
<path d="M57.1505 161.146C56.8241 161.146 56.4976 161.129 56.1829 161.096C54.574 160.937 53.3965 160.376 52.8485 159.522C52.3006 158.668 52.4871 157.663 53.3732 156.675C54.1776 155.779 55.495 154.992 57.0806 154.473C60.5315 153.343 64.0873 153.778 65.1599 155.478C65.7078 156.332 65.5213 157.336 64.6352 158.324C63.8308 159.22 62.5134 160.007 60.9279 160.526C59.6804 160.928 58.3747 161.146 57.1505 161.146ZM60.8696 155.025C59.9136 155.025 58.8177 155.193 57.7568 155.545C56.451 155.972 55.3784 156.599 54.7372 157.32C54.1659 157.956 54.026 158.567 54.3292 159.044C54.6323 159.522 55.3668 159.84 56.4044 159.949C57.5702 160.066 58.9343 159.898 60.24 159.463C61.5457 159.036 62.6183 158.408 63.2595 157.688C63.8308 157.06 63.9707 156.449 63.6676 155.972C63.2829 155.352 62.1986 155.025 60.8696 155.025Z" fill="#0E9D57"/>
<path d="M283.698 156.901C283.43 156.901 283.162 156.8 283.01 156.624L273.369 145.698C273.124 145.422 273.24 145.062 273.625 144.886C274.01 144.71 274.511 144.794 274.756 145.07L284.398 155.996C284.642 156.273 284.526 156.633 284.141 156.809C284.001 156.876 283.85 156.901 283.698 156.901Z" fill="#0E9D57"/>
<path d="M241.331 154.406C240.993 154.406 240.666 154.247 240.561 154.004C240.421 153.694 240.655 153.368 241.074 153.267C244.828 152.371 246.869 149.441 245.621 146.745C245.015 145.439 243.732 144.375 242.019 143.764C240.305 143.145 238.358 143.044 236.539 143.479C236.108 143.58 235.653 143.412 235.513 143.111C235.373 142.801 235.607 142.475 236.026 142.374C238.253 141.838 240.643 141.964 242.753 142.718C244.863 143.471 246.426 144.777 247.172 146.376C247.918 147.984 247.743 149.692 246.694 151.207C245.644 152.723 243.826 153.845 241.599 154.381C241.506 154.397 241.412 154.406 241.331 154.406Z" fill="#0E9D57"/>
<path d="M123.895 154.841C123.686 154.841 123.487 154.783 123.324 154.674C122.998 154.448 122.998 154.079 123.312 153.845L135.764 144.635C136.079 144.401 136.591 144.392 136.918 144.627C137.244 144.853 137.244 145.221 136.93 145.456L124.478 154.665C124.315 154.783 124.105 154.841 123.895 154.841Z" fill="#0E9D57"/>
<path d="M170.785 25.5759C170.552 25.5759 170.331 25.509 170.167 25.3666L167.544 23.1479C167.253 22.9051 167.299 22.5283 167.638 22.319C167.987 22.1097 168.5 22.1432 168.792 22.386L171.415 24.6047C171.706 24.8475 171.66 25.2243 171.322 25.4336C171.158 25.5257 170.972 25.5759 170.785 25.5759Z" fill="#0E9D57"/>
<path d="M162.1 18.233C161.867 18.233 161.645 18.166 161.482 18.0237L158.859 15.8049C158.567 15.5621 158.614 15.1853 158.952 14.976C159.29 14.7667 159.815 14.8002 160.106 15.043L162.73 17.2618C163.021 17.5046 162.974 17.8813 162.636 18.0907C162.473 18.1911 162.286 18.233 162.1 18.233Z" fill="#0E9D57"/>
<path d="M162.193 26.6978C162.1 26.6978 162.007 26.6894 161.914 26.6643C161.494 26.5555 161.272 26.2205 161.424 25.9191L162.788 23.1813C162.94 22.8799 163.406 22.7208 163.826 22.8296C164.245 22.9385 164.467 23.2734 164.315 23.5748L162.951 26.3126C162.846 26.5555 162.532 26.6978 162.193 26.6978Z" fill="#0E9D57"/>
<path d="M166.705 17.6301C166.612 17.6301 166.519 17.6218 166.426 17.5966C166.006 17.4878 165.784 17.1529 165.936 16.8515L167.3 14.1136C167.452 13.8122 167.918 13.6531 168.338 13.762C168.757 13.8708 168.979 14.2057 168.827 14.5071L167.463 17.245C167.347 17.4794 167.032 17.6301 166.705 17.6301Z" fill="#0E9D57"/>
<path d="M156.539 21.9255C156.154 21.9255 155.805 21.7246 155.735 21.4483C155.653 21.1301 155.944 20.8203 156.388 20.7701L160.375 20.251C160.818 20.1924 161.249 20.4017 161.319 20.7198C161.401 21.038 161.109 21.3478 160.666 21.398L156.679 21.9171C156.632 21.9171 156.586 21.9255 156.539 21.9255Z" fill="#0E9D57"/>
<path d="M169.737 20.1923C169.352 20.1923 169.002 19.9913 168.932 19.715C168.85 19.3969 169.142 19.0871 169.585 19.0368L173.572 18.5177C174.015 18.4591 174.447 18.6684 174.516 18.9866C174.598 19.3048 174.307 19.6145 173.864 19.6648L169.876 20.1839C169.83 20.1923 169.783 20.1923 169.737 20.1923Z" fill="#0E9D57"/>
<path d="M228.052 101.298C227.761 101.298 227.481 101.189 227.329 100.997L221.593 93.4531C221.372 93.1684 221.523 92.8167 221.92 92.6577C222.316 92.4986 222.806 92.6074 223.027 92.8921L228.379 99.9167L238.16 96.0737C238.556 95.9146 239.046 96.0235 239.268 96.3081C239.489 96.5928 239.338 96.9445 238.941 97.1035L228.437 101.223C228.32 101.273 228.18 101.298 228.052 101.298Z" fill="#0E9D57"/>
<path d="M197.647 142.391C197.635 142.391 197.635 142.391 197.647 142.391C197.192 142.391 196.831 142.123 196.831 141.797L196.924 134.521C196.924 134.32 197.064 134.136 197.297 134.035C197.53 133.926 197.822 133.918 198.078 133.993L205.4 136.363L205.481 129.983C205.481 129.665 205.854 129.405 206.297 129.405C206.297 129.405 206.297 129.405 206.309 129.405C206.764 129.405 207.125 129.673 207.113 129.999L207.02 137.284C207.02 137.485 206.88 137.669 206.647 137.769C206.414 137.878 206.122 137.895 205.866 137.811L198.544 135.442L198.463 141.822C198.451 142.131 198.09 142.391 197.647 142.391Z" fill="#0E9D57"/>
<path d="M236.924 60.2135C236.737 60.2135 236.563 60.1716 236.411 60.0879L230.092 56.4541C229.742 56.2532 229.684 55.8848 229.964 55.6336C230.244 55.3825 230.757 55.3406 231.106 55.5415L236.784 58.8152L241.308 54.7545C241.447 54.6289 241.646 54.5536 241.855 54.5368C242.065 54.5201 242.287 54.5619 242.45 54.6624L248.128 57.9361L252.651 53.8754C252.931 53.6242 253.444 53.5823 253.794 53.7833C254.144 53.9842 254.202 54.3526 253.922 54.6038L248.886 59.125C248.746 59.2422 248.547 59.326 248.338 59.3427C248.128 59.3595 247.906 59.3176 247.743 59.2171L242.065 55.9434L237.542 60.0042C237.402 60.1297 237.204 60.2051 236.994 60.2218C236.982 60.2135 236.947 60.2135 236.924 60.2135Z" fill="#0E9D57"/>
<path d="M243.838 124.75C243.535 124.75 243.255 124.633 243.103 124.423L239.722 119.601L232.995 122.029C232.587 122.171 232.098 122.054 231.9 121.769L228.519 116.938L221.792 119.366C221.384 119.509 220.894 119.4 220.696 119.107L217.315 114.284L210.588 116.712C210.18 116.854 209.69 116.746 209.492 116.453C209.294 116.168 209.445 115.808 209.853 115.666L217.303 112.97C217.7 112.819 218.201 112.936 218.399 113.229L221.78 118.06L228.507 115.632C228.903 115.481 229.405 115.599 229.603 115.892L232.984 120.714L239.711 118.286C240.119 118.135 240.597 118.253 240.807 118.546L244.561 123.896C244.759 124.181 244.607 124.541 244.199 124.683C244.094 124.733 243.966 124.75 243.838 124.75Z" fill="#0E9D57"/>
<path d="M62.7234 133.608C62.0938 133.608 61.4643 133.508 60.8697 133.307C59.8087 132.947 59.016 132.319 58.6079 131.532C58.4564 131.23 58.6779 130.887 59.0976 130.778C59.5173 130.669 59.9836 130.828 60.1468 131.13C60.3917 131.624 60.893 132.017 61.5575 132.243C62.2221 132.469 62.9682 132.495 63.656 132.31C65.0784 131.942 65.8129 130.812 65.2999 129.79C65.1483 129.489 65.3698 129.146 65.7895 129.037C66.2092 128.928 66.6756 129.087 66.8388 129.388C67.6549 131.021 66.4774 132.821 64.2156 133.407C63.726 133.541 63.2247 133.608 62.7234 133.608Z" fill="#0E9D57"/>
<path d="M66.0694 130.175C65.7313 130.175 65.4165 130.025 65.2999 129.79C64.5421 128.283 62.8633 127.622 61.5809 127.32C59.7738 126.902 57.652 126.969 55.6118 127.496C55.1921 127.605 54.7257 127.446 54.5625 127.144C54.411 126.843 54.6325 126.508 55.0522 126.391C57.4305 125.771 59.9254 125.704 62.0822 126.198C64.3789 126.726 66.0694 127.856 66.8389 129.38C66.9904 129.681 66.7689 130.025 66.3492 130.133C66.2559 130.167 66.1627 130.175 66.0694 130.175Z" fill="#0E9D57"/>
<path d="M59.3775 131.917C59.0395 131.917 58.7247 131.766 58.6081 131.532C57.8386 130.008 58.1301 128.358 59.4242 126.902C60.6367 125.537 62.6186 124.44 64.9969 123.829C65.4166 123.72 65.883 123.879 66.0462 124.181C66.1977 124.482 65.9762 124.825 65.5565 124.934C63.5163 125.462 61.8258 126.391 60.7999 127.538C60.0771 128.35 59.3776 129.631 60.1354 131.138C60.2869 131.44 60.0654 131.783 59.6457 131.892C59.5641 131.9 59.4708 131.917 59.3775 131.917Z" fill="#0E9D57"/>
<path d="M65.2766 124.959C64.9385 124.959 64.6238 124.809 64.5072 124.574C64.3556 124.273 64.5771 123.938 64.9968 123.821C66.186 123.511 67.4334 123.368 68.6809 123.385C69.1356 123.394 69.4853 123.661 69.4853 123.98C69.4737 124.306 69.1123 124.557 68.6576 124.557C67.6083 124.541 66.5474 124.666 65.5564 124.926C65.4632 124.951 65.3699 124.959 65.2766 124.959Z" fill="#0E9D57"/>
<path d="M52.7788 136.187C52.1493 136.187 51.5197 136.086 50.9251 135.885C49.8642 135.525 49.0714 134.897 48.6634 134.11C48.5118 133.809 48.7333 133.466 49.153 133.357C49.5728 133.248 50.0391 133.407 50.2023 133.708C50.4471 134.202 50.9485 134.596 51.613 134.822C52.2775 135.048 53.0237 135.073 53.7115 134.889C55.1338 134.521 55.8683 133.39 55.3553 132.369C55.2038 132.067 55.4253 131.733 55.845 131.615C56.2647 131.506 56.7427 131.666 56.8943 131.967C57.7104 133.6 56.5329 135.4 54.2711 135.986C53.7815 136.12 53.2801 136.187 52.7788 136.187Z" fill="#0E9D57"/>
<path d="M56.1246 132.762C55.7865 132.762 55.4718 132.612 55.3552 132.377C54.5974 130.87 52.9186 130.209 51.6361 129.907C49.8291 129.489 47.7072 129.556 45.667 130.083C45.2473 130.192 44.781 130.033 44.6177 129.732C44.4662 129.43 44.6877 129.095 45.1074 128.978C47.4857 128.358 49.9806 128.291 52.1374 128.785C54.4342 129.313 56.1246 130.443 56.8941 131.967C57.0456 132.269 56.8241 132.612 56.4044 132.721C56.3112 132.746 56.2179 132.762 56.1246 132.762Z" fill="#0E9D57"/>
<path d="M49.4329 134.496C49.0948 134.496 48.78 134.345 48.6634 134.111C47.894 132.587 48.1854 130.937 49.4795 129.48C50.692 128.116 52.6739 127.019 55.0523 126.408C55.472 126.299 55.9383 126.458 56.1015 126.759C56.2531 127.061 56.0316 127.404 55.6119 127.513C53.5716 128.04 51.8812 128.97 50.8552 130.117C50.1324 130.929 49.4329 132.21 50.1907 133.717C50.3423 134.018 50.1207 134.362 49.701 134.471C49.6194 134.487 49.5262 134.496 49.4329 134.496Z" fill="#0E9D57"/>
<path d="M42.4263 131.373C42.1931 131.373 41.9716 131.306 41.8084 131.172C41.5169 130.929 41.5519 130.561 41.89 130.343C42.846 129.748 43.9302 129.296 45.1194 128.987C45.5391 128.878 46.0171 129.037 46.1686 129.338C46.3202 129.64 46.0987 129.975 45.679 130.092C44.688 130.351 43.7786 130.736 42.9626 131.23C42.7993 131.323 42.6128 131.373 42.4263 131.373Z" fill="#0E9D57"/>
<path d="M177.373 57.1825C177.21 57.1825 177.058 57.1658 176.895 57.1323C176.055 56.9397 175.589 56.295 175.857 55.6922C176.125 55.0894 177.011 54.7545 177.851 54.947C178.69 55.1396 179.157 55.7843 178.888 56.3871C178.679 56.8727 178.049 57.1825 177.373 57.1825ZM177.384 56.0103C177.373 56.0103 177.349 56.0187 177.349 56.0271L177.151 56.5713L177.384 56.0103Z" fill="#0E9D57"/>
<path d="M31.4672 74.0704C31.304 74.0704 31.1407 74.0537 30.9775 74.0118C30.1148 73.8192 29.6368 73.1494 29.9049 72.5298C30.0332 72.2284 30.3247 71.9856 30.7094 71.8433C31.0941 71.7009 31.5371 71.6675 31.9568 71.7679C32.3765 71.86 32.7146 72.0693 32.9128 72.3456C33.111 72.6219 33.146 72.9401 33.0178 73.2415C32.8079 73.7522 32.155 74.0704 31.4672 74.0704Z" fill="#0E9D57"/>
<path d="M174.633 138.556C174.47 138.556 174.307 138.54 174.143 138.498C173.292 138.305 172.814 137.644 173.083 137.033C173.211 136.731 173.502 136.488 173.887 136.346C174.272 136.204 174.715 136.179 175.123 136.271C175.531 136.363 175.869 136.572 176.079 136.848C176.277 137.125 176.312 137.443 176.184 137.736C176.055 138.037 175.764 138.28 175.379 138.422C175.146 138.514 174.89 138.556 174.633 138.556ZM174.633 137.384L174.388 137.945L174.633 137.384Z" fill="#0E9D57"/>
<path d="M91.3802 46.7252C91.2169 46.7252 91.0537 46.7084 90.9022 46.6749C90.4941 46.5828 90.1677 46.3819 89.9695 46.114C89.7713 45.846 89.7363 45.5363 89.8646 45.2432C89.9928 44.9502 90.2726 44.7157 90.6457 44.5734C91.0188 44.4311 91.4501 44.406 91.8582 44.4981C92.2662 44.5901 92.5926 44.7911 92.7908 45.059C92.989 45.3269 93.024 45.6367 92.8958 45.9298C92.7675 46.2228 92.4877 46.4573 92.1147 46.5996C91.8815 46.6833 91.625 46.7252 91.3802 46.7252ZM91.3802 45.553C91.3568 45.553 91.3452 45.5614 91.3335 45.5781L91.3918 45.5614C91.3802 45.553 91.3802 45.553 91.3802 45.553Z" fill="#0E9D57"/>
<path d="M295.811 47.688C295.648 47.688 295.485 47.6712 295.31 47.6293C294.89 47.5372 294.54 47.3279 294.342 47.0433C294.144 46.7586 294.097 46.4404 294.237 46.139C294.365 45.8376 294.657 45.5948 295.053 45.4441C295.45 45.2934 295.893 45.2683 296.312 45.3687C297.187 45.5697 297.665 46.2311 297.385 46.8591C297.164 47.3614 296.511 47.688 295.811 47.688ZM295.823 46.499L295.799 46.5074C295.811 46.5158 295.823 46.5074 295.823 46.499Z" fill="#0E9D57"/>
<path d="M286.111 62.9682H272.261C271.806 62.9682 271.445 62.7086 271.445 62.3821C271.445 62.0556 271.806 61.796 272.261 61.796H286.111C286.566 61.796 286.927 62.0556 286.927 62.3821C286.927 62.7086 286.554 62.9682 286.111 62.9682Z" fill="#0E9D57"/>
<path d="M279.186 67.9414C278.731 67.9414 278.37 67.6819 278.37 67.3553V57.4086C278.37 57.0821 278.731 56.8225 279.186 56.8225C279.641 56.8225 280.002 57.0821 280.002 57.4086V67.3553C280.002 67.6819 279.629 67.9414 279.186 67.9414Z" fill="#0E9D57"/>
<path d="M160.596 130.209H147.049C146.595 130.209 146.233 129.949 146.233 129.623C146.233 129.296 146.595 129.037 147.049 129.037H160.596C161.051 129.037 161.412 129.296 161.412 129.623C161.412 129.941 161.051 130.209 160.596 130.209Z" fill="#0E9D57"/>
<path d="M153.823 135.073C153.368 135.073 153.006 134.814 153.006 134.487V124.758C153.006 124.432 153.368 124.172 153.823 124.172C154.277 124.172 154.639 124.432 154.639 124.758V134.487C154.639 134.814 154.266 135.073 153.823 135.073Z" fill="#0E9D57"/>
<path d="M157.262 44.8748C157.052 44.8748 156.842 44.8162 156.679 44.699C156.364 44.4729 156.364 44.0962 156.679 43.8701L166.367 36.9124C166.682 36.6864 167.206 36.6864 167.521 36.9124C167.836 37.1385 167.836 37.5153 167.521 37.7413L157.833 44.699C157.682 44.8162 157.472 44.8748 157.262 44.8748Z" fill="#0E9D57"/>
<path d="M166.95 44.8748C166.74 44.8748 166.53 44.8162 166.367 44.699L156.679 37.7413C156.364 37.5153 156.364 37.1385 156.679 36.9124C156.994 36.6864 157.518 36.6864 157.833 36.9124L167.521 43.8701C167.836 44.0962 167.836 44.4729 167.521 44.699C167.37 44.8162 167.16 44.8748 166.95 44.8748Z" fill="#0E9D57"/>
<path d="M86.227 29.377C86.0055 29.377 85.8073 29.3184 85.6441 29.2012L77.8562 23.6082C77.5414 23.3822 77.5414 23.0054 77.8562 22.7793L85.6441 17.1864C85.9472 16.9687 86.4951 16.9687 86.7982 17.1864L94.5861 22.7793C94.9009 23.0054 94.9009 23.3822 94.5861 23.6082L86.7982 29.2012C86.6467 29.31 86.4368 29.377 86.227 29.377ZM79.5817 23.1896L86.2153 27.9536L92.849 23.1896L86.227 18.4256L79.5817 23.1896Z" fill="#0E9D57"/>
</svg>
