<svg width="220" height="153" viewBox="0 0 220 153" fill="none" xmlns="http://www.w3.org/2000/svg">
<path d="M220 144.056H0V144.166H220V144.056Z" fill="#EBEBEB"/>
<path d="M104.28 124.432H19.3204C18.6548 124.431 18.0169 124.166 17.5467 123.695C17.0765 123.224 16.8124 122.585 16.8124 121.92V2.4904C16.8182 1.82865 17.0848 1.19591 17.5544 0.729616C18.024 0.263322 18.6586 0.00113361 19.3204 0H104.28C104.946 0 105.585 0.264699 106.057 0.735865C106.528 1.20703 106.792 1.84607 106.792 2.5124V121.92C106.792 122.586 106.528 123.225 106.057 123.696C105.585 124.167 104.946 124.432 104.28 124.432ZM19.3204 0.0880003C18.684 0.0891659 18.0741 0.342789 17.6245 0.7932C17.1749 1.24361 16.9224 1.85401 16.9224 2.4904V121.92C16.9224 122.556 17.1749 123.166 17.6245 123.617C18.0741 124.067 18.684 124.321 19.3204 124.322H104.28C104.917 124.321 105.527 124.067 105.977 123.617C106.428 123.167 106.681 122.556 106.682 121.92V2.4904C106.681 1.8536 106.428 1.24322 105.977 0.792931C105.527 0.342646 104.917 0.0891634 104.28 0.0880003H19.3204Z" fill="#EBEBEB"/>
<path d="M199.456 124.432H114.492C113.827 124.431 113.188 124.166 112.717 123.695C112.246 123.224 111.981 122.586 111.98 121.92V2.4904C111.987 1.82825 112.255 1.19551 112.725 0.729341C113.195 0.263168 113.83 0.00112125 114.492 0H199.456C200.118 0.00228998 200.751 0.26499 201.22 0.73116C201.688 1.19733 201.954 1.82941 201.96 2.4904V121.92C201.96 122.584 201.697 123.222 201.227 123.693C200.758 124.164 200.121 124.43 199.456 124.432ZM114.492 0.0880003C113.856 0.0891634 113.245 0.342646 112.795 0.792931C112.345 1.24322 112.091 1.8536 112.09 2.4904V121.92C112.091 122.556 112.345 123.167 112.795 123.617C113.245 124.067 113.856 124.321 114.492 124.322H199.456C200.093 124.321 200.704 124.067 201.154 123.617C201.604 123.167 201.858 122.556 201.859 121.92V2.4904C201.858 1.8536 201.604 1.24322 201.154 0.792931C200.704 0.342646 200.093 0.0891634 199.456 0.0880003H114.492Z" fill="#EBEBEB"/>
<path d="M197.956 151.136H186.516V151.246H197.956V151.136Z" fill="#EBEBEB"/>
<path d="M156.653 152.332H136.84V152.442H156.653V152.332Z" fill="#EBEBEB"/>
<path d="M186.076 147.053H159.328V147.163H186.076V147.053Z" fill="#EBEBEB"/>
<path d="M31.5436 147.792H23.0824V147.902H31.5436V147.792Z" fill="#EBEBEB"/>
<path d="M59.7916 147.792H35.464V147.902H59.7916V147.792Z" fill="#EBEBEB"/>
<path d="M107.422 149.648H74.6548V149.758H107.422V149.648Z" fill="#EBEBEB"/>
<path d="M166.58 141.803H170.1V76.6607H166.58V141.803Z" fill="#F0F0F0"/>
<path d="M149.688 144.047H169.176V141.799H149.688V144.047Z" fill="#F0F0F0"/>
<path d="M166.584 76.6567H148.755V141.799H166.584V76.6567Z" fill="#F5F5F5"/>
<path d="M164.683 110.581H150.656V122.214H164.683V110.581Z" fill="#F0F0F0"/>
<path d="M164.683 125.805H150.656V137.438H164.683V125.805Z" fill="#F0F0F0"/>
<path d="M155.8 117.194H159.535C159.822 117.194 160.054 116.961 160.054 116.675V116.116C160.054 115.829 159.822 115.597 159.535 115.597H155.8C155.513 115.597 155.28 115.829 155.28 116.116V116.675C155.28 116.961 155.513 117.194 155.8 117.194Z" fill="#F5F5F5"/>
<path d="M155.8 132.418H159.535C159.822 132.418 160.054 132.186 160.054 131.899V131.34C160.054 131.054 159.822 130.821 159.535 130.821H155.8C155.513 130.821 155.28 131.054 155.28 131.34V131.899C155.28 132.186 155.513 132.418 155.8 132.418Z" fill="#F5F5F5"/>
<path d="M164.683 80.252H150.656V91.8855H164.683V80.252Z" fill="#F0F0F0"/>
<path d="M164.683 95.3525H150.656V106.986H164.683V95.3525Z" fill="#F0F0F0"/>
<path d="M155.8 86.8643H159.535C159.822 86.8643 160.054 86.6318 160.054 86.3451V85.7863C160.054 85.4995 159.822 85.2671 159.535 85.2671H155.8C155.513 85.2671 155.28 85.4995 155.28 85.7863V86.3451C155.28 86.6318 155.513 86.8643 155.8 86.8643Z" fill="#F5F5F5"/>
<path d="M155.8 101.97H159.535C159.822 101.97 160.054 101.738 160.054 101.451V100.892C160.054 100.605 159.822 100.373 159.535 100.373H155.8C155.513 100.373 155.28 100.605 155.28 100.892V101.451C155.28 101.738 155.513 101.97 155.8 101.97Z" fill="#F5F5F5"/>
<path d="M186.094 141.803H196.654V76.6607H186.094V141.803Z" fill="#F0F0F0"/>
<path d="M169.189 144.047H195.567V141.799H169.189V144.047Z" fill="#F0F0F0"/>
<path d="M186.094 76.6567H168.265V141.799H186.094V76.6567Z" fill="#F5F5F5"/>
<path d="M184.193 110.581H170.166V122.214H184.193V110.581Z" fill="#F0F0F0"/>
<path d="M184.193 125.805H170.166V137.438H184.193V125.805Z" fill="#F0F0F0"/>
<path d="M175.309 117.194H179.045C179.332 117.194 179.564 116.961 179.564 116.675V116.116C179.564 115.829 179.332 115.597 179.045 115.597H175.309C175.022 115.597 174.79 115.829 174.79 116.116V116.675C174.79 116.961 175.022 117.194 175.309 117.194Z" fill="#F5F5F5"/>
<path d="M175.309 132.418H179.045C179.332 132.418 179.564 132.186 179.564 131.899V131.34C179.564 131.054 179.332 130.821 179.045 130.821H175.309C175.022 130.821 174.79 131.054 174.79 131.34V131.899C174.79 132.186 175.022 132.418 175.309 132.418Z" fill="#F5F5F5"/>
<path d="M184.193 80.252H170.166V91.8855H184.193V80.252Z" fill="#F0F0F0"/>
<path d="M184.193 95.3525H170.166V106.986H184.193V95.3525Z" fill="#F0F0F0"/>
<path d="M175.309 86.8643H179.045C179.332 86.8643 179.564 86.6318 179.564 86.3451V85.7863C179.564 85.4995 179.332 85.2671 179.045 85.2671H175.309C175.022 85.2671 174.79 85.4995 174.79 85.7863V86.3451C174.79 86.6318 175.022 86.8643 175.309 86.8643Z" fill="#F5F5F5"/>
<path d="M175.309 101.97H179.045C179.332 101.97 179.564 101.738 179.564 101.451V100.892C179.564 100.605 179.332 100.373 179.045 100.373H175.309C175.022 100.373 174.79 100.605 174.79 100.892V101.451C174.79 101.738 175.022 101.97 175.309 101.97Z" fill="#F5F5F5"/>
<path d="M128.757 63.061L188.03 63.061V11.0266L128.757 11.0266V63.061Z" fill="#E6E6E6"/>
<path d="M122.404 9.00244H191.866C192.023 9.00244 192.173 9.06456 192.283 9.17513C192.394 9.2857 192.456 9.43567 192.456 9.59204C192.455 9.74765 192.392 9.89649 192.282 10.0061C192.171 10.1157 192.022 10.1772 191.866 10.1772H122.404C122.249 10.1761 122.101 10.1141 121.991 10.0046C121.882 9.89507 121.82 9.74689 121.818 9.59204C121.818 9.43643 121.88 9.28713 121.989 9.17668C122.099 9.06623 122.248 9.0036 122.404 9.00244Z" fill="#E6E6E6"/>
<path d="M126.245 63.061L186.859 63.061V11.0266L126.245 11.0266V63.061Z" fill="#F0F0F0"/>
<path d="M128.757 63.061H188.03V64.7286H127.024L128.757 63.061Z" fill="#E6E6E6"/>
<path d="M122.052 63.061H182.666L180.932 64.7286H120.318L122.052 63.061Z" fill="#F0F0F0"/>
<path d="M183.335 59.5403V14.5459L129.765 14.5459V59.5403H183.335Z" fill="#FAFAFA"/>
<path d="M171.173 59.5403L150.506 14.5459H140.752L161.418 59.5403H171.173Z" fill="white"/>
<path d="M159.324 59.5403L138.657 14.5459H134.851L155.518 59.5403H159.324Z" fill="white"/>
<path d="M130.209 59.5403V14.5459H129.76V59.5403H130.209Z" fill="#E6E6E6"/>
<g opacity="0.4">
<path opacity="0.4" d="M183.291 50.8862H189.35V7.94663H183.291V50.8862Z" fill="#F0F0F0"/>
<path opacity="0.4" d="M180.932 50.8862H185.654V7.94663H180.932V50.8862Z" fill="#E6E6E6"/>
<path opacity="0.4" d="M177.236 50.8862H183.295V7.94663H177.236V50.8862Z" fill="#F0F0F0"/>
<path opacity="0.4" d="M174.874 50.8862H179.595V7.94663H174.874V50.8862Z" fill="#E6E6E6"/>
<path opacity="0.4" d="M171.173 50.8862H177.232V7.94663H171.173V50.8862Z" fill="#F0F0F0"/>
</g>
<g opacity="0.4">
<path opacity="0.4" d="M132.018 50.8862H135.511V7.94663H132.018V50.8862Z" fill="#F0F0F0"/>
<path opacity="0.4" d="M130.658 50.8862H133.377V7.94663H130.658V50.8862Z" fill="#E6E6E6"/>
<path opacity="0.4" d="M128.524 50.8862H132.018V7.94663H128.524V50.8862Z" fill="#F0F0F0"/>
<path opacity="0.4" d="M127.169 50.8862H129.888V7.94663H127.169V50.8862Z" fill="#E6E6E6"/>
<path opacity="0.4" d="M125.03 50.8862H128.524V7.94663H125.03V50.8862Z" fill="#F0F0F0"/>
</g>
<path d="M72.2568 42.5479H80.6432L79.6532 21.2783H72.2568V42.5479Z" fill="#F5F5F5"/>
<path d="M85.382 43.6963L87.1904 53.1431H85.382L74.2896 43.6963H85.382Z" fill="#F5F5F5"/>
<path d="M87.1904 43.6963V53.1431L76.098 43.6963H87.1904Z" fill="#E6E6E6"/>
<path d="M41.8791 43.6963L43.6875 53.1431H41.8791L30.7867 43.6963H41.8791Z" fill="#F5F5F5"/>
<path d="M43.6876 43.6963V53.1431L32.5952 43.6963H43.6876Z" fill="#E6E6E6"/>
<path d="M95.3348 42.5791H83.27V43.9431H95.3348V42.5791Z" fill="#E6E6E6"/>
<path d="M23.2892 43.9424L83.27 43.9424V42.5784L23.2892 42.5784V43.9424Z" fill="#F5F5F5"/>
<path d="M59.9324 42.5477H77.9372L80.1636 16.7725H62.1588L59.9324 42.5477Z" fill="#E6E6E6"/>
<path d="M58.9996 42.5477H77.0044L79.2308 16.7725H61.226L58.9996 42.5477Z" fill="#F0F0F0"/>
<path d="M75.4953 39.6929L77.5325 19.6245H62.7397L60.7025 39.6929H75.4953Z" fill="white"/>
<path d="M51.8716 42.548H57.6488L56.9668 27.9004H51.8716V42.548Z" fill="#E0E0E0"/>
<path d="M43.3884 42.5475H55.7832L57.3188 24.7979H44.9196L43.3884 42.5475Z" fill="#F0F0F0"/>
<path d="M42.746 42.5475H55.1452L56.6764 24.7979H44.2772L42.746 42.5475Z" fill="#F5F5F5"/>
<path d="M54.1024 40.5811L55.5016 26.7651H45.32L43.9164 40.5811H54.1024Z" fill="#E0E0E0"/>
<path d="M115.438 79.8332C115.479 80.3251 115.374 80.8182 115.134 81.2499C114.895 81.6817 114.533 82.0328 114.094 82.2587C113.655 82.4846 113.159 82.5753 112.669 82.5192C112.178 82.4631 111.715 82.2627 111.339 81.9435C110.962 81.6243 110.689 81.2005 110.553 80.7259C110.418 80.2512 110.426 79.747 110.577 79.2771C110.728 78.8071 111.015 78.3925 111.402 78.0858C111.789 77.7791 112.258 77.594 112.75 77.554C113.076 77.5269 113.405 77.5643 113.716 77.6642C114.028 77.7641 114.317 77.9245 114.567 78.1362C114.816 78.3479 115.022 78.6067 115.171 78.8979C115.321 79.1891 115.412 79.5069 115.438 79.8332Z" fill="#E0E0E0"/>
<path d="M120.072 81.136C120.113 81.628 120.007 82.121 119.767 82.5528C119.528 82.9846 119.166 83.3356 118.727 83.5616C118.288 83.7875 117.792 83.8782 117.302 83.8221C116.811 83.766 116.349 83.5656 115.972 83.2464C115.596 82.9272 115.322 82.5034 115.187 82.0288C115.051 81.5541 115.059 81.0499 115.21 80.5799C115.361 80.11 115.648 79.6954 116.035 79.3887C116.422 79.082 116.891 78.8969 117.383 78.8568C118.042 78.8033 118.695 79.0132 119.199 79.4405C119.703 79.8678 120.017 80.4776 120.072 81.136Z" fill="#E0E0E0"/>
<path d="M123.42 79.6406C123.46 80.1324 123.354 80.6251 123.114 81.0564C122.874 81.4876 122.511 81.838 122.072 82.0633C121.633 82.2885 121.137 82.3785 120.647 82.3219C120.157 82.2652 119.695 82.0645 119.318 81.745C118.942 81.4255 118.669 81.0017 118.534 80.5271C118.399 80.0525 118.408 79.5485 118.559 79.0788C118.71 78.6091 118.997 78.1948 119.384 77.8883C119.771 77.5818 120.24 77.3969 120.732 77.357C121.391 77.3046 122.044 77.5156 122.547 77.9435C123.051 78.3715 123.365 78.9818 123.42 79.6406Z" fill="#E0E0E0"/>
<path d="M126.953 80.5734C126.992 81.064 126.885 81.5553 126.645 81.9852C126.406 82.415 126.044 82.7641 125.606 82.9884C125.168 83.2127 124.673 83.3022 124.184 83.2455C123.695 83.1887 123.234 82.9884 122.858 82.6697C122.483 82.3511 122.211 81.9284 122.076 81.455C121.941 80.9817 121.949 80.479 122.1 80.0103C122.25 79.5416 122.536 79.1281 122.921 78.8219C123.307 78.5156 123.774 78.3305 124.265 78.2898C124.591 78.2627 124.92 78.3003 125.232 78.4005C125.544 78.5007 125.833 78.6614 126.083 78.8736C126.333 79.0857 126.538 79.3451 126.688 79.6368C126.837 79.9284 126.927 80.2467 126.953 80.5734Z" fill="#E0E0E0"/>
<path d="M130.126 80.9595C130.126 80.9595 129.835 87.8851 118.712 87.8851C107.589 87.8851 107.272 80.9595 107.272 80.9595H130.126Z" fill="#F0F0F0"/>
<path d="M26.3471 144.056H30.3907L30.3907 87.899H26.3471L26.3471 144.056Z" fill="#E6E6E6"/>
<path d="M25.2693 144.056H27.6497L27.6497 87.899H25.2693L25.2693 144.056Z" fill="#F0F0F0"/>
<path d="M81.9324 87.8989H24.53V92.1097H81.9324V87.8989Z" fill="#F0F0F0"/>
<path d="M136.294 144.056H140.338V87.899H136.294V144.056Z" fill="#E6E6E6"/>
<path d="M135.538 144.056H137.918V87.899H135.538V144.056Z" fill="#F0F0F0"/>
<path d="M141.06 87.8989H83.6572V92.1097H141.06V87.8989Z" fill="#E6E6E6"/>
<path d="M82.2712 144.056H86.3148V87.899H82.2712V144.056Z" fill="#E6E6E6"/>
<path d="M81.1932 144.056H83.5736V87.899H81.1932V144.056Z" fill="#F0F0F0"/>
<path d="M95.5416 69.2202H65.5732L60.2316 86.917H90.2044L95.5416 69.2202Z" fill="#E6E6E6"/>
<path d="M90.2044 86.9175L90.0856 87.8987H60.1128L60.2316 86.9175H90.2044Z" fill="#E6E6E6"/>
<path d="M94.622 69.2202H64.6492L59.312 86.917H89.2804L94.622 69.2202Z" fill="#F0F0F0"/>
<path d="M88.6952 86.1123L93.544 70.0303H65.2388L60.3856 86.1123H88.6952Z" fill="white"/>
<path d="M81.4748 86.9175L81.3516 87.8987H48.3472L48.466 86.9175H81.4748Z" fill="#F0F0F0"/>
</svg>
