<svg width="18" height="22" viewBox="0 0 18 22" fill="none" xmlns="http://www.w3.org/2000/svg">
<rect x="0.5" y="0.5" width="16.6" height="21" rx="1.5" stroke="#95969D"/>
<g clip-path="url(#clip0_8_6664)">
<path fill-rule="evenodd" clip-rule="evenodd" d="M9.81527 5.71143C9.81527 6.02561 9.69046 6.32692 9.4683 6.54908C9.24614 6.77124 8.94483 6.89605 8.63065 6.89605C8.31648 6.89605 8.01517 6.77124 7.79301 6.54908C7.57085 6.32692 7.44604 6.02561 7.44604 5.71143C7.44604 5.39726 7.57085 5.09595 7.79301 4.87379C8.01517 4.65163 8.31648 4.52682 8.63065 4.52682C8.94483 4.52682 9.24614 4.65163 9.4683 4.87379C9.69046 5.09595 9.81527 5.39726 9.81527 5.71143ZM9.22296 5.71143C9.22296 5.86852 9.16056 6.01918 9.04948 6.13026C8.9384 6.24134 8.78774 6.30374 8.63065 6.30374C8.47357 6.30374 8.32291 6.24134 8.21183 6.13026C8.10075 6.01918 8.03835 5.86852 8.03835 5.71143C8.03835 5.55435 8.10075 5.40369 8.21183 5.29261C8.32291 5.18153 8.47357 5.11913 8.63065 5.11913C8.78774 5.11913 8.9384 5.18153 9.04948 5.29261C9.16056 5.40369 9.22296 5.55435 9.22296 5.71143Z" fill="#95969D"/>
<path d="M6.53087 8.15812C6.77804 7.84951 7.08988 7.59846 7.44472 7.42284C7.81942 7.23741 8.23192 7.14111 8.64999 7.14147L8.64995 7.19224L8.6499 7.14147C9.06256 7.14108 9.46987 7.23489 9.84079 7.41574C10.1918 7.58689 10.5014 7.83171 10.7488 8.13321C10.9791 7.81498 11.1349 7.44868 11.2043 7.06144C11.2775 6.6528 11.2524 6.2326 11.131 5.8356C11.0096 5.4386 10.7954 5.07622 10.5061 4.77844C10.2168 4.48066 9.86079 4.25605 9.46748 4.12319C9.07417 3.99032 8.65487 3.95302 8.24427 4.01438C7.83368 4.07573 7.4436 4.23398 7.10631 4.47602C6.76902 4.71807 6.49422 5.03695 6.30463 5.40628C6.11505 5.77562 6.01614 6.18479 6.01609 6.59993L6.53087 8.15812ZM6.53087 8.15812C6.20755 7.72288 6.01609 7.18376 6.01609 6.59994L6.53087 8.15812ZM8.63077 9.21454L8.63062 9.21454C8.04637 9.21542 7.47929 9.01978 7.02024 8.65985C7.20314 8.41072 7.44091 8.2067 7.7154 8.06374C8.00396 7.91345 8.32456 7.83508 8.64991 7.83531H8.64999C8.97128 7.83506 9.288 7.91146 9.57384 8.05817C9.84556 8.19764 10.0819 8.39682 10.2653 8.64053C9.80235 9.01252 9.22563 9.21537 8.63077 9.21454ZM8.64995 7.78454C8.97931 7.78428 9.30399 7.8626 9.59702 8.013C9.89005 8.16341 10.143 8.38155 10.3348 8.64931C9.85656 9.04814 9.25338 9.26618 8.6307 9.26531L8.64995 7.78454ZM8.6307 3.29148C6.80353 3.29148 5.32225 4.77277 5.32225 6.59993C5.32225 8.4271 6.80353 9.90838 8.6307 9.90838C10.4579 9.90838 11.9391 8.4271 11.9391 6.59993C11.9391 4.77277 10.4579 3.29148 8.6307 3.29148Z" fill="#95969D" stroke="#95969D" stroke-width="0.1"/>
</g>
<rect x="4.39965" y="13.1154" width="8.8" height="1.1" rx="0.541669" fill="#95969D"/>
<rect x="4.39965" y="15.9246" width="8.8" height="1.1" rx="0.541669" fill="#95969D"/>
<defs>
<clipPath id="clip0_8_6664">
<rect width="7" height="7" fill="white" transform="translate(5.0769 3.04614) scale(1.01538)"/>
</clipPath>
</defs>
</svg>
