<svg width="14" height="15" viewBox="0 0 14 15" fill="none" xmlns="http://www.w3.org/2000/svg">
<path d="M2.51874 6.03888L2.51874 0.525757" stroke="#356899" stroke-linecap="round" stroke-linejoin="round"/>
<path d="M10.9998 8.49792L10.9998 14.0111" stroke="#356899" stroke-linecap="round" stroke-linejoin="round"/>
<path fill-rule="evenodd" clip-rule="evenodd" d="M11.047 4.6355C12.1807 4.6355 13.1 3.70961 13.1 2.56775C13.1 1.42589 12.1807 0.5 11.047 0.5C9.91333 0.5 8.99406 1.42589 8.99406 2.56775C8.99406 3.70961 9.91333 4.6355 11.047 4.6355Z" stroke="#356899" stroke-linecap="round" stroke-linejoin="round"/>
<path fill-rule="evenodd" clip-rule="evenodd" d="M2.55298 14.5C3.68668 14.5 4.60596 13.5748 4.60596 12.433C4.60596 11.2904 3.68668 10.3645 2.55298 10.3645C1.41929 10.3645 0.500012 11.2904 0.500012 12.433C0.500012 13.5748 1.41929 14.5 2.55298 14.5Z" stroke="#356899" stroke-linecap="round" stroke-linejoin="round"/>
</svg>
